<svg width="300" height="300" viewBox="0 0 300 300" fill="none" xmlns="http://www.w3.org/2000/svg">
<path d="M278.7 68.082C277.748 66.482 276.748 64.902 275.7 63.342C261.798 42.732 237.864 28.638 214.32 22.266C203.99 19.5181 193.378 17.9699 182.694 17.652C112.722 15.252 84.852 70.452 61.728 84.654C38.604 98.856 2.99998 123.198 5.39998 174.192C7.79998 225.186 44.532 273.192 115.686 276.192C186.84 279.192 191.586 247.14 231.312 235.278C257.604 227.43 276.312 200.922 285.432 176.424C297.9 143.028 297.312 99.666 278.7 68.082Z" fill="#1A1F71"/>
<path opacity="0.7" d="M278.7 68.082C277.748 66.482 276.748 64.902 275.7 63.342C261.798 42.732 237.864 28.638 214.32 22.266C203.99 19.5181 193.378 17.9699 182.694 17.652C112.722 15.252 84.852 70.452 61.728 84.654C38.604 98.856 2.99998 123.198 5.39998 174.192C7.79998 225.186 44.532 273.192 115.686 276.192C186.84 279.192 191.586 247.14 231.312 235.278C257.604 227.43 276.312 200.922 285.432 176.424C297.9 143.028 297.312 99.666 278.7 68.082Z" fill="white"/>
<path d="M263.136 72.894V70.92H226.62V41.652H225.432V70.92H189.174V72.894H225.432V99.99H189.174V101.97H225.432V129.066H189.174V131.04H225.432V159.51H226.62V131.04H263.136V129.066H226.62V101.97H263.136V99.99H226.62V72.894H263.136Z" fill="#263238" stroke="#263238" stroke-miterlimit="10"/>
<path d="M186.672 39.276V162.678H265.38V39.276H186.672ZM262.722 158.508H189.33V43.44H262.722V158.508Z" fill="#263238" stroke="#263238" stroke-miterlimit="10"/>
<path d="M152.4 194.352C152.403 194.345 152.404 194.337 152.404 194.329C152.404 194.321 152.402 194.313 152.399 194.305C152.395 194.298 152.391 194.292 152.385 194.286C152.379 194.281 152.372 194.277 152.364 194.274C152.357 194.271 152.349 194.27 152.341 194.27C152.333 194.27 152.325 194.272 152.318 194.276C152.31 194.279 152.304 194.284 152.298 194.29C152.293 194.296 152.289 194.302 152.286 194.31C150.524 198.532 149.131 202.898 148.122 207.36C147.093 211.822 146.318 216.34 145.8 220.89L145.476 224.31C145.428 224.88 145.362 225.45 145.32 226.02L145.23 227.736C145.182 228.882 145.11 230.028 145.074 231.174L145.11 234.612L145.146 236.328C145.146 236.898 145.212 237.474 145.254 238.044C145.338 239.184 145.41 240.33 145.512 241.47C145.734 243.75 146.076 246.012 146.424 248.274C146.428 248.287 146.436 248.299 146.447 248.308C146.457 248.316 146.47 248.321 146.484 248.322C146.492 248.323 146.501 248.322 146.508 248.319C146.516 248.317 146.523 248.312 146.529 248.307C146.535 248.301 146.539 248.294 146.542 248.286C146.544 248.278 146.545 248.27 146.544 248.262C146.544 247.116 146.49 245.982 146.466 244.836C146.442 243.69 146.334 242.568 146.352 241.428C146.37 240.288 146.352 239.148 146.316 238.014L146.28 236.31V234.606V231.198L146.37 227.796L146.406 226.092C146.406 225.522 146.472 224.958 146.502 224.388L146.712 220.986C147.099 216.455 147.742 211.95 148.638 207.492C149.51 203.012 150.769 198.615 152.4 194.352Z" fill="#263238"/>
<path d="M152.886 212.16C152.89 212.146 152.889 212.13 152.882 212.117C152.876 212.104 152.864 212.093 152.85 212.088C152.843 212.085 152.835 212.084 152.827 212.084C152.819 212.084 152.811 212.086 152.804 212.09C152.796 212.093 152.79 212.098 152.785 212.104C152.779 212.11 152.775 212.117 152.772 212.124C150.827 217.807 149.533 223.693 148.914 229.668C148.614 232.668 148.278 235.632 148.236 238.632C148.165 241.636 148.271 244.641 148.554 247.632C148.558 247.644 148.565 247.656 148.574 247.664C148.584 247.673 148.596 247.678 148.608 247.68C148.616 247.682 148.624 247.682 148.631 247.68C148.639 247.679 148.646 247.676 148.652 247.671C148.659 247.667 148.664 247.661 148.668 247.654C148.671 247.647 148.674 247.64 148.674 247.632C149.022 244.632 149.232 241.668 149.442 238.692C149.652 235.716 149.682 232.734 149.874 229.758C150.283 223.81 151.288 217.919 152.874 212.172L152.886 212.16Z" fill="#263238"/>
<path d="M162.762 218.43C162.751 218.419 162.736 218.413 162.72 218.413C162.704 218.413 162.689 218.419 162.678 218.43C160.209 220.015 157.985 221.954 156.078 224.184C155.12 225.311 154.257 226.515 153.498 227.784L152.97 228.786L152.55 229.83C152.41 230.173 152.289 230.523 152.19 230.88C152.082 231.24 151.962 231.588 151.866 231.948C151.112 234.797 150.656 237.717 150.504 240.66C150.357 243.588 150.465 246.523 150.828 249.432C150.832 249.445 150.84 249.457 150.85 249.466C150.861 249.474 150.874 249.479 150.888 249.48C150.896 249.481 150.903 249.48 150.911 249.478C150.918 249.475 150.925 249.472 150.93 249.466C150.936 249.461 150.94 249.455 150.944 249.448C150.947 249.441 150.948 249.434 150.948 249.426L151.704 240.744C151.909 237.872 152.275 235.013 152.802 232.182C152.88 231.828 152.982 231.492 153.072 231.144C153.153 230.797 153.253 230.454 153.372 230.118L153.726 229.116L154.182 228.168C154.869 226.905 155.66 225.7 156.546 224.568C158.308 222.268 160.396 220.236 162.744 218.538C162.754 218.534 162.763 218.527 162.769 218.518C162.776 218.51 162.78 218.499 162.782 218.489C162.784 218.478 162.783 218.467 162.779 218.457C162.776 218.447 162.77 218.437 162.762 218.43Z" fill="#263238"/>
<path d="M157.98 229.584C156.699 230.519 155.669 231.755 154.98 233.184C154.255 234.59 153.689 236.074 153.294 237.606C153.18 237.984 153.084 238.368 153 238.752L152.73 239.904C152.588 240.68 152.489 241.463 152.436 242.25C152.436 243.042 152.406 243.828 152.436 244.614C152.493 245.401 152.596 246.184 152.742 246.96C152.746 246.971 152.752 246.981 152.761 246.989C152.769 246.998 152.779 247.004 152.79 247.008C152.798 247.01 152.806 247.01 152.814 247.008C152.822 247.007 152.83 247.004 152.836 246.999C152.843 246.995 152.849 246.989 152.853 246.982C152.858 246.976 152.861 246.968 152.862 246.96C153.044 246.198 153.184 245.427 153.282 244.65C153.402 243.882 153.522 243.126 153.612 242.364C153.702 241.602 153.822 240.852 153.882 240.09C153.942 239.328 154.044 238.566 154.212 237.822C154.476 236.319 154.907 234.85 155.496 233.442C156.028 232.007 156.891 230.718 158.016 229.68C158.021 229.675 158.026 229.669 158.029 229.662C158.031 229.655 158.033 229.648 158.033 229.641C158.033 229.634 158.031 229.626 158.029 229.62C158.026 229.613 158.021 229.607 158.016 229.602C158.006 229.592 157.994 229.586 157.98 229.584Z" fill="#263238"/>
<path d="M144.132 238.284C143.808 234.432 143.172 230.61 142.572 226.8C141.972 222.99 141.3 219.18 140.604 215.4C139.908 211.62 139.128 207.822 138.306 204.054C138.309 204.045 138.31 204.035 138.309 204.026C138.307 204.017 138.304 204.008 138.298 204C138.292 203.992 138.285 203.986 138.277 203.982C138.268 203.977 138.259 203.975 138.249 203.975C138.24 203.975 138.231 203.977 138.222 203.982C138.214 203.986 138.206 203.992 138.201 204C138.195 204.008 138.192 204.017 138.19 204.026C138.189 204.035 138.189 204.045 138.192 204.054C138.852 207.858 139.446 211.668 139.992 215.484C140.538 219.3 141.114 223.11 141.6 226.932C142.086 230.754 142.44 234.594 142.914 238.41L144.324 249.888C144.328 249.902 144.335 249.915 144.346 249.924C144.357 249.934 144.37 249.94 144.384 249.942C144.401 249.942 144.417 249.936 144.429 249.925C144.441 249.914 144.449 249.898 144.45 249.882C144.492 248.916 144.492 247.95 144.516 246.978C144.54 246.006 144.474 245.046 144.462 244.08C144.444 242.142 144.276 240.216 144.132 238.284Z" fill="#263238"/>
<path d="M141.822 238.23C141.612 236.7 141.336 235.182 141.042 233.67L140.502 231.42C140.322 230.67 140.154 229.92 139.938 229.176C139.169 226.186 138.182 223.256 136.986 220.41L136.524 219.348L136.014 218.31C135.684 217.614 135.294 216.948 134.916 216.27C134.159 214.922 133.222 213.683 132.132 212.586C132.127 212.581 132.121 212.577 132.114 212.574C132.108 212.571 132.101 212.569 132.093 212.569C132.086 212.569 132.079 212.571 132.072 212.574C132.065 212.577 132.059 212.581 132.054 212.586C132.043 212.597 132.037 212.612 132.037 212.628C132.037 212.644 132.043 212.659 132.054 212.67C133.07 213.807 133.925 215.076 134.598 216.444C134.934 217.128 135.288 217.8 135.576 218.508L136.032 219.558L136.434 220.632C137.5 223.488 138.359 226.418 139.002 229.398C139.35 230.88 139.602 232.398 139.872 233.892L140.232 236.148C140.364 236.898 140.526 237.648 140.628 238.404C140.868 239.91 141.15 241.404 141.408 242.922C141.666 244.44 141.918 245.922 142.242 247.452C142.245 247.465 142.251 247.478 142.261 247.488C142.27 247.497 142.283 247.504 142.296 247.506C142.313 247.506 142.329 247.5 142.341 247.489C142.353 247.478 142.361 247.462 142.362 247.446C142.362 245.906 142.326 244.366 142.254 242.826C142.164 241.29 141.978 239.76 141.822 238.23Z" fill="#263238"/>
<path d="M138.63 238.428C137.916 236.4 137.088 234.42 136.188 232.482C135.281 230.545 134.255 228.665 133.116 226.854C133.113 226.846 133.108 226.838 133.102 226.832C133.096 226.826 133.088 226.822 133.08 226.819C133.072 226.816 133.063 226.815 133.054 226.816C133.045 226.817 133.037 226.819 133.03 226.824C133.022 226.828 133.016 226.834 133.011 226.841C133.006 226.848 133.002 226.857 133.001 226.865C132.999 226.874 133 226.883 133.002 226.891C133.004 226.899 133.008 226.907 133.014 226.914C134.005 228.795 134.88 230.735 135.636 232.722C136.416 234.69 137.124 236.694 137.712 238.722C138.3 240.75 138.75 242.82 139.29 244.86C139.83 246.9 140.316 248.958 140.946 251.022C140.95 251.034 140.957 251.044 140.966 251.051C140.976 251.059 140.988 251.063 141 251.064C141.017 251.064 141.032 251.058 141.045 251.047C141.057 251.036 141.065 251.02 141.066 251.004C141.089 248.851 140.888 246.701 140.466 244.59C140.02 242.49 139.406 240.429 138.63 238.428Z" fill="#263238"/>
<path d="M138.498 245.166C138.105 243.903 137.533 242.703 136.8 241.602C136.118 240.473 135.287 239.442 134.328 238.536C133.839 238.092 133.314 237.691 132.756 237.336C132.2 236.979 131.593 236.708 130.956 236.532C130.943 236.53 130.929 236.532 130.917 236.538C130.905 236.545 130.896 236.555 130.89 236.568C130.881 236.579 130.876 236.593 130.876 236.607C130.876 236.621 130.881 236.635 130.89 236.646C132.028 237.194 133.036 237.978 133.848 238.944C134.669 239.889 135.361 240.938 135.906 242.064C136.506 243.168 136.794 244.392 137.304 245.538C137.526 246.138 137.748 246.708 138.012 247.296C138.228 247.913 138.486 248.515 138.786 249.096C138.792 249.105 138.8 249.112 138.81 249.118C138.819 249.123 138.83 249.126 138.84 249.126C138.848 249.127 138.856 249.126 138.863 249.124C138.87 249.121 138.877 249.118 138.883 249.112C138.888 249.107 138.893 249.101 138.896 249.094C138.899 249.087 138.9 249.08 138.9 249.072C138.924 248.413 138.9 247.753 138.828 247.098C138.786 246.444 138.654 245.802 138.498 245.166Z" fill="#263238"/>
<path d="M138.738 209.55C136.809 209.016 135.062 207.965 133.687 206.51C132.312 205.054 131.362 203.251 130.938 201.294C129.48 194.49 134.178 197.406 129.966 186.714C125.754 176.022 126.726 173.592 128.166 170.514C129.606 167.436 130.434 168.408 131.73 172.458C133.026 176.508 137.73 182.826 139.53 194.658C141.33 206.49 138.738 209.55 138.738 209.55Z" fill="#1A1F71"/>
<path d="M151.2 198.054C151.2 198.054 147 196.596 146.826 188.658C146.652 180.72 149.904 182.34 150.39 172.458C150.876 162.576 151.524 155.61 153.306 155.448C155.088 155.286 159.786 160.308 161.406 171.324C163.026 182.34 159.3 189.63 156.06 192.87C152.82 196.11 151.2 198.054 151.2 198.054Z" fill="#1A1F71"/>
<path d="M136.47 219.108C136.47 219.108 135.498 213.276 133.554 210.522C131.61 207.768 127.398 205.338 124.644 199.998C121.89 194.658 118.812 192.06 118.974 199.674C119.136 207.288 122.538 211.17 126.774 213.762C131.01 216.354 136.47 219.108 136.47 219.108Z" fill="#1A1F71"/>
<path d="M134.688 229.152C134.688 229.152 130.8 221.7 125.13 216.192C119.46 210.684 114.93 207.93 116.544 210.684C118.158 213.438 120.108 213.276 122.862 218.136C125.616 222.996 124.806 226.536 128.694 229.314C132.582 232.092 134.688 229.152 134.688 229.152Z" fill="#1A1F71"/>
<path d="M134.202 238.71C134.04 238.224 133.878 234.66 128.37 231.744C122.862 228.828 117.678 229.944 118.326 231.42C118.974 232.896 122.376 235.308 125.778 236.766C129.18 238.224 134.202 238.71 134.202 238.71Z" fill="#1A1F71"/>
<path d="M150.882 219.432C150.882 219.432 148.452 216.354 149.748 209.874C151.044 203.394 153.948 205.014 157.2 201.612C160.452 198.21 159.792 197.73 163.032 194.166C166.272 190.602 169.188 188.658 170.484 190.116C171.78 191.574 169.836 196.116 167.892 198.702C165.948 201.288 162.87 202.584 161.4 205.8C159.93 209.016 160.59 214.2 156.864 216.654C153.138 219.108 150.882 219.432 150.882 219.432Z" fill="#1A1F71"/>
<path d="M159 221.214C159 221.214 164.832 214.572 169.044 209.712C173.256 204.852 174.876 201.132 175.044 204.366C175.212 207.6 176.502 210.198 173.1 214.41C169.698 218.622 159 221.214 159 221.214Z" fill="#1A1F71"/>
<path d="M155.904 231.906C155.904 231.906 155.742 229.314 164.976 223.32C174.21 217.326 178.098 216.192 177.126 218.622C176.154 221.052 172.104 223.482 167.73 227.856C163.356 232.23 155.904 231.906 155.904 231.906Z" fill="#1A1F71"/>
<path d="M139.122 208.86C139.122 208.86 136.956 197.244 134.688 188.982C132.42 180.72 130.962 175.698 130.962 175.698" stroke="#263238" stroke-linecap="round" stroke-linejoin="round"/>
<path d="M150.834 198.174C150.834 198.174 154.77 185.574 156.066 177.966C157.362 170.358 155.904 164.682 155.256 161.28" stroke="#263238" stroke-linecap="round" stroke-linejoin="round"/>
<path d="M135.96 218.868C134.216 215.868 132.218 213.021 129.99 210.36C126.426 206.16 123.672 203.88 122.052 199.836" stroke="#263238" stroke-linecap="round" stroke-linejoin="round"/>
<path d="M150.882 219.432C150.882 219.432 152.178 211.632 155.256 207.606C158.334 203.58 164.49 197.244 166.92 193.206" stroke="#263238" stroke-linecap="round" stroke-linejoin="round"/>
<path d="M133.8 238.53C133.8 238.53 128.352 234.984 124.464 233.04" stroke="#263238" stroke-linecap="round" stroke-linejoin="round"/>
<path d="M151.734 272.886H140.478L134.85 244.704H157.362L151.734 272.886Z" fill="#263238" stroke="#263238" stroke-linecap="round" stroke-linejoin="round"/>
<path d="M38.8799 272.886H293.988" stroke="#263238" stroke-miterlimit="10"/>
<path d="M18.708 272.886H34.53" stroke="#263238" stroke-miterlimit="10"/>
<path d="M129.684 100.2V81.3H127.974V57.114C127.975 55.1555 127.59 53.216 126.841 51.4063C126.092 49.5967 124.994 47.9523 123.609 46.5672C122.225 45.182 120.581 44.0832 118.771 43.3335C116.962 42.5839 115.023 42.198 113.064 42.198H32.9521C28.9962 42.198 25.2022 43.7695 22.4049 46.5668C19.6076 49.3641 18.0361 53.158 18.0361 57.114V247.572C18.0361 251.528 19.6076 255.322 22.4049 258.119C25.2022 260.916 28.9962 262.488 32.9521 262.488H113.064C115.023 262.488 116.962 262.102 118.771 261.352C120.581 260.603 122.225 259.504 123.609 258.119C124.994 256.734 126.092 255.089 126.841 253.28C127.59 251.47 127.975 249.531 127.974 247.572V116.31H129.684V105.144H127.974V100.2H129.684Z" fill="#707070" stroke="#263238" stroke-linejoin="round"/>
<path d="M110.448 260.43H35.5622C31.3723 260.43 27.354 258.766 24.3913 255.803C21.4286 252.84 19.7642 248.822 19.7642 244.632V60.054C19.7642 51.324 24.2402 44.25 35.5622 44.25H110.448C120.834 44.112 126.252 51.324 126.252 60.054V244.632C126.252 246.707 125.843 248.762 125.049 250.679C124.255 252.596 123.091 254.338 121.623 255.805C120.155 257.272 118.413 258.436 116.496 259.229C114.578 260.023 112.523 260.431 110.448 260.43Z" fill="#263238" stroke="#263238" stroke-linejoin="round"/>
<path d="M78.8043 46.68L78.7743 46.794C77.8983 50.058 75.8823 52.194 73.6503 52.194H72.3663C70.1343 52.194 68.1183 50.082 67.2423 46.794V46.68L35.9943 46.572C34.2641 46.5664 32.5499 46.9023 30.9497 47.5604C29.3496 48.2185 27.895 49.1859 26.6694 50.4071C25.4437 51.6283 24.4711 53.0793 23.8072 54.677C23.1432 56.2748 22.8011 57.9878 22.8003 59.718L22.7583 242.682C22.7583 251.208 29.4303 258.12 37.6683 258.12H108.372C116.61 258.12 123.288 251.208 123.288 242.682V58.404C123.288 55.4032 122.106 52.5234 119.996 50.3893C117.887 48.2551 115.021 47.0387 112.02 47.004L78.8043 46.68Z" fill="white" stroke="#263238" stroke-miterlimit="10"/>
<path d="M123.276 61.728V58.404C123.277 55.4033 122.094 52.5235 119.984 50.3893C117.875 48.2552 115.009 47.0388 112.008 47.004L78.8043 46.662L78.7743 46.776C77.8983 50.04 75.8823 52.176 73.6503 52.176H72.3663C70.1343 52.176 68.1183 50.064 67.2423 46.776V46.662L35.9943 46.554C34.2626 46.5485 32.5469 46.885 30.9456 47.5442C29.3443 48.2034 27.8889 49.1724 26.663 50.3955C25.4371 51.6186 24.4649 53.0718 23.802 54.6716C23.1391 56.2714 22.7987 57.9863 22.8003 59.718V61.728H123.276Z" fill="#DBDBDB" stroke="#263238" stroke-miterlimit="10"/>
<path d="M74.1 46.32C74.1 46.0421 74.0175 45.7704 73.863 45.5394C73.7084 45.3083 73.4888 45.1284 73.2319 45.0223C72.975 44.9162 72.6924 44.8888 72.4199 44.9434C72.1474 44.9981 71.8972 45.1324 71.7011 45.3294C71.505 45.5263 71.3717 45.777 71.3182 46.0498C71.2647 46.3225 71.2934 46.605 71.4006 46.8615C71.5078 47.1179 71.6887 47.3368 71.9203 47.4903C72.152 47.6439 72.4241 47.7252 72.702 47.724C72.8861 47.724 73.0684 47.6876 73.2384 47.617C73.4084 47.5464 73.5628 47.4429 73.6927 47.3124C73.8226 47.182 73.9254 47.0271 73.9953 46.8568C74.0652 46.6865 74.1008 46.5041 74.1 46.32Z" fill="#707070"/>
<path d="M32.6403 49.884C32.6403 51.306 31.0503 51.816 31.0443 52.884V52.956H32.5863V53.43H30.5283V53.04C30.5283 51.522 32.1183 51.24 32.1183 49.908C32.1183 49.422 31.9563 49.17 31.5663 49.17C31.1763 49.17 31.0143 49.446 31.0143 49.86V50.274H30.5283V49.896C30.5283 49.176 30.8523 48.696 31.5783 48.696C32.3043 48.696 32.6403 49.2 32.6403 49.884Z" fill="#263238"/>
<path d="M35.2142 49.878V49.998C35.2345 50.2034 35.1867 50.4097 35.0783 50.5853C34.9699 50.7609 34.8069 50.8961 34.6142 50.97C34.8081 51.0422 34.9723 51.177 35.081 51.353C35.1897 51.5291 35.2365 51.7363 35.2142 51.942V52.302C35.2142 53.022 34.8782 53.502 34.1522 53.502C33.4262 53.502 33.0962 53.034 33.0962 52.302V51.984H33.6002V52.338C33.6002 52.758 33.7742 53.016 34.1522 53.016C34.5302 53.016 34.6982 52.764 34.6982 52.29V51.93C34.6982 51.462 34.5062 51.24 34.0982 51.228H33.8162V50.76H34.1222C34.2039 50.7609 34.2848 50.744 34.3593 50.7106C34.4339 50.6772 34.5003 50.6279 34.5539 50.5663C34.6076 50.5047 34.6472 50.4321 34.67 50.3537C34.6928 50.2752 34.6984 50.1928 34.6862 50.112V49.902C34.6862 49.416 34.5182 49.17 34.1402 49.17C33.7622 49.17 33.5882 49.428 33.5882 49.854V50.094H33.0962V49.878C33.0962 49.164 33.4322 48.678 34.1522 48.678C34.8722 48.678 35.2142 49.164 35.2142 49.878Z" fill="#263238"/>
<path d="M36.2281 50.238V50.886H35.7241V50.238H36.2281ZM36.2281 52.794V53.442H35.7241V52.8L36.2281 52.794Z" fill="#263238"/>
<path d="M37.2841 50.658C37.3538 50.5346 37.4562 50.4328 37.5801 50.364C37.704 50.2951 37.8445 50.2619 37.9861 50.268C38.5861 50.268 38.8561 50.712 38.8561 51.384V52.302C38.8561 53.022 38.5141 53.502 37.8001 53.502C37.0861 53.502 36.7441 53.034 36.7441 52.302V51.99H37.2301V52.338C37.2301 52.758 37.4101 53.016 37.7821 53.016C38.1541 53.016 38.3341 52.758 38.3341 52.338V51.426C38.3341 51 38.1601 50.748 37.7821 50.748C37.714 50.7448 37.6458 50.7554 37.5819 50.7793C37.5179 50.8031 37.4595 50.8398 37.4101 50.8869C37.3608 50.934 37.3215 50.9907 37.2947 51.0534C37.2678 51.1162 37.2541 51.1838 37.2541 51.252V51.354H36.7621L36.8881 48.744H38.7421V49.2H37.3621L37.2841 50.658Z" fill="#263238"/>
<path d="M41.4723 49.872V49.962H40.9803V49.842C40.9803 49.416 40.8063 49.17 40.4223 49.17C40.0383 49.17 39.8223 49.422 39.8223 49.926V51C39.8767 50.8454 39.9798 50.7126 40.1161 50.6217C40.2525 50.5308 40.4147 50.4867 40.5783 50.496C41.1783 50.496 41.4543 50.934 41.4543 51.612V52.32C41.4543 53.04 41.1003 53.52 40.3803 53.52C39.6603 53.52 39.3003 53.052 39.3003 52.32V49.92C39.3003 49.176 39.6363 48.72 40.3803 48.72C41.1243 48.72 41.4723 49.152 41.4723 49.872ZM39.8523 51.63V52.338C39.8523 52.758 40.0263 53.016 40.4103 53.016C40.7943 53.016 40.9683 52.758 40.9683 52.338V51.63C40.9683 51.21 40.7883 50.952 40.4103 50.952C40.0323 50.952 39.8523 51.21 39.8523 51.63Z" fill="#263238"/>
<path d="M92.7723 50.082H91.4463V53.4H92.7723V50.082Z" fill="#263238"/>
<path d="M94.5423 49.416H93.2163V53.4H94.5423V49.416Z" fill="#263238"/>
<path d="M96.3123 48.942H94.9863V53.394H96.3123V48.942Z" fill="#263238"/>
<path d="M98.076 48.12H96.75V53.394H98.076V48.12Z" fill="#263238"/>
<path d="M114.498 53.304H106.536V48.438H114.498V53.304ZM106.98 52.866H114.054V48.882H106.98V52.866Z" fill="#263238"/>
<path d="M111.846 49.3619H107.646V52.3799H111.846V49.3619Z" fill="#263238"/>
<path d="M115.224 50.298H114.222V51.444H115.224V50.298Z" fill="#263238"/>
<path d="M103.62 52.248C103.565 52.2491 103.511 52.2345 103.464 52.206C101.844 51.24 100.776 52.134 100.728 52.176C100.673 52.2305 100.599 52.2612 100.521 52.2612C100.444 52.2612 100.369 52.2305 100.314 52.176C100.259 52.1199 100.229 52.0445 100.229 51.966C100.229 51.8874 100.259 51.812 100.314 51.756C100.374 51.708 101.742 50.556 103.746 51.756C103.8 51.7905 103.841 51.8411 103.864 51.9006C103.887 51.9601 103.89 52.0254 103.873 52.0869C103.857 52.1484 103.821 52.203 103.771 52.2427C103.721 52.2825 103.66 52.3053 103.596 52.308L103.62 52.248Z" fill="#263238"/>
<path d="M104.22 51.246C104.165 51.2472 104.111 51.2326 104.064 51.204C101.724 49.812 100.146 51.162 100.134 51.204C100.074 51.245 100.001 51.2628 99.9285 51.2539C99.8562 51.245 99.7896 51.2102 99.7411 51.1558C99.6927 51.1015 99.6656 51.0313 99.665 50.9585C99.6645 50.8857 99.6904 50.8151 99.738 50.76C99.738 50.76 101.658 49.116 104.37 50.724C104.404 50.7438 104.433 50.7701 104.457 50.8015C104.48 50.8328 104.497 50.8685 104.507 50.9065C104.516 50.9445 104.518 50.9841 104.512 51.0228C104.506 51.0615 104.493 51.0986 104.472 51.132C104.443 51.1706 104.405 51.2013 104.361 51.2212C104.317 51.2412 104.268 51.2497 104.22 51.246Z" fill="#263238"/>
<path d="M104.76 50.0879C104.707 50.0883 104.655 50.0737 104.61 50.0459C101.646 48.2819 99.6721 49.9439 99.5881 50.0459C99.5607 50.0739 99.528 50.0961 99.492 50.1112C99.4559 50.1264 99.4172 50.1342 99.3781 50.1342C99.339 50.1342 99.3002 50.1264 99.2642 50.1112C99.2281 50.0961 99.1955 50.0739 99.1681 50.0459C99.1422 50.0171 99.1223 49.9834 99.1098 49.9467C99.0972 49.91 99.0922 49.8712 99.095 49.8326C99.0978 49.7939 99.1084 49.7562 99.1261 49.7217C99.1438 49.6873 99.1683 49.6567 99.1981 49.6319C99.1981 49.6319 101.562 47.6039 104.916 49.5959C104.983 49.637 105.031 49.7028 105.051 49.7791C105.07 49.8554 105.058 49.9361 105.018 50.0039C104.985 50.0376 104.944 50.0629 104.899 50.0775C104.854 50.0921 104.807 50.0957 104.76 50.0879Z" fill="#263238"/>
<path d="M102.726 52.746C102.727 52.8956 102.684 53.0421 102.601 53.1667C102.518 53.2913 102.4 53.3883 102.261 53.4452C102.123 53.5021 101.971 53.5163 101.824 53.4861C101.678 53.4558 101.544 53.3825 101.439 53.2754C101.335 53.1683 101.265 53.0325 101.238 52.8852C101.211 52.738 101.229 52.5862 101.29 52.4493C101.35 52.3124 101.45 52.1967 101.576 52.1169C101.703 52.0372 101.851 51.9972 102 52.002C102.194 52.0067 102.379 52.0871 102.515 52.2261C102.65 52.3652 102.726 52.5517 102.726 52.746Z" fill="#263238"/>
<path d="M72.918 130.596C86.118 130.8 97.116 135.804 105.786 145.812C106.065 146.115 106.28 146.471 106.417 146.86C106.554 147.248 106.612 147.66 106.585 148.071C106.559 148.482 106.449 148.884 106.264 149.251C106.078 149.619 105.819 149.945 105.504 150.21C105.199 150.472 104.845 150.669 104.462 150.791C104.079 150.913 103.675 150.957 103.275 150.92C102.875 150.883 102.486 150.766 102.132 150.576C101.778 150.386 101.466 150.127 101.214 149.814C98.1203 146.158 94.3595 143.124 90.132 140.874C83.6312 137.42 76.2425 136 68.9245 136.797C61.6065 137.594 54.6969 140.572 49.092 145.344C47.5254 146.737 46.039 148.217 44.64 149.778C44.3789 150.094 44.0577 150.356 43.6949 150.547C43.3322 150.738 42.9351 150.856 42.5267 150.892C42.1182 150.929 41.7065 150.885 41.3154 150.761C40.9243 150.638 40.5615 150.438 40.248 150.174C39.9387 149.903 39.6871 149.573 39.5081 149.203C39.3291 148.833 39.2265 148.431 39.2063 148.021C39.1862 147.61 39.2489 147.2 39.3907 146.814C39.5326 146.429 39.7507 146.076 40.032 145.776C46.9715 137.532 56.7613 132.205 67.452 130.854C68.316 130.74 69.186 130.644 70.056 130.608C70.926 130.572 71.964 130.596 72.918 130.596Z" fill="#263238"/>
<path d="M74.0102 142.83C82.3502 143.046 90.2102 146.604 96.3542 153.732C96.637 154.031 96.8553 154.385 96.9954 154.772C97.1355 155.159 97.1945 155.571 97.1686 155.982C97.1427 156.393 97.0325 156.794 96.8449 157.16C96.6573 157.527 96.3963 157.851 96.0782 158.112C95.7707 158.379 95.4121 158.58 95.0242 158.704C94.6363 158.828 94.2272 158.872 93.8219 158.833C93.4166 158.793 93.0236 158.672 92.6667 158.476C92.3098 158.28 91.9966 158.013 91.7462 157.692C88.6657 153.964 84.5213 151.263 79.8662 149.952C70.2002 147.336 61.8002 149.724 54.7802 156.894C54.5162 157.164 54.2762 157.452 54.0302 157.728C53.7701 158.037 53.4512 158.291 53.0921 158.476C52.7329 158.661 52.3406 158.772 51.9379 158.804C51.5353 158.836 51.1303 158.787 50.7466 158.661C50.3629 158.535 50.008 158.334 49.7027 158.07C49.3974 157.805 49.1476 157.483 48.968 157.121C48.7883 156.759 48.6824 156.366 48.6563 155.963C48.6302 155.56 48.6844 155.155 48.8159 154.773C48.9474 154.391 49.1535 154.04 49.4222 153.738C52.1345 150.521 55.4799 147.896 59.2502 146.028C63.5642 143.886 68.1422 142.848 74.0102 142.83Z" fill="#263238"/>
<path d="M87.7259 163.686C87.7285 164.304 87.5434 164.907 87.1952 165.417C86.8469 165.927 86.352 166.32 85.7759 166.542C85.1919 166.773 84.55 166.816 83.9407 166.663C83.3314 166.51 82.7855 166.17 82.3799 165.69C81.1133 164.195 79.5204 163.011 77.7239 162.228C72.7199 160.104 67.1999 161.4 63.4739 165.6C63.0981 166.079 62.5832 166.43 61.9999 166.606C61.4167 166.781 60.7935 166.771 60.2159 166.578C59.7371 166.428 59.3028 166.162 58.9516 165.804C58.6005 165.446 58.3434 165.006 58.2032 164.525C58.063 164.043 58.0442 163.534 58.1483 163.043C58.2524 162.553 58.4762 162.095 58.7999 161.712C60.5217 159.641 62.6791 157.976 65.1182 156.835C67.5573 155.693 70.2182 155.104 72.9112 155.108C75.6042 155.113 78.263 155.711 80.6983 156.861C83.1335 158.011 85.2851 159.684 86.9999 161.76C87.3735 162.34 87.6757 162.962 87.8999 163.614L87.7259 163.686Z" fill="#263238"/>
<path d="M72.9123 179.7C71.6999 179.703 70.5137 179.347 69.5043 178.675C68.4948 178.004 67.7076 177.047 67.2426 175.927C66.7775 174.808 66.6555 173.575 66.892 172.386C67.1286 171.197 67.713 170.105 68.5712 169.248C69.4294 168.392 70.5226 167.809 71.7122 167.575C72.9019 167.341 74.1343 167.465 75.2531 167.933C76.3719 168.4 77.3266 169.189 77.9963 170.2C78.6659 171.211 79.0203 172.397 79.0143 173.61C79.0151 174.411 78.8578 175.204 78.5512 175.944C78.2447 176.684 77.7951 177.356 77.2282 177.922C76.6612 178.488 75.9881 178.936 75.2475 179.241C74.5069 179.546 73.7133 179.702 72.9123 179.7Z" fill="#263238"/>
<path d="M72.9481 109.2C64.318 109.199 55.8813 111.757 48.7052 116.551C41.529 121.345 35.9357 128.159 32.6325 136.132C29.3294 144.105 28.4648 152.878 30.1482 161.343C31.8315 169.807 35.9872 177.582 42.0896 183.684C48.192 189.787 55.967 193.943 64.4314 195.626C72.8957 197.309 81.6691 196.445 89.6421 193.142C97.6151 189.838 104.429 184.245 109.223 177.069C114.017 169.893 116.575 161.456 116.574 152.826C116.56 141.26 111.959 130.172 103.781 121.993C95.6022 113.815 84.514 109.214 72.9481 109.2ZM35.3161 152.85C35.3065 145.539 37.4278 138.385 41.4206 132.261C45.4133 126.137 51.1043 121.309 57.7975 118.369C64.4907 115.428 71.8957 114.502 79.1068 115.704C86.3179 116.906 93.0224 120.184 98.4001 125.136L45.2341 178.278C38.8524 171.348 35.3118 162.271 35.3161 152.85ZM72.9481 190.482C64.4831 190.487 56.2663 187.623 49.6381 182.358L102.438 129.558C106.826 135.1 109.562 141.767 110.334 148.794C111.106 155.821 109.881 162.923 106.8 169.285C103.719 175.647 98.9078 181.012 92.917 184.765C86.9262 188.517 79.999 190.505 72.9301 190.5L72.9481 190.482Z" fill="#1A1F71"/>
<path d="M256.5 272.886H250.812L249.594 259.35H257.718L256.5 272.886Z" fill="#263238" stroke="#263238" stroke-miterlimit="10"/>
<path d="M280.188 272.886H274.5L273.282 259.35H281.406L280.188 272.886Z" fill="#263238" stroke="#263238" stroke-miterlimit="10"/>
<path d="M223.338 272.886H217.65L216.438 259.35H224.556L223.338 272.886Z" fill="#263238" stroke="#263238" stroke-miterlimit="10"/>
<path d="M197.958 272.886H192.276L191.058 259.35H199.176L197.958 272.886Z" fill="#263238" stroke="#263238" stroke-miterlimit="10"/>
<path d="M225.102 172.14H284.214C284.214 172.14 284.448 192.69 281.406 207.24C278.364 221.79 274.638 230.586 274.638 230.586H218.466C218.466 230.586 226.8 198.402 225.102 172.14Z" fill="white" stroke="#263238" stroke-miterlimit="10"/>
<path d="M249.636 175.278C244.452 174.87 242.394 173.826 238.518 171.678C233.472 168.912 232.392 170.754 232.752 173.52C233.112 176.286 227.85 194.52 226.752 203.7C225.654 212.88 226.026 217.818 226.026 217.818C226.026 217.818 222.786 220.584 224.946 221.502C226.335 222.079 227.787 222.491 229.272 222.732H271.068C271.068 222.732 278.496 184.566 279.216 178.428C279.936 172.29 276.696 171.678 274.89 172.596C273.084 173.514 272.73 174.132 270.204 174.438C264.3 175.2 256.74 175.83 249.636 175.278Z" fill="#1A1F71"/>
<path d="M236.178 175.896C237.259 174.683 238.02 173.218 238.392 171.636C237.888 171.366 237.426 171.144 237 170.964C236.723 172.44 236.046 173.812 235.044 174.93C234.296 175.839 233.369 176.585 232.32 177.12C232.212 177.666 232.092 178.26 231.96 178.92C233.616 178.317 235.075 177.271 236.178 175.896Z" fill="white"/>
<path d="M273.6 187.836C270.954 190.944 271.056 193.704 271.152 196.38C271.248 198.876 271.332 201.228 269.064 203.898C266.796 206.568 264.45 206.85 261.972 207.162C259.32 207.486 256.572 207.828 253.932 210.936C251.292 214.044 251.382 216.804 251.484 219.474C251.559 220.568 251.529 221.667 251.394 222.756H252.906C253.021 221.648 253.043 220.532 252.972 219.42C252.882 216.924 252.792 214.566 255.066 211.902C257.34 209.238 259.674 208.944 262.158 208.638C264.81 208.314 267.558 207.972 270.198 204.864C272.838 201.756 272.742 198.996 272.646 196.32C272.55 193.824 272.466 191.466 274.74 188.802C275.599 187.755 276.698 186.932 277.944 186.402C278.046 185.802 278.148 185.25 278.244 184.704C276.42 185.265 274.804 186.355 273.6 187.836Z" fill="white"/>
<path d="M231.138 222.084C233.796 221.754 236.538 221.412 239.184 218.304C241.83 215.196 241.728 212.436 241.632 209.766C241.536 207.27 241.452 204.912 243.72 202.248C245.988 199.584 248.334 199.29 250.812 198.984C253.464 198.654 256.212 198.318 258.852 195.21C261.492 192.102 261.402 189.336 261.3 186.666C261.21 184.17 261.12 181.812 263.394 179.148C265.668 176.484 268.008 176.19 270.486 175.884C272.964 175.578 275.442 175.284 277.89 172.8C277.416 172.447 276.837 172.265 276.246 172.284C274.89 173.392 273.237 174.074 271.494 174.246C271.074 174.341 270.65 174.413 270.222 174.462L268.422 174.672C265.999 175.035 263.8 176.294 262.26 178.2C259.608 181.314 259.71 184.074 259.812 186.744C259.902 189.24 259.992 191.598 257.718 194.268C255.444 196.938 253.11 197.22 250.626 197.526C247.974 197.856 245.226 198.192 242.586 201.3C239.946 204.408 240.042 207.174 240.138 209.844C240.234 212.34 240.318 214.698 238.05 217.362C235.782 220.026 233.436 220.32 230.958 220.626C229.216 220.739 227.51 221.179 225.93 221.922C226.715 222.197 227.517 222.421 228.33 222.594C229.252 222.355 230.191 222.184 231.138 222.084Z" fill="white"/>
<path d="M227.844 208.65C230.49 205.542 230.388 202.782 230.292 200.112C230.202 197.61 230.112 195.258 232.386 192.588C234.66 189.918 236.994 189.636 239.472 189.33C242.124 189 244.872 188.658 247.518 185.55C250.164 182.442 250.062 179.682 249.966 177.012C249.966 176.412 249.924 175.866 249.93 175.296H249.636L248.436 175.182C248.436 175.824 248.436 176.454 248.466 177.084C248.562 179.58 248.646 181.938 246.378 184.602C244.11 187.266 241.764 187.56 239.286 187.866C236.634 188.196 233.886 188.532 231.24 191.64C228.594 194.748 228.696 197.508 228.798 200.184C228.888 202.68 228.972 205.038 226.704 207.702C226.578 207.852 226.452 207.99 226.32 208.122C226.26 208.884 226.206 209.604 226.164 210.276C226.78 209.795 227.344 209.25 227.844 208.65Z" fill="white"/>
<path d="M249.636 175.278C244.452 174.87 242.394 173.826 238.518 171.678C233.472 168.912 232.392 170.754 232.752 173.52C233.112 176.286 227.85 194.52 226.752 203.7C225.654 212.88 226.026 217.818 226.026 217.818C226.026 217.818 222.786 220.584 224.946 221.502C226.335 222.079 227.787 222.491 229.272 222.732H271.068C271.068 222.732 278.496 184.566 279.216 178.428C279.936 172.29 276.696 171.678 274.89 172.596C273.084 173.514 272.73 174.132 270.204 174.438C264.3 175.2 256.74 175.83 249.636 175.278Z" stroke="#263238" stroke-miterlimit="10"/>
<path d="M225.102 172.14H221.76C221.154 172.14 220.565 172.344 220.089 172.72C219.614 173.095 219.278 173.62 219.138 174.21L214.986 191.61C214.218 194.838 211.59 204.138 208.698 205.764C206.922 206.76 204.92 207.283 202.884 207.282H190.356L195.684 261.744H218.484L224.484 175.026C224.504 174.826 224.504 174.626 224.484 174.426H225.162L225.102 172.14Z" fill="white" stroke="#263238" stroke-miterlimit="10"/>
<path d="M193.698 207.276H206.232C208.268 207.276 210.27 206.753 212.046 205.758C214.938 204.132 217.56 194.832 218.334 191.604L222.48 174.204C222.622 173.615 222.957 173.09 223.433 172.715C223.908 172.339 224.496 172.135 225.102 172.134C225.472 172.134 225.837 172.21 226.176 172.357C226.515 172.504 226.82 172.72 227.072 172.99C227.324 173.26 227.518 173.579 227.642 173.927C227.765 174.275 227.816 174.645 227.79 175.014L221.64 261.738H198.84L193.698 207.276Z" fill="white" stroke="#263238" stroke-miterlimit="10"/>
<path d="M247.224 261.768L248.526 222.756L196.26 222.294L197.568 261.768H247.224Z" fill="white" stroke="#263238" stroke-miterlimit="10"/>
<path d="M287.556 172.14H284.214C283.608 172.141 283.02 172.345 282.544 172.721C282.069 173.096 281.733 173.621 281.592 174.21L277.44 191.61C276.672 194.838 274.05 204.138 271.152 205.764C269.377 206.761 267.374 207.284 265.338 207.282H252.81L255 261.738H280.692L286.902 175.02C286.925 174.821 286.925 174.619 286.902 174.42H287.58L287.556 172.14Z" fill="white" stroke="#263238" stroke-miterlimit="10"/>
<path d="M256.152 207.276H268.686C270.722 207.276 272.724 206.753 274.5 205.758C277.392 204.132 280.02 194.832 280.788 191.604L284.94 174.204C285.081 173.615 285.415 173.091 285.889 172.715C286.364 172.34 286.951 172.135 287.556 172.134C287.926 172.133 288.292 172.208 288.631 172.355C288.971 172.502 289.276 172.718 289.528 172.988C289.781 173.258 289.974 173.578 290.098 173.926C290.221 174.275 290.271 174.645 290.244 175.014L284.148 260.4C284.121 260.759 283.96 261.095 283.696 261.341C283.433 261.587 283.087 261.724 282.726 261.726H258.198L256.152 207.276Z" fill="white" stroke="#263238" stroke-miterlimit="10"/>
<path d="M248.526 211.2L247.2 261.768H258.174L260.082 211.2C260.082 210.684 259.981 210.173 259.783 209.697C259.585 209.22 259.296 208.788 258.931 208.423C258.566 208.059 258.132 207.77 257.656 207.573C257.179 207.376 256.668 207.275 256.152 207.276H252.456C251.94 207.275 251.429 207.376 250.953 207.573C250.476 207.77 250.043 208.059 249.678 208.423C249.313 208.788 249.023 209.22 248.825 209.697C248.628 210.173 248.526 210.684 248.526 211.2Z" fill="white" stroke="#263238" stroke-miterlimit="10"/>
<path d="M184.764 211.2L186.648 261.768H197.622L196.314 211.2C196.314 210.159 195.901 209.161 195.165 208.425C194.429 207.689 193.431 207.276 192.39 207.276H188.694C188.178 207.275 187.667 207.376 187.191 207.573C186.714 207.77 186.281 208.059 185.916 208.423C185.551 208.788 185.261 209.22 185.063 209.697C184.866 210.173 184.764 210.684 184.764 211.2Z" fill="white" stroke="#263238" stroke-miterlimit="10"/>
<path d="M196.524 239.538H248.028" stroke="#263238" stroke-miterlimit="10"/>
<path d="M171.33 172.338C171.33 172.338 166.566 198.81 165.522 203.286C164.478 207.762 161.922 230.58 161.922 236.25C161.922 241.92 162.366 259.05 162.366 259.05C162.366 259.05 160.428 259.944 160.428 260.688C160.428 261.432 161.922 266.208 161.922 266.208L170.718 269.49C170.718 269.49 172.518 265.29 172.656 263.82C172.794 262.35 171.612 261.732 171.612 259.194C171.612 256.656 176.088 227.13 177.432 222.21C178.776 217.29 182.652 202.524 183.396 201.18C184.14 199.836 187.872 189.996 187.872 189.996L189.96 191.04C189.96 191.04 191.298 222.06 192.048 223.998C192.798 225.936 202.8 257.52 202.8 257.52C202.8 257.52 201.162 258.264 202.2 260.058C203.238 261.852 205.032 265.872 205.032 265.872C205.032 265.872 206.676 263.634 208.632 263.19C210.588 262.746 213.852 264.678 213.852 264.678C213.852 264.678 215.79 260.202 215.34 258.12C214.89 256.038 212.94 252.45 212.808 251.406C212.676 250.362 208.608 220.29 208.608 220.29C208.608 220.29 209.652 178.23 209.652 175.398C209.596 173.466 209.244 171.553 208.608 169.728C202.351 171.875 195.823 173.131 189.216 173.46C178.626 173.904 172.812 169.584 172.812 169.584L171.33 172.338Z" fill="#263238" stroke="#263238" stroke-miterlimit="10"/>
<path d="M161.946 266.226C161.946 266.226 157.02 270.696 156.126 271.296C155.232 271.896 148.968 274.296 149.118 275.496C149.268 276.696 150.918 277.434 150.918 277.434H171.204C171.204 277.434 171.348 276.834 171.648 274.002C171.791 272.166 171.484 270.323 170.754 268.632L161.946 266.226Z" fill="white" stroke="#263238" stroke-miterlimit="10"/>
<path d="M171.498 275.256L149.226 275.856C149.61 276.534 150.198 277.074 150.906 277.398H171.192C171.192 277.398 171.294 276.996 171.498 275.256Z" fill="white" stroke="#263238" stroke-miterlimit="10"/>
<path d="M205.044 265.872C205.044 265.872 204.894 269.598 204.894 271.542C204.894 273.486 204.6 275.742 204.744 276.162C204.888 276.582 205.194 277.362 205.194 277.362H216.978C216.978 277.362 217.422 276.162 216.828 273.93C216.234 271.698 215.184 270.504 214.89 268.53C214.662 267.209 214.312 265.911 213.846 264.654C213.846 264.654 208.026 260.058 205.044 265.872Z" fill="white" stroke="#263238" stroke-miterlimit="10"/>
<path d="M217.134 275.946C212.652 275.946 207.072 275.802 204.702 275.742C204.701 275.883 204.715 276.024 204.744 276.162C204.894 276.612 205.194 277.362 205.194 277.362H216.978C217.107 276.902 217.16 276.423 217.134 275.946Z" fill="white" stroke="#263238" stroke-miterlimit="10"/>
<path d="M167.1 116.184C167.1 116.184 154.428 128.082 154.98 129.192C155.532 130.302 159 139.308 159 139.308C159 139.308 159.996 145.308 159.444 149.094C159.106 151.488 158.994 153.909 159.108 156.324C160.272 157.792 161.696 159.035 163.308 159.99C165.756 161.328 167.646 163.662 169.206 159.882C170.766 156.102 170.094 149.316 170.094 149.316C170.094 149.316 172.2 157.548 172.554 159C172.908 160.452 171.354 172.344 171.354 172.344C171.354 172.344 178.998 178.8 192 177.336C205.002 175.872 209.124 171.336 209.124 171.336C209.124 171.336 207.786 156.768 207.786 155.1C207.773 153.947 207.699 152.795 207.564 151.65C207.564 151.65 212.124 156.324 214.35 156.102C216.576 155.88 220.464 146.76 219.462 145.302C218.46 143.844 215.016 137.952 212.904 133.728C211.631 131.182 210.571 128.535 209.736 125.814C209.736 125.814 206.064 113.358 204.936 112.47C203.808 111.582 191.316 111.72 189.09 111.168C186.151 110.589 183.179 110.189 180.192 109.968C179.448 109.956 169.548 112.29 167.1 116.184Z" fill="#1A1F71" stroke="#263238" stroke-miterlimit="10"/>
<path d="M204.48 132.834C204.42 129.642 204.408 127.158 204.408 127.158" stroke="#263238" stroke-miterlimit="10"/>
<path d="M207.6 151.65C206.751 149.919 206.009 148.138 205.38 146.316C204.936 144.99 204.702 140.256 204.576 135.822" stroke="#263238" stroke-miterlimit="10"/>
<path d="M163.758 138.48C162.624 136.5 161.76 134.952 161.652 134.64" stroke="#263238" stroke-miterlimit="10"/>
<path d="M170.106 149.316C170.106 149.316 167.262 144.516 164.874 140.412" stroke="#263238" stroke-miterlimit="10"/>
<path d="M184.56 111.51C185.018 115.425 185.056 119.377 184.674 123.3" stroke="#263238" stroke-miterlimit="10"/>
<path d="M192.042 166.392C193.38 166.662 194.814 166.908 196.344 167.106" stroke="#263238" stroke-miterlimit="10"/>
<path d="M175.884 159.216C175.884 159.216 179.484 163.164 189.084 165.696" stroke="#263238" stroke-miterlimit="10"/>
<path d="M185.67 167.664C189.792 169.514 194.274 170.426 198.792 170.334" stroke="#263238" stroke-miterlimit="10"/>
<path d="M159.096 98.1661C159.096 98.1661 160.428 104.394 160.542 105.732C160.656 107.07 160.986 108.846 162.654 111.51C164.322 114.174 168.654 120.072 169.548 120.408C170.442 120.744 173.886 119.85 173.886 119.85C173.886 119.85 177.552 127.08 178.554 126.858C179.556 126.636 182.112 118.404 182.448 115.068C182.66 113.409 182.696 111.731 182.556 110.064L181.002 104.508C181.002 104.508 179.67 96.7081 179.67 96.1681C179.67 95.6281 180.444 91.6081 176.112 89.9401C171.78 88.2721 166.434 88.1401 162.876 92.2741C159.318 96.4081 159.096 98.1661 159.096 98.1661Z" fill="white" stroke="#263238" stroke-miterlimit="10"/>
<path d="M171 91.164C169.44 93.5312 167.395 95.5396 165 97.056C160.89 99.726 162.888 96.834 162.888 96.834C162.888 96.834 159.996 98.634 157.662 99.834C155.328 101.034 156.216 101.394 155.328 101.034C154.44 100.674 151.128 91.206 158.562 86.634C165.996 82.062 171.42 83.268 171.42 83.268C171.42 83.268 168.192 81.822 171.084 81.822C173.976 81.822 175.2 83.4 175.2 83.4C175.2 83.4 176.754 82.956 177.42 83.844C177.711 84.1612 178.076 84.4022 178.482 84.546C182.082 86.07 183.336 89.478 184.014 93.036C184.458 95.37 182.568 100.932 182.568 100.932L179.448 102.6C178.692 101.911 178.08 101.079 177.648 100.152C177.364 99.253 177.214 98.3168 177.204 97.374C177.204 97.374 175.314 99.816 174.978 98.04C174.642 96.264 173.778 91.704 173.778 91.704C173.778 91.704 174.114 93.504 173.004 93.504C171.894 93.504 171 91.164 171 91.164Z" fill="#263238" stroke="#263238" stroke-miterlimit="10"/>
<path d="M179.22 103.392C179.22 103.392 179.112 99.6121 181.338 98.3881C183.564 97.1641 185.118 98.5021 184.446 102.06C183.774 105.618 179.778 106.95 179.778 106.95" fill="white"/>
<path d="M179.22 103.392C179.22 103.392 179.112 99.6121 181.338 98.3881C183.564 97.1641 185.118 98.5021 184.446 102.06C183.774 105.618 179.778 106.95 179.778 106.95" stroke="#263238" stroke-miterlimit="10"/>
<path d="M173.886 119.85L179.778 113.958L175.884 122.964L173.886 119.85Z" fill="#263238" stroke="#263238" stroke-miterlimit="10"/>
<path d="M171.162 113.892C171.287 114.11 171.325 114.367 171.268 114.612C171.211 114.857 171.064 115.071 170.856 115.212C170.454 115.374 169.944 115.044 169.716 114.474C169.488 113.904 169.626 113.31 170.022 113.148C170.418 112.986 170.928 113.322 171.162 113.892Z" fill="#263238"/>
<path d="M172.698 103.596C172.914 104.304 172.758 104.976 172.356 105.102C171.954 105.228 171.438 104.754 171.222 104.052C171.006 103.35 171.162 102.678 171.564 102.552C171.966 102.426 172.482 102.894 172.698 103.596Z" fill="#263238"/>
<path d="M165.396 104.832C165.612 105.54 165.456 106.212 165.048 106.338C164.64 106.464 164.136 105.996 163.92 105.288C163.704 104.58 163.854 103.914 164.262 103.788C164.67 103.662 165.174 104.13 165.396 104.832Z" fill="#263238"/>
<path d="M165.66 102.06C166.153 102.463 166.549 102.973 166.818 103.55C167.087 104.128 167.222 104.759 167.214 105.396C167.214 107.622 166.878 110.958 166.878 110.958L170.886 110.4" stroke="#263238" stroke-miterlimit="10"/>
<path d="M168.324 100.614C168.324 100.614 170.328 97.056 173.442 97.722" stroke="#263238" stroke-miterlimit="10"/>
<path d="M164.766 101.28C164.766 101.28 162.324 100.506 160.656 101.502" stroke="#263238" stroke-miterlimit="10"/>
<path d="M232.8 129.858C232.8 129.858 235.248 128.97 236.136 128.658C237.024 128.346 237.936 128.88 239.472 128.106C241.008 127.332 242.808 125.766 242.922 126.906C243.036 128.046 242.472 128.46 241.584 129.018C240.696 129.576 239.25 130.686 239.25 130.686L238.806 131.796L232.134 131.244C232.134 131.244 232.26 130.2 232.8 129.858Z" fill="white" stroke="#263238" stroke-miterlimit="10"/>
<path d="M246.21 132.732C246.21 132.732 249.276 130.302 249.72 129.192C250.164 128.082 249.384 127.992 248.61 128.412C247.836 128.832 245.4 130.86 245.4 130.86L246.21 132.732Z" fill="white" stroke="#263238" stroke-miterlimit="10"/>
<path d="M243.702 133.26C243.702 133.26 245.982 133.5 246.21 132.732C246.438 131.964 248.238 127.128 247.944 126.522C247.65 125.916 247.08 125.97 246.45 126.972C245.776 128.346 245.194 129.763 244.71 131.214C244.71 131.214 243.186 131.556 242.802 132.6C242.418 133.644 243.702 133.26 243.702 133.26Z" fill="white" stroke="#263238" stroke-miterlimit="10"/>
<path d="M240.822 133.86C240.822 133.86 242.94 134.754 243.384 134.082C243.828 133.41 246.942 129.282 246.828 128.634C246.714 127.986 246.162 127.86 245.274 128.634C244.23 129.753 243.263 130.941 242.382 132.192C242.382 132.192 240.822 132.084 240.156 132.972C239.49 133.86 240.822 133.86 240.822 133.86Z" fill="white" stroke="#263238" stroke-miterlimit="10"/>
<path d="M209.802 152.1C210.681 148.542 212.916 145.469 216.03 143.538C221.364 140.088 228.6 133.86 228.6 133.86C228.6 133.86 231.048 130.416 232.8 129.858C234.552 129.3 240.36 130.968 240.36 130.968C240.36 130.968 245.034 126.3 245.16 127.302C245.286 128.304 242.94 131.862 241.824 133.194C240.708 134.526 237.264 134.862 236.49 134.862C235.113 134.903 233.739 135.016 232.374 135.198C231.93 135.306 224.574 145.314 221.256 150.198C217.938 155.082 216.456 155.976 214.362 156.09C212.268 156.204 210.024 154.53 209.466 153.756C208.908 152.982 209.802 152.1 209.802 152.1Z" fill="white" stroke="#263238" stroke-miterlimit="10"/>
<path d="M140.262 133.692L147.27 148.896C147.378 149.113 147.553 149.288 147.77 149.396C147.986 149.505 148.232 149.54 148.47 149.496L154.284 148.422C154.445 148.391 154.598 148.324 154.73 148.227C154.863 148.13 154.972 148.004 155.05 147.859C155.128 147.715 155.173 147.554 155.182 147.39C155.19 147.226 155.162 147.062 155.1 146.91L148.8 132.072C148.709 131.853 148.549 131.669 148.344 131.549C148.14 131.429 147.902 131.379 147.666 131.406L141.132 132.132C140.959 132.153 140.793 132.214 140.649 132.311C140.504 132.408 140.384 132.538 140.299 132.69C140.215 132.843 140.167 133.013 140.16 133.187C140.154 133.361 140.189 133.534 140.262 133.692Z" fill="#263238" stroke="#263238" stroke-miterlimit="10"/>
<path d="M144.864 146.706C144.864 146.706 142.35 142.854 142.35 141.99C142.35 141.126 143.814 139.08 144.672 137.232C145.53 135.384 145.662 134.148 146.4 134.4C147.138 134.652 147 135.384 146.766 136.614C146.315 138.2 145.782 139.763 145.17 141.294L145.416 142.776C146.01 141.577 146.754 140.458 147.63 139.446C148.74 138.342 149.97 136.494 150.834 136.86C151.698 137.226 152.064 137.46 151.326 138.342C150.4 139.452 149.569 140.638 148.842 141.888C148.191 142.955 147.631 144.075 147.168 145.236C147.992 144.446 148.868 143.713 149.79 143.04C150.99 142.176 152.682 140.928 153.39 141.42C154.098 141.912 154.254 142.404 153.516 143.022C152.778 143.64 152.106 144.06 151.116 144.924C150.083 145.955 149.114 147.047 148.212 148.194C149.092 147.515 150.071 146.976 151.116 146.598C153.21 145.74 155.124 145.836 155.202 146.496C155.28 147.156 153 147.756 153 147.756C151.368 148.128 151.29 148.686 151.29 148.686C151.29 148.686 152.646 151.398 152.4 152.286C152.4 152.286 157.872 151.428 159.966 150.816C162.06 150.204 165.33 151.416 166.32 152.406C168.414 154.5 169.398 157.704 168.294 160.416C167.19 163.128 167.184 162.264 158.436 159.816C149.688 157.368 149.856 156.492 147.72 152.916C146.946 151.524 144.864 146.706 144.864 146.706Z" fill="white" stroke="#263238" stroke-miterlimit="10"/>
<path d="M152.436 152.262L152.25 154.518" stroke="#263238" stroke-miterlimit="10"/>
</svg>
