<svg width="274" height="229" viewBox="0 0 274 229" fill="none" xmlns="http://www.w3.org/2000/svg">
<g clip-path="url(#clip0_586_1327)">
<path d="M12.7318 217.958C16.5325 225.006 24.5988 228.032 24.5988 228.032C24.5988 228.032 26.5031 219.63 22.7025 212.582C18.9018 205.533 10.8355 202.507 10.8355 202.507C10.8355 202.507 8.93118 210.909 12.7318 217.958Z" fill="#2F2E41"/>
<path d="M15.3442 215.639C22.2059 219.767 24.8486 227.967 24.8486 227.967C24.8486 227.967 16.3662 229.474 9.50442 225.345C2.64268 221.217 0 213.017 0 213.017C0 213.017 8.48241 211.511 15.3442 215.639Z" fill="#6C63FF"/>
<path d="M169.185 10.9807H126.373V11.5923H169.185V10.9807Z" fill="#F2F2F2"/>
<path d="M157.565 11.4395H156.953V17.0968H157.565V11.4395Z" fill="#F2F2F2"/>
<path d="M138.911 11.4395H138.299V17.0968H138.911V11.4395Z" fill="#F2F2F2"/>
<path d="M190.897 40.3379H148.085V40.9495H190.897V40.3379Z" fill="#F2F2F2"/>
<path d="M160.317 34.8335H159.706V40.4909H160.317V34.8335Z" fill="#F2F2F2"/>
<path d="M178.971 34.8335H178.359V40.4909H178.971V34.8335Z" fill="#F2F2F2"/>
<path d="M247.777 54.0991H204.964V54.7107H247.777V54.0991Z" fill="#F2F2F2"/>
<path d="M217.197 48.5946H216.585V54.252H217.197V48.5946Z" fill="#F2F2F2"/>
<path d="M235.851 48.5946H235.239V54.252H235.851V48.5946Z" fill="#F2F2F2"/>
<path d="M243.496 195.992H200.683V196.604H243.496V195.992Z" fill="#F2F2F2"/>
<path d="M212.915 190.487H212.304V196.145H212.915V190.487Z" fill="#F2F2F2"/>
<path d="M231.569 190.487H230.958V196.145H231.569V190.487Z" fill="#F2F2F2"/>
<path d="M170.409 97.829H127.596V98.4406H170.409V97.829Z" fill="#F2F2F2"/>
<path d="M139.828 92.3245H139.217V97.9818H139.828V92.3245Z" fill="#F2F2F2"/>
<path d="M158.482 92.3245H157.871V97.9818H158.482V92.3245Z" fill="#F2F2F2"/>
<path d="M183.864 171.528H141.052V172.139H183.864V171.528Z" fill="#F2F2F2"/>
<path d="M153.283 166.023H152.672V171.681H153.283V166.023Z" fill="#F2F2F2"/>
<path d="M171.938 166.023H171.326V171.681H171.938V166.023Z" fill="#F2F2F2"/>
<path d="M252.364 149.204H209.552V149.816H252.364V149.204Z" fill="#F2F2F2"/>
<path d="M221.783 143.699H221.172V149.357H221.783V143.699Z" fill="#F2F2F2"/>
<path d="M240.438 143.699H239.826V149.357H240.438V143.699Z" fill="#F2F2F2"/>
<path d="M110.719 214.73H38.3093V214.21H110.198V188.944H44.3966L41.2001 182.285L41.6698 182.059L44.7245 188.423H110.719V214.73Z" fill="#2F2E41"/>
<path d="M47.9466 227.493C50.9675 227.493 53.4165 225.044 53.4165 222.024C53.4165 219.003 50.9675 216.554 47.9466 216.554C44.9257 216.554 42.4768 219.003 42.4768 222.024C42.4768 225.044 44.9257 227.493 47.9466 227.493Z" fill="#3F3D56"/>
<path d="M101.863 227.493C104.884 227.493 107.333 225.044 107.333 222.024C107.333 219.003 104.884 216.554 101.863 216.554C98.8425 216.554 96.3936 219.003 96.3936 222.024C96.3936 225.044 98.8425 227.493 101.863 227.493Z" fill="#3F3D56"/>
<path d="M165.417 109.241C167.287 109.241 168.803 107.725 168.803 105.855C168.803 103.985 167.287 102.469 165.417 102.469C163.547 102.469 162.031 103.985 162.031 105.855C162.031 107.725 163.547 109.241 165.417 109.241Z" fill="#3F3D56"/>
<path d="M118.464 180.349H37.0746L19.4639 122.785H136.6L136.494 123.124L118.464 180.349ZM37.4599 179.828H118.082L135.89 123.306H20.1679L37.4599 179.828Z" fill="#2F2E41"/>
<path d="M112.111 177.353H40.6237L25.1555 126.302H128.04L127.947 126.602L112.111 177.353Z" fill="#F2F2F2"/>
<path d="M138.06 117.643L137.556 117.509L140.993 104.552H160.99V105.074H141.394L138.06 117.643Z" fill="#2F2E41"/>
<path d="M130.747 140.237H25.1548V140.758H130.747V140.237Z" fill="#2F2E41"/>
<path d="M124.7 159.429H31.0264V159.95H124.7V159.429Z" fill="#2F2E41"/>
<path d="M78.291 123.046H77.77V180.088H78.291V123.046Z" fill="#2F2E41"/>
<path d="M101.614 123.029L97.8748 180.07L98.3947 180.105L102.134 123.063L101.614 123.029Z" fill="#2F2E41"/>
<path d="M54.4577 123.029L53.9377 123.063L57.6555 180.105L58.1754 180.071L54.4577 123.029Z" fill="#2F2E41"/>
<path d="M274 227.824H0V228.435H274V227.824Z" fill="#2F2E41"/>
<path d="M182.079 18.9219C182.079 18.9219 186.549 31.6452 183.798 33.6026C181.047 35.5601 193.083 51.5458 193.083 51.5458L207.525 47.6309L199.616 34.2551C199.616 34.2551 198.585 20.8793 198.585 18.9219C198.585 16.9644 182.079 18.9219 182.079 18.9219Z" fill="#A0616A"/>
<path opacity="0.1" d="M182.079 18.9219C182.079 18.9219 186.549 31.6452 183.798 33.6026C181.047 35.5601 193.083 51.5458 193.083 51.5458L207.525 47.6309L199.616 34.2551C199.616 34.2551 198.585 20.8793 198.585 18.9219C198.585 16.9644 182.079 18.9219 182.079 18.9219Z" fill="black"/>
<path d="M174.575 109.617C174.575 109.617 173.27 125.929 174.575 134.411C175.88 142.893 177.837 166.382 177.837 166.382C177.837 166.382 177.838 210.751 185.015 211.403C192.192 212.056 197.412 212.708 198.064 210.098C198.717 207.488 194.802 206.184 196.759 204.879C198.717 203.574 199.369 199.006 196.759 193.786C194.149 188.567 196.759 135.716 196.759 135.716L209.156 168.992C209.156 168.992 210.461 196.396 211.766 200.311C213.071 204.226 210.461 211.403 215.029 212.056C219.596 212.708 224.816 208.793 227.426 207.488C230.036 206.184 223.511 206.184 224.816 205.531C226.121 204.879 230.036 202.921 228.731 202.269C227.426 201.616 226.121 170.297 226.121 170.297C226.121 170.297 222.532 103.418 217.965 100.808C213.398 98.1982 210.461 102.694 210.461 102.694L174.575 109.617Z" fill="#2F2E41"/>
<path d="M186.32 208.793V214.013C186.32 214.013 180.448 228.202 186.32 228.202C192.192 228.202 196.76 229.673 196.76 227.715V210.098L186.32 208.793Z" fill="#2F2E41"/>
<path d="M224.816 208.784V214.004C224.816 214.004 230.688 228.193 224.816 228.193C218.944 228.193 214.376 229.664 214.376 227.706V210.089L224.816 208.784Z" fill="#2F2E41"/>
<path d="M191.213 28.3829C197.7 28.3829 202.958 23.1247 202.958 16.6383C202.958 10.1519 197.7 4.89368 191.213 4.89368C184.727 4.89368 179.469 10.1519 179.469 16.6383C179.469 23.1247 184.727 28.3829 191.213 28.3829Z" fill="#A0616A"/>
<path d="M187.625 38.4963C187.625 38.4963 190.887 48.2835 196.107 46.3261L201.327 44.3686L210.462 107.007C210.462 107.007 203.284 117.446 192.845 110.922C182.405 104.397 187.625 38.4963 187.625 38.4963Z" fill="#6C63FF"/>
<path d="M196.76 36.5389L199.696 30.3403C199.696 30.3403 216.986 38.4963 219.596 41.1062C222.206 43.7162 222.206 47.631 222.206 47.631L217.639 63.943C217.639 63.943 218.944 99.8294 218.944 101.134C218.944 102.439 223.511 109.617 220.249 107.007C216.986 104.397 216.334 101.787 213.724 105.702C211.114 109.617 205.242 114.184 205.242 114.184L196.76 36.5389Z" fill="#3F3D56"/>
<path d="M219.596 83.5175L217.639 101.787C217.639 101.787 205.894 112.227 208.504 112.879C211.114 113.532 212.419 110.922 212.419 110.922C212.419 110.922 216.986 115.489 219.596 112.879C222.206 110.269 228.731 85.4749 228.731 85.4749L219.596 83.5175Z" fill="#A0616A"/>
<path d="M191.464 0.039715C188.86 -0.0533624 186.074 -0.0994045 183.878 1.30367C182.868 2.00781 181.982 2.87502 181.257 3.86983C179.119 6.57266 177.272 9.97344 178.066 13.3269L178.988 12.9672C178.988 13.8623 178.789 14.7463 178.406 15.5551C178.535 15.1774 178.97 15.7879 178.854 16.17L177.838 19.5035C179.508 18.8911 181.586 20.1309 181.84 21.8917C181.956 18.0198 182.358 13.58 185.499 11.3129C187.083 10.1696 189.087 9.82061 191.016 9.51067C192.795 9.22475 194.661 8.9521 196.365 9.53785C198.069 10.1236 199.52 11.8665 199.134 13.6267C199.92 13.356 200.799 13.9037 201.187 14.6385C201.575 15.3733 201.596 16.2401 201.607 17.0712C202.445 17.6632 203.398 16.4876 203.74 15.5204C204.541 13.25 205.253 10.8332 204.822 8.46461C204.39 6.09597 202.46 3.83238 200.052 3.82434C200.344 3.50335 200.5 3.08127 200.487 2.64739L198.502 2.47971C199.006 2.40838 199.47 2.16411 199.813 1.78874C199.016 2.66545 192.752 0.0857721 191.464 0.039715Z" fill="#2F2E41"/>
<path d="M190.887 34.5814C190.887 34.5814 185.576 29.3764 183.664 29.6952C181.753 30.0141 179.143 34.5814 179.143 34.5814C179.143 34.5814 163.483 39.8013 164.136 45.0211C164.788 50.2409 171.965 75.6876 171.965 75.6876C171.965 75.6876 177.838 106.354 172.618 109.617C167.398 112.879 197.412 121.361 198.064 117.446C198.717 113.531 200.022 74.3827 198.064 68.5103C196.107 62.638 190.887 34.5814 190.887 34.5814Z" fill="#3F3D56"/>
<path d="M213.724 45.0211H221.792C221.792 45.0211 227.426 69.8153 228.079 72.4253C228.731 75.0352 230.036 87.4323 229.384 87.4323C228.731 87.4323 215.682 84.8224 215.682 86.7798L213.724 45.0211Z" fill="#3F3D56"/>
<path d="M213.451 106.42H182.565C179.551 92.5546 179.299 79.1585 182.565 66.3595H213.451C208.466 78.9282 208.155 92.2326 213.451 106.42Z" fill="#F2F2F2"/>
<path d="M170.008 89.3897L179.143 93.3046C179.143 93.3046 196.759 95.9145 196.759 88.7372C196.759 81.56 179.143 85.4748 179.143 85.4748L173.27 83.5972L170.008 89.3897Z" fill="#A0616A"/>
<path d="M171.965 41.1062L164.136 43.0637L158.263 77.645C158.263 77.645 156.306 86.7797 159.568 87.4322C162.831 88.0847 171.965 93.3046 171.965 93.3046C171.965 93.3046 173.27 83.5174 175.88 83.5174L169.355 78.2975L173.27 55.4608L171.965 41.1062Z" fill="#3F3D56"/>
<path d="M61.2368 107.92H18.4243V108.532H61.2368V107.92Z" fill="#F2F2F2"/>
<path d="M30.6563 102.416H30.0447V108.073H30.6563V102.416Z" fill="#F2F2F2"/>
<path d="M49.3103 102.416H48.6987V108.073H49.3103V102.416Z" fill="#F2F2F2"/>
<path d="M76.2212 17.4026H33.4087V18.0142H76.2212V17.4026Z" fill="#F2F2F2"/>
<path d="M64.6006 17.8613H63.989V23.5187H64.6006V17.8613Z" fill="#F2F2F2"/>
<path d="M45.9466 17.8613H45.335V23.5187H45.9466V17.8613Z" fill="#F2F2F2"/>
<path d="M119.339 77.646H76.5269V78.2576H119.339V77.646Z" fill="#F2F2F2"/>
<path d="M107.719 78.1046H107.107V83.762H107.719V78.1046Z" fill="#F2F2F2"/>
<path d="M89.0647 78.1046H88.4531V83.762H89.0647V78.1046Z" fill="#F2F2F2"/>
<path d="M46.5583 77.3402H3.74585V77.9518H46.5583V77.3402Z" fill="#F2F2F2"/>
<path d="M34.9375 77.7988H34.3259V83.4562H34.9375V77.7988Z" fill="#F2F2F2"/>
<path d="M16.2835 77.7988H15.6719V83.4562H16.2835V77.7988Z" fill="#F2F2F2"/>
<path d="M97.9331 46.7598H55.1206V47.3714H97.9331V46.7598Z" fill="#F2F2F2"/>
<path d="M67.3528 41.2554H66.7412V46.9127H67.3528V41.2554Z" fill="#F2F2F2"/>
<path d="M86.0069 41.2554H85.3953V46.9127H86.0069V41.2554Z" fill="#F2F2F2"/>
</g>
<defs>
<clipPath id="clip0_586_1327">
<rect width="274" height="228.732" fill="white"/>
</clipPath>
</defs>
</svg>
