<svg width="280" height="273" viewBox="0 0 280 273" fill="none" xmlns="http://www.w3.org/2000/svg">
<g clip-path="url(#clip0_209_2118)">
<path d="M178.588 61.0922H163.69V187.963C163.69 189.954 163.298 191.925 162.535 193.764C161.772 195.603 160.655 197.274 159.245 198.681C157.836 200.089 156.163 201.205 154.322 201.967C152.481 202.729 150.508 203.121 148.515 203.121H34.6127V203.266C34.6127 205.257 35.0052 207.228 35.7678 209.067C36.5304 210.906 37.6482 212.577 39.0573 213.984C40.4665 215.392 42.1394 216.508 43.9805 217.27C45.8217 218.032 47.795 218.424 49.7878 218.424H178.588C180.581 218.424 182.554 218.032 184.396 217.27C186.237 216.508 187.91 215.392 189.319 213.984C190.728 212.577 191.846 210.906 192.608 209.067C193.371 207.228 193.763 205.257 193.763 203.266V76.2501C193.763 72.2299 192.165 68.3745 189.319 65.5318C186.473 62.6892 182.613 61.0922 178.588 61.0922Z" fill="#F2F2F2"/>
<path d="M249.212 262.709C249.476 262.722 249.737 262.652 249.96 262.511C250.183 262.37 250.358 262.164 250.46 261.921C250.561 261.677 250.586 261.409 250.53 261.151C250.474 260.893 250.339 260.659 250.146 260.48L250.057 260.13C250.069 260.102 250.081 260.074 250.092 260.046C250.358 259.419 250.803 258.884 251.372 258.509C251.941 258.134 252.608 257.936 253.29 257.938C253.971 257.941 254.637 258.144 255.203 258.524C255.769 258.903 256.21 259.44 256.471 260.069C257.514 262.579 258.843 265.093 259.17 267.747C259.314 268.92 259.253 270.109 258.99 271.261C261.44 265.922 262.713 260.119 262.721 254.246C262.721 252.772 262.639 251.299 262.475 249.835C262.34 248.634 262.152 247.442 261.911 246.258C260.598 239.836 257.778 233.816 253.683 228.694C251.701 227.614 250.099 225.953 249.091 223.935C248.726 223.21 248.468 222.435 248.325 221.636C248.549 221.665 249.168 218.265 249 218.056C249.311 217.584 249.869 217.349 250.209 216.888C251.901 214.596 254.233 214.997 255.45 218.111C258.05 219.422 258.075 221.595 256.48 223.686C255.465 225.016 255.325 226.816 254.435 228.24C254.526 228.357 254.621 228.471 254.713 228.588C256.388 230.739 257.848 233.049 259.071 235.485C258.774 232.756 259.129 229.996 260.108 227.431C261.1 225.041 262.959 223.028 264.596 220.961C265.029 220.406 265.618 219.992 266.286 219.771C266.955 219.549 267.675 219.531 268.354 219.718C269.033 219.905 269.641 220.289 270.102 220.821C270.563 221.354 270.855 222.011 270.942 222.709C270.946 222.739 270.949 222.77 270.952 222.8C270.709 222.937 270.471 223.083 270.238 223.237C269.945 223.432 269.719 223.711 269.588 224.037C269.456 224.363 269.427 224.722 269.503 225.065C269.579 225.408 269.757 225.72 270.014 225.96C270.271 226.201 270.594 226.358 270.942 226.412L270.978 226.417C270.891 227.293 270.738 228.16 270.52 229.013C272.62 237.126 268.085 240.082 261.61 240.214C261.467 240.288 261.328 240.361 261.185 240.43C262.415 243.911 263.186 247.536 263.479 251.215C263.646 253.385 263.636 255.566 263.45 257.735L263.461 257.658C263.93 255.246 265.218 253.07 267.108 251.497C269.914 249.194 273.879 248.346 276.906 246.495C277.228 246.289 277.602 246.179 277.984 246.178C278.367 246.177 278.741 246.285 279.064 246.49C279.387 246.695 279.644 246.988 279.806 247.334C279.968 247.68 280.027 248.065 279.977 248.443L279.964 248.524C279.513 248.708 279.073 248.919 278.648 249.158C278.405 249.295 278.167 249.44 277.934 249.594C277.642 249.789 277.415 250.068 277.284 250.394C277.153 250.721 277.123 251.079 277.199 251.422C277.275 251.765 277.454 252.077 277.71 252.318C277.967 252.558 278.291 252.715 278.639 252.769L278.674 252.774C278.7 252.778 278.722 252.782 278.747 252.785C277.976 254.624 276.894 256.317 275.548 257.79C274.235 264.873 268.594 265.545 262.56 263.482H262.556C261.894 266.356 260.935 269.153 259.694 271.828H249.469C249.432 271.715 249.399 271.598 249.366 271.484C250.312 271.544 251.263 271.487 252.195 271.316C251.437 270.386 250.678 269.449 249.919 268.519C249.902 268.502 249.887 268.483 249.872 268.464C249.487 267.988 249.098 267.516 248.714 267.04L248.713 267.04C248.693 265.581 248.861 264.126 249.212 262.71L249.212 262.709Z" fill="#F2F2F2"/>
<path d="M136.592 43.8342C136.965 44.3991 137.457 44.8763 138.033 45.2328C138.609 45.5893 139.256 45.8165 139.929 45.8987C140.601 45.981 141.284 45.9163 141.929 45.7091C142.574 45.502 143.167 45.1573 143.665 44.699L164.924 54.279L169.022 49.0572L143.69 37.8632C142.855 37.082 141.763 36.634 140.619 36.6038C139.476 36.5736 138.361 36.9635 137.486 37.6995C136.611 38.4355 136.037 39.4665 135.872 40.5972C135.707 41.7279 135.963 42.8796 136.592 43.8342H136.592Z" fill="#FFCBA5"/>
<path d="M227.824 49.8079L229.932 61.7421C230.031 62.2989 230.011 62.87 229.876 63.4189C229.74 63.9678 229.491 64.4823 229.144 64.9293C228.798 65.3764 228.362 65.7461 227.864 66.0148C227.366 66.2835 226.817 66.4451 226.253 66.4895L190.426 69.3036L148.314 50.4778L153.344 40.9406L189.901 52.504L227.824 49.8079Z" fill="#1A1F71"/>
<path d="M143.976 41.255H15.1751C6.79414 41.255 0 48.0414 0 56.4129V183.429C0 191.8 6.79414 198.587 15.1751 198.587H143.976C152.357 198.587 159.151 191.8 159.151 183.429V56.4129C159.151 48.0414 152.357 41.255 143.976 41.255Z" fill="#F2F2F2"/>
<path d="M15.1752 44.3722C13.5922 44.3722 12.0247 44.6836 10.5622 45.2887C9.0997 45.8938 7.77084 46.7807 6.65149 47.8988C5.53214 49.0169 4.64421 50.3443 4.03842 51.8051C3.43263 53.2659 3.12085 54.8317 3.12085 56.4129V183.429C3.12085 186.622 4.39086 189.685 6.65149 191.943C8.91212 194.201 11.9782 195.47 15.1752 195.47H97.3788C105.081 195.47 112.708 193.954 119.824 191.01C126.939 188.066 133.405 183.751 138.851 178.311C144.298 172.87 148.618 166.412 151.565 159.304C154.513 152.197 156.03 144.578 156.03 136.885V56.4129C156.03 54.8317 155.718 53.2659 155.112 51.8051C154.507 50.3443 153.619 49.0169 152.499 47.8988C151.38 46.7807 150.051 45.8938 148.589 45.2887C147.126 44.6836 145.559 44.3722 143.976 44.3722H15.1752Z" fill="white"/>
<path d="M115.581 82.9193H43.2881C42.6247 82.9193 41.9885 82.6561 41.5194 82.1876C41.0504 81.719 40.7869 81.0836 40.7869 80.421C40.7869 79.7584 41.0504 79.1229 41.5194 78.6544C41.9885 78.1858 42.6247 77.9226 43.2881 77.9226H115.581C116.244 77.9226 116.881 78.1858 117.35 78.6544C117.819 79.1229 118.082 79.7584 118.082 80.421C118.082 81.0836 117.819 81.719 117.35 82.1876C116.881 82.6561 116.244 82.9193 115.581 82.9193Z" fill="#F2F2F2"/>
<path d="M115.581 136.196H43.2881C42.6247 136.196 41.9885 135.933 41.5194 135.465C41.0504 134.996 40.7869 134.361 40.7869 133.698C40.7869 133.035 41.0504 132.4 41.5194 131.931C41.9885 131.463 42.6247 131.2 43.2881 131.2H115.581C116.244 131.2 116.881 131.463 117.35 131.931C117.819 132.4 118.082 133.035 118.082 133.698C118.082 134.361 117.819 134.996 117.35 135.465C116.881 135.933 116.244 136.196 115.581 136.196Z" fill="#F2F2F2"/>
<path d="M144.938 109.575H13.9314C13.268 109.575 12.6318 109.312 12.1628 108.844C11.6937 108.375 11.4302 107.74 11.4302 107.077C11.4302 106.414 11.6937 105.779 12.1628 105.31C12.6318 104.842 13.268 104.579 13.9314 104.579H144.938C145.601 104.579 146.237 104.842 146.706 105.31C147.175 105.779 147.439 106.414 147.439 107.077C147.439 107.74 147.175 108.375 146.706 108.844C146.237 109.312 145.601 109.575 144.938 109.575Z" fill="#F2F2F2"/>
<path d="M223.298 102.409L210.247 130.181L260.451 125.102L249.971 98.4417L223.298 102.409Z" fill="#FFCBA5"/>
<path d="M234.969 262.032L230.209 261.992L228.103 243.225L235.127 243.285L234.969 262.032Z" fill="#FFCBA5"/>
<path d="M219.723 269.592C219.718 270.156 219.938 270.698 220.334 271.1C220.729 271.502 221.268 271.731 221.833 271.737L231.296 271.815L232.953 268.461L233.562 271.833L237.133 271.865L236.231 259.84L234.988 259.757L229.921 259.408L228.286 259.299L228.258 262.701L220.655 267.852C220.37 268.045 220.137 268.304 219.974 268.607C219.812 268.91 219.726 269.248 219.723 269.592Z" fill="#2F2E41"/>
<path d="M182.293 262.054L177.755 260.618L181.261 242.062L187.959 244.18L182.293 262.054Z" fill="#FFCBA5"/>
<path d="M165.495 264.806C165.326 265.343 165.376 265.926 165.636 266.426C165.896 266.927 166.344 267.303 166.881 267.474L175.904 270.327L178.475 267.607L178.065 271.008L181.468 272.087L184.144 260.328L182.98 259.885L178.239 258.064L176.709 257.48L175.68 260.724L166.899 263.416C166.57 263.517 166.27 263.696 166.026 263.938C165.781 264.18 165.599 264.478 165.495 264.806Z" fill="#2F2E41"/>
<path d="M258.164 117.292L212.517 125.647C212.517 125.647 205.195 131.117 207.154 133.077C209.112 135.036 209.416 134.732 208.129 136.018C206.843 137.303 204.06 139.021 204.033 140.146C204.006 141.27 183.578 191.713 183.578 191.713C183.578 191.713 185.848 190.58 184.146 192.28C182.444 193.98 182.444 195.385 182.444 195.385L174.5 248.958L187.401 249.716L200.034 200.876L228.211 155.248C228.211 155.248 231.007 195.936 231.124 198.642C231.242 201.349 232.944 197.948 231.242 201.349C229.539 204.749 228.405 202.482 229.539 204.749C230.674 207.016 225.451 253.172 225.451 253.172H237.227L262.483 157.505C262.483 157.505 271.469 130.155 258.164 117.292Z" fill="#2F2E41"/>
<path d="M244.717 40.7708L226.432 38.873L221.695 45.0165L216.176 47.9525C213.84 49.195 211.912 51.0831 210.623 53.3911C209.333 55.6991 208.737 58.3293 208.904 60.967L215.354 98.4417C215.354 98.4417 209.906 110.695 213.652 113.745C217.397 116.794 210.756 124.347 218.758 120.546C226.761 116.745 261.315 121.113 261.315 121.113L253.938 100.142L259.449 79.5355L260.055 62.2571C260.169 59.0284 259.21 55.8529 257.327 53.2257C255.445 50.5984 252.745 48.667 249.649 47.7324L248.879 47.4999L244.717 40.7708Z" fill="#1A1F71"/>
<path d="M269.89 26.769C270.01 31.917 268.084 36.9018 265.317 41.2801C264.495 38.7241 263.017 36.3978 261.475 34.1802C262.252 38.9775 261.425 43.8969 259.121 48.177C259.039 48.2351 258.955 48.289 258.869 48.3385C256.613 49.6937 253.754 50.2426 251.314 49.2638C256.355 43.836 256.997 34.8428 252.77 28.7546C251.573 27.0271 250.026 25.4992 249.285 23.5332C248.115 20.3964 249.24 16.9427 249.949 13.6722C250.613 10.6284 250.729 7.00619 248.684 4.77545C248.903 4.46371 249.2 4.21556 249.546 4.05644C249.892 3.89731 250.274 3.83293 250.653 3.86989C251.914 4.04774 252.831 5.14211 253.416 6.26924C254 7.39633 254.386 8.64554 255.2 9.61908C256.708 11.4413 259.276 11.8721 261.441 12.8324C266.682 15.1645 269.765 21.0406 269.89 26.769Z" fill="#2F2E41"/>
<path d="M134.848 271.859C134.848 271.948 134.865 272.035 134.899 272.117C134.933 272.199 134.982 272.274 135.045 272.336C135.108 272.399 135.183 272.449 135.265 272.483C135.347 272.516 135.435 272.534 135.523 272.533H279.245C279.424 272.533 279.596 272.462 279.723 272.336C279.849 272.209 279.92 272.038 279.92 271.859C279.92 271.68 279.849 271.508 279.723 271.382C279.596 271.255 279.424 271.184 279.245 271.184H135.523C135.435 271.184 135.347 271.201 135.265 271.235C135.183 271.269 135.108 271.319 135.045 271.381C134.982 271.444 134.933 271.519 134.899 271.6C134.865 271.682 134.848 271.77 134.848 271.859Z" fill="#CCCCCC"/>
<path d="M271.022 146.085C273.842 146.085 276.129 143.801 276.129 140.984C276.129 138.167 273.842 135.883 271.022 135.883C268.201 135.883 265.915 138.167 265.915 140.984C265.915 143.801 268.201 146.085 271.022 146.085Z" fill="#1A1F71"/>
<path d="M225.769 23.8254C226.068 22.7783 224.004 29.1794 225 29.295C229.537 29.8149 235.766 32.5217 238.926 33.7845C239.069 33.768 239.211 33.7515 239.349 33.7309C239.688 33.6937 240.019 33.6401 240.345 33.5782C247.704 32.1875 250.534 20.8965 250.534 20.7933C250.534 20.2857 249.314 6.34451 247.393 6.13821C246.888 6.08351 246.381 6.05596 245.874 6.05567H241.106C240.119 5.84332 239.119 5.69854 238.113 5.62236H238.105C228.507 4.89192 220.939 10.7354 221.646 17.8458C221.65 17.854 221.659 17.8623 221.663 17.8706C221.868 18.1759 222.048 18.4648 222.207 18.7413C222.362 19.0013 222.492 19.2489 222.605 19.4841C223.479 21.2999 221.231 23.5847 222.722 24.0112C224.705 24.5784 217.506 43.2212 225.356 43.2212C221.537 44.3056 224.942 26.7142 225.769 23.8254Z" fill="#2F2E41"/>
<path d="M234.337 34.7644C240.571 34.7644 245.625 29.7163 245.625 23.4892C245.625 17.2621 240.571 12.214 234.337 12.214C228.103 12.214 223.049 17.2621 223.049 23.4892C223.049 29.7163 228.103 34.7644 234.337 34.7644Z" fill="#FFCBA5"/>
<path d="M221.646 18.4607C221.835 18.5597 222.019 18.6505 222.207 18.7413C222.404 18.8362 222.601 18.9311 222.797 19.0178C226.577 20.7304 229.654 20.9202 231.52 18.4607C231.57 17.1665 231.861 15.893 232.379 14.7053C232.287 16.0326 232.637 17.3528 233.375 18.4607H237.134C241.006 21.0275 242.994 21.2957 240.306 29.7226C239.557 32.0707 236.578 45.7344 237.75 47.7607C238.089 47.7235 241.696 32.7575 242.023 32.6956C249.381 31.3049 254.057 19.1952 253.458 18.5102C253.461 16.5621 253.013 14.6398 252.148 12.8937C251.054 10.6814 249.349 8.82839 247.234 7.55366C245.973 6.94308 244.659 6.4499 243.308 6.0804C243.274 6.07214 243.245 6.06388 243.211 6.05564C242.797 5.94421 242.374 5.84105 241.951 5.75438C241.078 5.57017 240.195 5.43652 239.306 5.35409C239.243 5.34996 239.181 5.34583 239.122 5.34583C238.767 5.34666 238.419 5.44211 238.113 5.62234C238.109 5.62234 238.109 5.62645 238.105 5.62645C237.886 5.75392 237.696 5.92368 237.544 6.12577C237.277 6.46581 237.132 6.88606 237.134 7.31841H232.948C232.793 7.31841 232.638 7.32253 232.483 7.33078C229.69 7.42614 227.032 8.5594 225.031 10.5088C223.029 12.4581 221.829 15.0833 221.663 17.8706C221.65 18.0686 221.646 18.2626 221.646 18.4607Z" fill="#2F2E41"/>
<path d="M246.327 14.8563C250.434 14.8563 253.763 11.5306 253.763 7.42816C253.763 3.3257 250.434 0 246.327 0C242.22 0 238.89 3.3257 238.89 7.42816C238.89 11.5306 242.22 14.8563 246.327 14.8563Z" fill="#2F2E41"/>
<path d="M271.079 143.088C271.442 142.516 271.676 141.872 271.766 141.201C271.855 140.53 271.798 139.848 271.597 139.201C271.397 138.555 271.058 137.96 270.604 137.457C270.151 136.954 269.593 136.555 268.97 136.289L269.007 112.993L262.559 111.399L262.718 139.067C262.346 140.148 262.385 141.327 262.826 142.382C263.267 143.436 264.08 144.292 265.111 144.787C266.141 145.283 267.318 145.384 268.418 145.07C269.518 144.757 270.465 144.052 271.079 143.088V143.088Z" fill="#FFCBA5"/>
<path d="M239.147 57.5148L249.181 50.703C249.65 50.3853 250.179 50.1688 250.736 50.0675C251.293 49.9662 251.865 49.9823 252.415 50.1148C252.965 50.2473 253.482 50.4933 253.931 50.8369C254.38 51.1806 254.753 51.6143 255.025 52.1103L272.276 83.5996L272.342 129.684L261.572 129.01L257.15 90.9627L239.147 57.5148Z" fill="#1A1F71"/>
<path d="M162.081 162.029H54.8387C52.5061 162.029 50.2691 162.954 48.6197 164.602C46.9703 166.249 46.0437 168.484 46.0437 170.814C46.0437 173.144 46.9703 175.378 48.6197 177.026C50.2691 178.673 52.5061 179.599 54.8387 179.599H162.081C164.414 179.599 166.651 178.673 168.3 177.026C169.95 175.378 170.876 173.144 170.876 170.814C170.876 168.484 169.95 166.249 168.3 164.602C166.651 162.954 164.414 162.029 162.081 162.029Z" fill="white"/>
<path d="M162.081 180.165H54.8386C52.3556 180.165 49.9742 179.18 48.2184 177.426C46.4626 175.673 45.4762 173.294 45.4762 170.814C45.4762 168.333 46.4626 165.955 48.2184 164.201C49.9742 162.447 52.3556 161.462 54.8386 161.462H162.081C164.564 161.462 166.946 162.447 168.701 164.201C170.457 165.955 171.444 168.333 171.444 170.814C171.444 173.294 170.457 175.673 168.701 177.426C166.946 179.18 164.564 180.165 162.081 180.165ZM54.8386 162.595C52.6565 162.595 50.5638 163.461 49.0208 165.002C47.4779 166.544 46.611 168.634 46.611 170.814C46.611 172.993 47.4779 175.084 49.0208 176.625C50.5638 178.166 52.6565 179.032 54.8386 179.032H162.081C164.263 179.032 166.356 178.166 167.899 176.625C169.442 175.084 170.309 172.993 170.309 170.814C170.309 168.634 169.442 166.544 167.899 165.002C166.356 163.461 164.263 162.595 162.081 162.595H54.8386Z" fill="#1A1F71"/>
<path d="M168.405 200.367H121.078C120.415 200.367 119.779 200.104 119.31 199.635C118.841 199.167 118.577 198.531 118.577 197.868C118.577 197.206 118.841 196.57 119.31 196.102C119.779 195.633 120.415 195.37 121.078 195.37H168.405C169.068 195.37 169.704 195.633 170.173 196.102C170.643 196.57 170.906 197.206 170.906 197.868C170.906 198.531 170.643 199.167 170.173 199.635C169.704 200.104 169.068 200.367 168.405 200.367Z" fill="#1A1F71"/>
</g>
<defs>
<clipPath id="clip0_209_2118">
<rect width="280" height="272.533" fill="white"/>
</clipPath>
</defs>
</svg>
