<svg width="296" height="200" viewBox="0 0 296 200" fill="none" xmlns="http://www.w3.org/2000/svg">
<g clip-path="url(#clip0_209_2676)">
<path opacity="0.1" d="M171.981 35.2716C153.005 34.6532 134.917 28.9088 117.672 22.6251C100.426 16.3415 83.3334 9.37817 64.8016 6.04854C52.8867 3.9046 39.2603 3.60306 29.6619 9.59282C20.4232 15.3551 17.4391 25.3031 15.8339 34.5331C14.6266 41.4785 13.9262 48.7869 17.2265 55.2902C19.5239 59.803 23.6009 63.5977 26.4216 67.9214C36.2325 82.9647 29.2967 101.517 18.6627 116.218C13.6755 123.117 7.88971 129.682 4.04162 137.018C0.193538 144.355 -1.58879 152.759 1.77965 160.241C5.11811 167.652 13.0705 173.228 21.6878 177.145C39.1895 185.095 59.8116 187.369 79.9214 188.672C124.436 191.526 169.19 190.29 213.822 189.053C230.34 188.593 246.932 188.13 263.18 185.731C272.203 184.4 281.521 182.289 288.072 177.193C296.387 170.723 298.45 159.771 292.877 151.658C283.529 138.053 257.685 134.672 251.15 120.071C247.556 112.034 251.248 103.08 256.475 95.6265C267.684 79.6377 286.478 65.6088 287.467 47.3303C288.149 34.7758 279.114 22.2061 265.145 16.2649C250.504 10.0323 230.201 10.8194 219.401 21.12C208.279 31.7324 188.733 35.8159 171.981 35.2716Z" fill="#000C79"/>
<path d="M66.0198 185.273C66.0198 185.273 51.0308 174.648 48.1992 161.133C47.0509 155.457 43.9709 150.282 39.4211 146.386C37.2446 144.553 34.8938 142.911 32.3981 141.48" stroke="#535461" stroke-width="2" stroke-miterlimit="10"/>
<path d="M30.564 132.965C31.8775 134.631 32.4717 141.692 32.4717 141.692C32.4717 141.692 25.4486 139.098 24.1323 137.435C23.5002 136.635 23.2329 135.632 23.389 134.648C23.5451 133.663 24.112 132.777 24.9649 132.185C25.8178 131.592 26.8868 131.341 27.9369 131.488C28.9869 131.634 29.9319 132.166 30.564 132.965Z" fill="#000C79"/>
<path d="M43.1602 138.505C43.2964 140.573 39.7073 146.803 39.7073 146.803C39.7073 146.803 35.3114 141.043 35.1724 138.976C35.1196 137.99 35.483 137.025 36.184 136.289C36.8849 135.553 37.867 135.105 38.9173 135.043C39.9677 134.981 41.0017 135.31 41.7954 135.958C42.589 136.606 43.0784 137.521 43.1575 138.505H43.1602Z" fill="#000C79"/>
<path d="M55.3694 154.43C54.3774 156.28 47.9212 159.96 47.9212 159.96C47.9212 159.96 47.2317 152.907 48.2237 151.057C48.7121 150.187 49.5451 149.532 50.5437 149.232C51.5423 148.932 52.6265 149.012 53.563 149.454C54.4996 149.896 55.2136 150.665 55.5514 151.596C55.8893 152.526 55.8239 153.544 55.3694 154.43Z" fill="#000C79"/>
<path d="M61.7165 168.424C61.0706 170.404 55.372 175.052 55.372 175.052C55.372 175.052 53.418 168.211 54.0639 166.229C54.3743 165.277 55.0752 164.48 56.0123 164.013C56.9493 163.546 58.0459 163.447 59.0607 163.738C60.0755 164.029 60.9254 164.687 61.4234 165.565C61.9215 166.444 62.0269 167.472 61.7165 168.424Z" fill="#000C79"/>
<path d="M33.2102 151.811C35.3904 152.087 42.2826 149.169 42.2826 149.169C42.2826 149.169 36.4669 144.651 34.2758 144.375C33.2241 144.242 32.1594 144.507 31.3159 145.111C30.4723 145.714 29.919 146.607 29.7777 147.593C29.6364 148.58 29.9187 149.578 30.5624 150.369C31.2061 151.16 32.1585 151.679 33.2102 151.811Z" fill="#000C79"/>
<path d="M40.8545 168.091C43.0347 167.741 48.6679 163.026 48.6679 163.026C48.6679 163.026 41.6748 160.348 39.4973 160.699C38.976 160.779 38.4767 160.955 38.0284 161.217C37.5801 161.479 37.1915 161.822 36.8851 162.225C36.5788 162.629 36.3607 163.085 36.2435 163.568C36.1263 164.051 36.1123 164.551 36.2022 165.039C36.2922 165.527 36.4844 165.994 36.7677 166.412C37.051 166.83 37.4198 167.192 37.8529 167.475C38.2859 167.759 38.7746 167.96 39.2907 168.065C39.8068 168.171 40.3402 168.18 40.86 168.091H40.8545Z" fill="#000C79"/>
<path d="M50.5974 182.961C52.8076 182.961 59.212 179.207 59.212 179.207C59.212 179.207 52.8049 175.458 50.5947 175.458C49.5336 175.458 48.516 175.854 47.7658 176.557C47.0155 177.261 46.594 178.215 46.594 179.21C46.594 180.205 47.0155 181.159 47.7658 181.862C48.516 182.566 49.5336 182.961 50.5947 182.961H50.5974Z" fill="#000C79"/>
<path d="M211.631 93.3752C211.631 93.3752 220.87 78.0303 234.796 73.6096C240.644 71.7886 245.704 68.2389 249.218 63.4929C250.866 61.2239 252.288 58.8177 253.467 56.3047" stroke="#535461" stroke-width="2" stroke-miterlimit="10"/>
<path d="M262.209 53.4939C260.623 54.9352 253.24 56.4275 253.24 56.4275C253.24 56.4275 255.053 49.5536 256.639 48.1098C257.404 47.4377 258.421 47.0744 259.469 47.098C260.518 47.1217 261.514 47.5304 262.245 48.2362C262.975 48.942 263.38 49.8885 263.374 50.8719C263.367 51.8552 262.949 52.7968 262.209 53.4939Z" fill="#000C79"/>
<path d="M258.034 65.9206C255.854 66.3243 248.804 63.815 248.804 63.815C248.804 63.815 254.309 58.9598 256.475 58.5637C256.996 58.4555 257.534 58.4457 258.058 58.5351C258.582 58.6245 259.082 58.8112 259.528 59.0843C259.975 59.3573 260.358 59.7112 260.657 60.1252C260.955 60.5391 261.162 61.0048 261.266 61.4949C261.37 61.9849 261.368 62.4895 261.261 62.979C261.154 63.4685 260.944 63.933 260.643 64.3452C260.342 64.7575 259.956 65.1092 259.508 65.3797C259.06 65.6503 258.559 65.8341 258.034 65.9206Z" fill="#000C79"/>
<path d="M242.838 79.3821C240.751 78.7049 236.006 73.1956 236.006 73.1956C236.006 73.1956 243.364 71.6164 245.457 72.2935C245.96 72.4499 246.425 72.6985 246.824 73.0246C247.224 73.3508 247.55 73.7482 247.785 74.1937C248.019 74.6392 248.157 75.1239 248.19 75.6197C248.223 76.1155 248.151 76.6125 247.978 77.082C247.804 77.5514 247.533 77.9838 247.18 78.3542C246.827 78.7245 246.399 79.0254 245.921 79.2394C245.443 79.4534 244.924 79.5762 244.395 79.6007C243.866 79.6252 243.336 79.5509 242.838 79.3821Z" fill="#000C79"/>
<path d="M228.874 87.1403C226.694 86.8029 221.036 82.1139 221.036 82.1139C221.036 82.1139 228.01 79.3899 230.187 79.7272C231.235 79.8888 232.172 80.4342 232.791 81.2434C233.41 82.0525 233.661 83.0592 233.489 84.0419C233.317 85.0246 232.735 85.9028 231.872 86.4834C231.009 87.064 229.935 87.2993 228.887 87.1377L228.874 87.1403Z" fill="#000C79"/>
<path d="M242.647 58.441C242.645 60.5134 246.653 66.5261 246.653 66.5261C246.653 66.5261 250.657 60.521 250.657 58.4512C250.671 57.9505 250.578 57.4523 250.383 56.9859C250.188 56.5195 249.896 56.0944 249.523 55.7356C249.15 55.3769 248.705 55.0917 248.213 54.897C247.721 54.7024 247.192 54.6021 246.658 54.6021C246.123 54.6021 245.595 54.7024 245.102 54.897C244.61 55.0917 244.165 55.3769 243.792 55.7356C243.419 56.0944 243.127 56.5195 242.932 56.9859C242.737 57.4523 242.644 57.9505 242.658 58.4512L242.647 58.441Z" fill="#000C79"/>
<path d="M226.451 67.7067C227.111 69.6846 232.845 74.297 232.845 74.297C232.845 74.297 234.752 67.4435 234.087 65.4657C233.742 64.5493 233.032 63.7942 232.105 63.3593C231.178 62.9244 230.108 62.8437 229.119 63.1341C228.13 63.4246 227.3 64.0635 226.803 64.9164C226.306 65.7694 226.182 66.7697 226.457 67.7067H226.451Z" fill="#000C79"/>
<path d="M212.043 78.7382C212.337 80.7825 217.155 86.2433 217.155 86.2433C217.155 86.2433 220.265 79.791 219.97 77.7391C219.912 77.2419 219.748 76.7607 219.488 76.3238C219.229 75.8869 218.879 75.503 218.458 75.1949C218.038 74.8867 217.557 74.6605 217.042 74.5295C216.527 74.3984 215.989 74.3652 215.461 74.4319C214.932 74.4985 214.423 74.6636 213.963 74.9174C213.504 75.1713 213.103 75.5087 212.784 75.91C212.466 76.3112 212.236 76.7681 212.109 77.2538C211.981 77.7396 211.959 78.2442 212.043 78.7382Z" fill="#000C79"/>
<path opacity="0.25" d="M262.209 53.4939C260.623 54.9352 253.24 56.4275 253.24 56.4275C253.24 56.4275 255.053 49.5536 256.639 48.1098C257.404 47.4377 258.421 47.0744 259.469 47.098C260.518 47.1217 261.514 47.5304 262.245 48.2362C262.975 48.942 263.38 49.8885 263.374 50.8719C263.367 51.8552 262.949 52.7968 262.209 53.4939Z" fill="black"/>
<path opacity="0.25" d="M258.034 65.9206C255.854 66.3243 248.804 63.815 248.804 63.815C248.804 63.815 254.309 58.9598 256.475 58.5637C256.996 58.4555 257.534 58.4457 258.058 58.5351C258.582 58.6245 259.082 58.8112 259.528 59.0843C259.975 59.3573 260.358 59.7112 260.657 60.1252C260.955 60.5391 261.162 61.0048 261.266 61.4949C261.37 61.9849 261.368 62.4895 261.261 62.979C261.154 63.4685 260.944 63.933 260.643 64.3452C260.342 64.7575 259.956 65.1092 259.508 65.3797C259.06 65.6503 258.559 65.8341 258.034 65.9206Z" fill="black"/>
<path opacity="0.25" d="M242.838 79.3821C240.751 78.7049 236.006 73.1956 236.006 73.1956C236.006 73.1956 243.364 71.6164 245.457 72.2935C245.96 72.4499 246.425 72.6985 246.824 73.0246C247.224 73.3508 247.55 73.7482 247.785 74.1937C248.019 74.6392 248.157 75.1239 248.19 75.6197C248.223 76.1155 248.151 76.6125 247.978 77.082C247.804 77.5514 247.533 77.9838 247.18 78.3542C246.827 78.7245 246.399 79.0254 245.921 79.2394C245.443 79.4534 244.924 79.5762 244.395 79.6007C243.866 79.6252 243.336 79.5509 242.838 79.3821Z" fill="black"/>
<path opacity="0.25" d="M228.874 87.1403C226.694 86.8029 221.036 82.1139 221.036 82.1139C221.036 82.1139 228.01 79.3899 230.187 79.7272C231.235 79.8888 232.172 80.4342 232.791 81.2434C233.41 82.0525 233.661 83.0592 233.489 84.0419C233.317 85.0246 232.735 85.9028 231.872 86.4834C231.009 87.064 229.935 87.2993 228.887 87.1377L228.874 87.1403Z" fill="black"/>
<path opacity="0.25" d="M242.647 58.441C242.645 60.5134 246.653 66.5261 246.653 66.5261C246.653 66.5261 250.657 60.521 250.657 58.4512C250.671 57.9505 250.578 57.4523 250.383 56.9859C250.188 56.5195 249.896 56.0944 249.523 55.7356C249.15 55.3769 248.705 55.0917 248.213 54.897C247.721 54.7024 247.192 54.6021 246.658 54.6021C246.123 54.6021 245.595 54.7024 245.102 54.897C244.61 55.0917 244.165 55.3769 243.792 55.7356C243.419 56.0944 243.127 56.5195 242.932 56.9859C242.737 57.4523 242.644 57.9505 242.658 58.4512L242.647 58.441Z" fill="black"/>
<path opacity="0.25" d="M226.451 67.7067C227.111 69.6846 232.845 74.297 232.845 74.297C232.845 74.297 234.752 67.4435 234.087 65.4657C233.742 64.5493 233.032 63.7942 232.105 63.3593C231.178 62.9244 230.108 62.8437 229.119 63.1341C228.13 63.4246 227.3 64.0635 226.803 64.9164C226.306 65.7694 226.182 66.7697 226.457 67.7067H226.451Z" fill="black"/>
<path opacity="0.25" d="M212.043 78.7382C212.337 80.7825 217.155 86.2433 217.155 86.2433C217.155 86.2433 220.265 79.791 219.97 77.7391C219.912 77.2419 219.748 76.7607 219.488 76.3238C219.229 75.8869 218.879 75.503 218.458 75.1949C218.038 74.8867 217.557 74.6605 217.042 74.5295C216.527 74.3984 215.989 74.3652 215.461 74.4319C214.932 74.4985 214.423 74.6636 213.963 74.9174C213.504 75.1713 213.103 75.5087 212.784 75.91C212.466 76.3112 212.236 76.7681 212.109 77.2538C211.981 77.7396 211.959 78.2442 212.043 78.7382Z" fill="black"/>
<path d="M212.162 93.0711C212.162 93.0711 213.978 75.5311 224.786 66.2041C229.345 62.3169 232.437 57.149 233.599 51.475C234.128 48.7776 234.392 46.0404 234.387 43.2979" stroke="#535461" stroke-width="2" stroke-miterlimit="10"/>
<path d="M241.162 37.3798C240.344 39.3014 234.229 43.4718 234.229 43.4718C234.229 43.4718 232.915 36.4982 233.741 34.5766C234.139 33.6538 234.911 32.917 235.888 32.5281C236.865 32.1392 237.966 32.1301 238.95 32.5029C239.935 32.8756 240.72 33.5997 241.135 34.5157C241.55 35.4317 241.56 36.4647 241.162 37.3875V37.3798Z" fill="#000C79"/>
<path d="M242.718 50.3404C240.911 51.5312 233.37 51.9222 233.37 51.9222C233.37 51.9222 236.308 45.3958 238.115 44.205C238.544 43.9043 239.032 43.6873 239.552 43.5668C240.071 43.4463 240.611 43.4248 241.14 43.5035C241.669 43.5822 242.175 43.7596 242.629 44.0251C243.083 44.2907 243.476 44.639 243.784 45.0494C244.092 45.4598 244.309 45.924 244.422 46.4145C244.536 46.905 244.543 47.4118 244.443 47.9049C244.344 48.398 244.14 48.8675 243.844 49.2854C243.547 49.7033 243.165 50.0612 242.718 50.3379V50.3404Z" fill="#000C79"/>
<path d="M234.635 68.4274C232.433 68.6012 225.713 65.361 225.713 65.361C225.713 65.361 231.763 61.1191 233.965 60.9453C235.022 60.862 236.072 61.1759 236.882 61.8181C237.693 62.4602 238.198 63.378 238.287 64.3695C238.376 65.361 238.041 66.345 237.356 67.1051C236.671 67.8651 235.693 68.3389 234.635 68.4223V68.4274Z" fill="#000C79"/>
<path d="M225.23 80.8182C223.091 81.3293 215.885 79.216 215.885 79.216C215.885 79.216 221.082 74.0772 223.222 73.5559C224.249 73.3062 225.339 73.4492 226.254 73.9536C227.169 74.458 227.832 75.2824 228.098 76.2454C228.365 77.2085 228.212 78.2313 227.674 79.0888C227.136 79.9464 226.257 80.5685 225.23 80.8182Z" fill="#000C79"/>
<path d="M225.421 49.3489C226.315 51.2424 232.567 55.2262 232.567 55.2262C232.567 55.2262 233.629 48.2143 232.736 46.3208C232.29 45.4349 231.493 44.7475 230.514 44.4054C229.535 44.0634 228.453 44.0938 227.498 44.4902C226.542 44.8866 225.79 45.6176 225.402 46.5269C225.014 47.4362 225.021 48.4518 225.421 49.3566V49.3489Z" fill="#000C79"/>
<path d="M214.618 63.9707C216.076 65.5269 223.309 67.5661 223.309 67.5661C223.309 67.5661 222.088 60.5772 220.63 59.021C220.286 58.6429 219.865 58.3328 219.392 58.1085C218.919 57.8843 218.403 57.7504 217.874 57.7148C217.345 57.6791 216.814 57.7423 216.312 57.9007C215.809 58.0591 215.346 58.3096 214.947 58.6375C214.549 58.9655 214.224 59.3644 213.992 59.8111C213.759 60.2577 213.624 60.7433 213.593 61.2395C213.562 61.7357 213.637 62.2327 213.813 62.7016C213.989 63.1704 214.263 63.6018 214.618 63.9707Z" fill="#000C79"/>
<path d="M206.2 79.5381C207.355 81.3013 214.116 84.4572 214.116 84.4572C214.116 84.4572 214.174 77.3763 213.026 75.6105C212.455 74.7952 211.568 74.2206 210.552 74.0085C209.537 73.7964 208.473 73.9635 207.587 74.4743C206.701 74.9852 206.062 75.7997 205.805 76.745C205.549 77.6904 205.695 78.6922 206.213 79.5381H206.2Z" fill="#000C79"/>
<path d="M198.264 24.3806C198.716 22.8244 199.261 21.2605 199.643 19.6838C199.185 21.2605 198.637 22.8295 198.264 24.3806Z" fill="url(#paint0_linear_209_2676)"/>
<path d="M196.236 39.3703C196.198 39.3089 196.171 39.2476 196.141 39.1914C196.141 39.1658 196.113 39.1454 196.102 39.1198C196.043 39.1461 195.982 39.1691 195.92 39.1888C195.8 39.2323 195.677 39.2732 195.552 39.3064C195.427 39.3396 195.375 39.3575 195.279 39.3779C195.2 39.4035 195.119 39.4231 195.037 39.4367L195.059 39.4827C195.159 39.4622 195.258 39.4444 195.358 39.4188L195.386 39.7357C195.5 39.7357 195.606 39.7203 195.71 39.7203C195.759 39.7178 195.808 39.7178 195.857 39.7203C196.07 39.7203 196.255 39.7203 196.402 39.7203C196.345 39.6054 196.285 39.4852 196.236 39.3703ZM251.559 121.941C250.278 120.324 247.722 102.963 247.722 102.963C247.722 102.963 242.694 90.6179 244.064 85.6912C245.435 80.7645 240.32 68.1589 240.32 68.1589C240.32 68.1589 236.941 66.7816 236.758 64.7373C236.758 64.7373 222.96 60.6487 222.314 57.5823C221.791 55.0678 213.233 53.2637 210.159 52.6939C209.222 49.147 208.279 45.8379 207.584 44.0312C207.396 43.469 207.219 42.9835 207.055 42.6002C205.881 39.7893 202.251 39.5338 199.618 39.7587C199.504 39.2796 199.292 38.8258 198.994 38.4222C198.95 38.2835 198.864 38.1599 198.746 38.067C198.689 38.0219 198.629 37.9809 198.566 37.9444C198.518 37.8615 198.456 37.7872 198.381 37.7246C198.306 37.6614 198.224 37.6066 198.135 37.5611C198.072 37.5289 198.007 37.5008 197.939 37.4767C197.781 37.4203 197.618 37.3784 197.451 37.3515C197.257 37.3141 197.061 37.2902 196.863 37.28C197.344 37.0827 197.773 36.7887 198.119 36.4188C198.355 36.1591 198.53 35.8563 198.634 35.5296C198.72 35.2578 198.759 34.9748 198.749 34.6914C198.678 34.8082 198.596 34.9185 198.503 35.021C198.618 33.889 197.98 32.7391 197.615 31.6122C197.172 30.1451 197.09 28.6031 197.375 27.102C197.74 24.8379 198.645 22.5483 199.258 20.2434C199.26 20.2307 199.26 20.2178 199.258 20.2051C199.58 19.0604 199.779 17.8885 199.852 16.7068C199.959 14.3227 199.307 11.9436 198.261 9.77157C197.331 7.84739 195.961 5.95387 193.862 5.17193C192.303 4.58165 190.556 4.67619 188.878 4.57909C185.111 4.35933 181.519 3.11743 177.938 1.98796C174.357 0.858493 170.673 -0.168761 166.904 0.0280018C163.135 0.224764 159.257 1.92919 157.537 5.05694C156.992 6.03309 156.679 7.11911 156.027 8.03649C154.806 9.76646 152.621 10.6327 150.797 11.8261C148.974 13.0194 147.369 14.7136 146.71 16.7349C146.349 17.8239 146.299 18.9822 146.562 20.0952C146.622 20.3466 146.698 20.5941 146.791 20.8363C147.05 21.5115 147.453 22.1298 147.977 22.6531C148.372 23.0399 148.825 23.3697 149.323 23.6318C149.948 23.9568 150.617 24.2009 151.313 24.3575C151.288 24.4342 151.263 24.516 151.236 24.5952C151.193 24.7255 151.154 24.8507 151.114 24.9913C151.024 25.3056 150.939 25.625 150.868 25.947C150.865 25.9699 150.865 25.993 150.868 26.016C150.534 27.4694 150.365 28.9523 150.367 30.4393C150.366 31.1425 150.405 31.8453 150.481 32.5449C151.571 42.9145 160.701 51.0942 171.981 51.6257C172.368 51.6436 172.758 51.6538 173.153 51.6538C173.333 51.6538 173.51 51.6538 173.698 51.6538C173.875 51.8736 174.049 52.0985 174.216 52.3182C174.382 52.538 174.535 52.7629 174.679 52.9826L174.284 52.5993L173.889 52.2595C173.782 52.3973 173.662 52.5264 173.532 52.6453C173.274 52.5603 173.011 52.4904 172.744 52.4358C171.613 52.2007 169.891 52.1138 167.623 52.7552C165.538 53.3404 162.99 54.544 160.009 56.831L145.48 65.0081L137.621 69.4902L134.789 75.9808C134.789 75.9808 132.661 83.6929 130.293 92.5293C130.2 92.5549 130.11 92.5804 130.02 92.6111C129.828 92.5906 129.635 92.5804 129.442 92.5804C128.068 92.5774 126.746 93.0738 125.754 93.9653C124.762 94.8568 124.177 96.0741 124.122 97.3615C119.413 102.728 119.146 108.094 120.253 110.557C120.353 110.788 120.479 111.008 120.629 111.214C121.354 112.195 122.708 114.725 124.082 117.421C124.046 117.643 124.024 117.83 124.013 117.97C124.011 118.016 124.011 118.062 124.013 118.108C124.013 118.108 124.831 129.687 122.106 133.006C121.509 133.729 121.599 134.68 122.106 135.733C123.932 139.52 131.151 144.577 131.151 144.577C131.151 144.577 139.809 144.533 144.633 144.04C144.619 144.495 144.608 144.947 144.597 145.389C144.488 149.856 144.488 153.6 144.488 153.6L144.309 158.284C144.309 158.284 142.673 168.155 141.856 170.877C141.341 172.583 141.935 188.388 142.453 200.008H227.759C228.762 193.134 227.348 172.249 227.348 172.249C227.348 172.249 226.004 166.849 225.955 162.142C225.952 162.137 225.951 162.131 225.951 162.126C225.951 162.12 225.952 162.114 225.955 162.109C225.955 161.698 225.955 161.296 225.971 160.903L226.59 160.883L227.702 160.847H227.803C227.803 160.847 227.83 160.75 227.893 160.591C228.04 160.197 228.24 159.821 228.49 159.475C228.964 158.818 229.705 158.174 230.82 158.13C231.436 158.107 232.389 157.64 233.466 156.95C233.473 156.951 233.48 156.951 233.488 156.95C236.385 155.113 240.214 151.722 241.143 151.164C242.421 150.398 248.542 145.287 248.542 145.287C248.542 145.287 249.455 144.204 250.428 142.898L250.463 142.852C251.673 141.217 252.96 139.262 252.644 138.646C252.099 137.542 253.009 134.902 253.009 134.902C255.851 130.024 252.84 123.559 251.559 121.941ZM198.86 43.3438C198.886 43.4201 198.903 43.499 198.909 43.5789C198.841 43.4946 198.773 43.4052 198.705 43.3234L198.64 43.2416L198.593 43.1803L198.697 43.0474C198.697 43.0474 198.697 43.0474 198.697 43.0653C198.769 43.1481 198.824 43.2425 198.86 43.3438ZM197.945 41.0798C197.648 41.136 197.413 41.1871 197.261 41.2254C197.067 40.9035 196.882 40.5815 196.716 40.2544C197.152 40.4921 197.564 40.7685 197.945 41.0798ZM197.432 41.4835C197.432 41.4785 197.432 41.4733 197.432 41.4682L197.454 41.4835C197.566 41.5525 197.675 41.619 197.776 41.688C197.866 41.7493 197.947 41.8081 198.029 41.8694C197.975 41.9588 197.915 42.0508 197.855 42.1249C197.759 41.9844 197.669 41.849 197.582 41.7084C197.528 41.6522 197.479 41.5755 197.432 41.4835ZM195.797 38.3302C196.324 38.2815 196.854 38.2815 197.381 38.3302C197.454 38.3302 197.52 38.343 197.585 38.3532C197.733 38.3746 197.878 38.4097 198.018 38.458C198.34 38.8805 198.539 39.3748 198.593 39.8915L198.446 39.912L198.302 39.9375C198.029 39.981 197.757 40.0244 197.544 40.0653L197.272 40.119C196.909 40.1931 196.699 40.2493 196.691 40.2519C196.656 40.1829 196.62 40.119 196.582 40.0525C196.522 39.9427 196.459 39.8302 196.405 39.7203C196.35 39.6105 196.28 39.4852 196.222 39.3703C196.184 39.3089 196.157 39.2476 196.127 39.1914C196.127 39.1658 196.1 39.1454 196.089 39.1198C196.073 39.0927 196.059 39.0645 196.048 39.0355C195.882 38.7186 195.729 38.4018 195.582 38.09C195.565 38.0594 195.552 38.0261 195.538 37.9955L195.745 37.9827V38.0491L195.797 38.3302ZM130.775 196.849C130.753 193.044 130.459 188.928 129.641 185.064C129.292 183.421 128.933 181.778 128.567 180.163C128.475 179.759 128.385 179.36 128.295 178.962L127.455 179.066H127.379C125.09 168.945 122.697 160.026 122.697 160.026C122.697 160.026 117.944 143.01 118.495 141.653C118.566 141.477 118.476 141.002 118.274 140.304C117.124 136.435 112.322 125.774 110.643 122.131C110.643 122.115 110.63 122.097 110.624 122.085C110.352 121.474 110.155 121.062 110.096 120.942L110.491 115.505L110.512 115.177L110.564 114.482L110.542 114.464L110.564 114.143C110.564 114.143 106.416 110.953 99.3906 108.651C99.1181 108.559 98.8292 108.47 98.5431 108.383C98.8946 106.183 99.3607 103.699 99.9684 101.279C100.026 101.036 100.088 100.801 100.154 100.563C100.211 100.326 100.276 100.096 100.342 99.8632C100.445 99.485 100.557 99.1119 100.672 98.7439C101.05 98.6315 101.424 98.5063 101.792 98.3734L101.933 98.3223C106.466 96.6686 110.205 93.5311 112.46 89.4906C114.715 85.4502 115.332 80.7805 114.197 76.3462C113.55 73.8314 112.355 71.4693 110.687 69.4085C110.562 69.25 110.428 69.0916 110.294 68.9357C110.161 68.7798 110 68.6061 109.85 68.4476C110.638 66.7688 111.567 65.1717 111.643 63.5388C111.657 63.332 111.657 63.1246 111.643 62.9179V62.8923C111.543 61.8421 111.047 60.779 109.891 59.6623C108.204 58.0244 105.803 57.1939 103.402 56.7952C101.001 56.3966 98.554 56.3864 96.1394 56.1181C92.136 55.6683 88.2361 54.5107 84.2327 54.1555C79.3015 53.7274 74.3369 54.5204 69.8351 56.4554C66.8563 57.733 63.8395 59.9664 63.6596 63.0303C63.5124 65.5627 65.3929 67.9902 64.9187 70.4919C64.4472 72.9502 61.7764 74.8846 62.0108 77.3709C62.1007 78.342 62.6322 79.2108 63.2971 79.9851C63.5261 80.2406 63.7686 80.4961 64.0193 80.7517C64.9895 81.7151 66.0578 82.6401 66.6002 83.8539C66.622 83.905 66.6438 83.9561 66.6628 84.0072C67.1234 85.2057 66.9163 86.721 65.7771 87.4084C65.7834 87.413 65.7882 87.4192 65.7908 87.4263C65.8071 87.4467 65.8235 87.462 65.8371 87.4825C65.8388 87.4784 65.8388 87.4738 65.8371 87.4697C66.241 87.9187 66.7855 88.237 67.3932 88.3794L67.6249 88.4459C67.4368 88.6375 67.2597 88.8368 67.0798 89.0464L66.9626 89.192C66.6623 89.5707 66.3892 89.9676 66.145 90.3803C66.0061 90.6102 65.8725 90.8402 65.7608 91.0702C65.3872 91.7712 65.1168 92.5165 64.9568 93.2857C64.6652 94.9773 65.0767 96.7405 64.6352 98.3964C64.0902 100.441 62.3651 102.01 61.3922 103.908C59.5499 107.486 60.5937 111.684 60.9643 115.635C61.4685 121.001 60.6509 126.39 59.836 131.721C59.4036 134.556 58.9712 137.393 58.5388 140.233C57.4487 147.36 56.3586 154.488 55.2685 161.616C54.8706 164.227 54.3991 166.982 52.5432 168.998H52.5623C52.5623 168.998 52.5623 169.014 52.5432 169.019C53.1003 169.247 53.6929 169.39 54.2983 169.443C56.7211 169.67 59.2883 168.572 61.4685 167.371C63.1951 166.435 64.8302 165.358 66.3549 164.153C66.1314 164.92 65.8916 165.756 65.6354 166.655C65.6363 166.664 65.6363 166.672 65.6354 166.681C62.5586 177.669 57.6095 197.813 57.6095 197.813C57.6095 197.813 57.1598 198.689 56.5766 199.995H133.429C132.53 198.973 131.693 197.994 131.039 197.204L130.775 196.849ZM73.8712 95.2482C73.8903 95.2175 73.9039 95.1894 73.923 95.1613C73.923 95.2431 73.923 95.3223 73.923 95.399C73.923 95.4756 73.923 95.5446 73.923 95.6162C73.923 95.6877 73.923 95.6801 73.923 95.7158C73.923 95.8206 73.8984 95.9254 73.8794 96.0302C73.8794 96.0302 73.8794 96.0429 73.8794 96.0531L74.1519 96.1477L74.468 96.2704C76.3357 96.962 78.2271 97.5881 80.142 98.1485C80.3383 98.2073 80.5372 98.2635 80.7362 98.3172L80.777 98.6341C80.8261 98.9586 80.8724 99.2882 80.916 99.6179C80.916 99.6179 80.916 99.6332 80.916 99.6434C81.0387 100.556 81.1586 101.465 81.2649 102.355C81.2649 102.355 76.2613 100.566 76.3239 103.282C76.3211 103.331 76.3211 103.379 76.3239 103.428C76.3184 103.493 76.3184 103.557 76.3239 103.622C76.3703 105.738 77.0761 106.993 77.2178 107.637C77.2093 107.663 77.1944 107.688 77.1742 107.708C77.0533 107.955 77.0116 108.229 77.0543 108.498C77.0496 108.955 77.0879 109.411 77.1688 109.862C77.0216 109.947 76.8772 110.031 76.7327 110.118C76.6237 110.182 76.5202 110.253 76.4139 110.325C75.7453 108.15 74.8706 106.036 73.8003 104.008C73.0509 102.562 72.2088 101.054 72.2169 99.4671C72.2169 99.3649 72.217 99.2601 72.2306 99.1553C72.261 98.6954 72.3544 98.2411 72.5086 97.8036C72.5712 97.6375 72.6394 97.4739 72.7157 97.3129C72.8938 96.9304 73.093 96.5568 73.3125 96.1937C73.4542 95.9535 73.6041 95.7158 73.7486 95.4756C73.7949 95.4041 73.8385 95.33 73.8821 95.2584L73.8712 95.2482ZM196.236 39.3703C196.198 39.3089 196.171 39.2476 196.141 39.1914C196.141 39.1658 196.113 39.1454 196.102 39.1198C196.043 39.1461 195.982 39.1691 195.92 39.1888C195.8 39.2323 195.677 39.2732 195.552 39.3064C195.427 39.3396 195.375 39.3575 195.279 39.3779L195.037 39.4367L195.059 39.4827C195.159 39.4622 195.258 39.4444 195.358 39.4188L195.386 39.7357C195.5 39.7357 195.606 39.7203 195.71 39.7203H195.857C196.07 39.7203 196.255 39.7203 196.402 39.7203C196.345 39.6054 196.285 39.4852 196.236 39.3703Z" fill="url(#paint1_linear_209_2676)"/>
<path d="M136.689 76.9034L135.054 77.5805C135.054 77.5805 124.395 116.407 124.395 119.545C124.395 122.683 146.996 140.143 146.996 140.143L150.522 117.825C150.522 117.825 145.459 66.6436 136.689 76.9034Z" fill="#E8F5FF"/>
<path d="M186.264 64.5533L176.821 59.9332C176.292 57.819 175.354 55.8139 174.052 54.0175C172.671 52.147 170.834 50.3097 168.544 49.3515C162.759 46.9188 193.017 34.1497 193.017 34.1497C193.494 35.6836 194.055 37.1933 194.699 38.6726C196.258 42.2808 198.844 46.9469 202.177 48.2757C207.843 50.5372 186.264 64.5533 186.264 64.5533Z" fill="#FFC1C7"/>
<path opacity="0.1" d="M194.699 38.6726C193.406 42.9362 190.717 46.7113 187.013 49.4647C183.308 52.2181 178.774 53.8106 174.052 54.0175C172.671 52.147 170.834 50.3097 168.544 49.3515C162.759 46.9188 193.017 34.1497 193.017 34.1497C193.494 35.6836 194.055 37.1933 194.699 38.6726Z" fill="black"/>
<path d="M195.549 32.2257C195.55 36.4072 194.229 40.4951 191.752 43.9723C189.275 47.4496 185.754 50.16 181.634 51.7608C177.514 53.3616 172.981 53.7808 168.607 52.9655C164.233 52.1501 160.215 50.1368 157.061 47.1802C153.908 44.2236 151.76 40.4565 150.89 36.3554C150.02 32.2542 150.467 28.0032 152.173 24.1401C153.88 20.2769 156.77 16.9751 160.478 14.6522C164.187 12.3294 168.546 11.0898 173.006 11.0903C175.97 11.0775 178.907 11.6153 181.648 12.6729C184.389 13.7305 186.88 15.2868 188.976 17.2519C191.072 19.217 192.732 21.5521 193.86 24.1221C194.988 26.6922 195.562 29.4464 195.549 32.2257Z" fill="#FFC1C7"/>
<path d="M198.803 61.8396L192.655 75.291L187.232 84.2194H169.872L164.808 72.0125L166.86 59.3532H180.119L188.679 58.9009L191.57 57.9963L193.434 58.9878L198.803 61.8396Z" fill="#575A89"/>
<path opacity="0.1" d="M196.686 43.9087C196.686 43.9087 200.52 44.6754 197.086 47.315C193.652 49.9547 181.806 58.3491 181.806 58.3491C181.806 58.3491 185.967 61.8243 185.106 65.895L198.893 58.6889L201.346 47.1592C201.346 47.1592 201.621 43.6941 196.686 43.9087Z" fill="black"/>
<path opacity="0.1" d="M184.517 58.3489L175.747 59.7058C175.747 59.7058 177.557 65.9792 176.652 67.7602C176.625 67.8156 176.602 67.8728 176.584 67.9315L173.006 77.0004L175.687 84.1222L184.97 72.2526L181.806 67.7602C181.806 67.7602 185.15 63.6052 187.139 62.164C189.128 60.7228 184.517 58.3489 184.517 58.3489Z" fill="black"/>
<path d="M184.517 57.999L175.747 59.3534C175.747 59.3534 177.557 65.6268 176.652 67.4078C176.625 67.4632 176.602 67.5204 176.584 67.579L173.006 76.648L175.687 83.7698L184.97 71.8925L181.806 67.4002C181.806 67.4002 185.15 63.2452 187.139 61.8039C189.128 60.3627 184.517 57.999 184.517 57.999Z" fill="#DCE6F2"/>
<path d="M197.054 43.2315C197.054 43.2315 200.888 43.9981 197.451 46.6378C194.015 49.2775 181.806 58.349 181.806 58.349C181.806 58.349 186.327 61.1471 185.468 65.2152L199.256 58.0117L201.708 46.4819C201.708 46.4819 201.981 43.0169 197.054 43.2315Z" fill="#575A89"/>
<path opacity="0.1" d="M174.655 54.8174C174.655 54.8174 175.491 56.2842 179.184 58.9289C179.184 58.9289 173.036 61.9954 175.388 66.3063L165.983 64.0064L164.536 59.7671L174.655 54.8174Z" fill="black"/>
<path d="M174.292 54.4802C174.292 54.4802 175.129 55.947 178.821 58.5918C178.821 58.5918 172.673 61.6429 175.025 65.9666L165.623 63.6667L164.176 59.43L174.292 54.4802Z" fill="#575A89"/>
<path opacity="0.1" d="M198.803 61.8396L192.655 75.291L187.243 84.2194H169.872L164.808 72.0124L166.858 59.3532H170.545C170.485 62.3072 171.635 65.7774 171.561 67.0678C171.436 69.1888 174.935 80.6317 174.935 80.6317C174.935 80.6317 182.258 69.5261 185.15 68.5372C186.967 67.9162 190.818 62.7493 193.432 58.9878L198.803 61.8396Z" fill="black"/>
<path d="M223.023 132.625L222.399 133.361C222.399 133.361 226.92 154.64 225.669 159.472C225.456 160.343 225.335 161.231 225.306 162.124V162.163C225.086 167.079 226.669 173.46 226.669 173.46C226.669 173.46 227.934 192.267 227.214 200.002H142.562C142.066 188.565 141.532 173.746 142.017 172.103C142.834 169.392 144.469 159.556 144.469 159.556L144.649 154.895C144.649 154.895 144.649 150.39 144.796 145.371C144.859 143.115 144.952 140.746 145.085 138.646C145.257 136.004 145.497 133.778 145.827 132.684C146.03 131.855 146.147 131.01 146.175 130.159C146.175 130.08 146.175 129.998 146.192 129.917C146.192 129.661 146.219 129.385 146.23 129.102C146.23 129.022 146.23 128.943 146.23 128.846C146.282 127.2 146.263 125.248 146.205 123.224C146.205 123.114 146.205 123.002 146.205 122.889C146.159 121.372 146.091 119.823 146.015 118.351C145.778 113.752 145.47 109.862 145.47 109.862L135.073 77.5626L137.874 71.0924L145.649 66.6257L160.025 58.4869C167.037 53.0823 171.654 53.7313 173.415 54.3242C173.586 54.3789 173.753 54.4429 173.916 54.5158C173.97 54.5414 174.014 54.5618 174.055 54.5848C174.111 54.6097 174.165 54.6387 174.216 54.6717C173.734 54.8892 173.315 55.2127 172.995 55.6146C172.634 56.0721 172.377 56.5939 172.24 57.1478C172.148 57.4912 172.083 57.8406 172.046 58.193C172.011 58.5635 171.997 58.9468 171.997 59.3327C172.017 60.1789 172.094 61.023 172.229 61.8599C172.229 61.8753 172.229 61.8957 172.229 61.9161C172.319 62.5141 172.431 63.0993 172.54 63.6487C172.539 63.658 172.539 63.6675 172.54 63.6768C172.665 64.3182 172.79 64.911 172.875 65.4221C172.891 65.5141 172.905 65.5984 172.919 65.6776C172.979 66.0154 173.007 66.3574 173.003 66.6998C173.034 67.5265 173.152 68.3483 173.357 69.1529C173.428 69.4902 173.51 69.8505 173.6 70.2262C173.723 70.7372 173.856 71.2943 174 71.8616C174.08 72.1733 174.164 72.4953 174.251 72.8147C174.284 72.9425 174.319 73.0703 174.352 73.2006L174.407 73.4025C174.987 75.5669 175.617 77.721 176.004 79.0243C176.232 79.7909 176.377 80.2636 176.377 80.2636C176.377 80.2636 180.481 74.0413 183.757 70.4996C183.806 70.4485 183.85 70.3999 183.896 70.3539C184.22 70.0038 184.539 69.6844 184.844 69.4033C185.512 68.7798 186.112 68.3352 186.594 68.1717C186.697 68.1363 186.796 68.0927 186.891 68.0413C188.232 67.3284 190.396 64.7398 192.421 62.0286C192.62 61.773 192.813 61.4945 193.009 61.2313C193.459 60.6231 193.895 60.0124 194.306 59.4272C194.623 58.98 194.925 58.5456 195.211 58.1317C196.574 56.1436 197.533 54.6615 197.533 54.6615L199.425 54.5823L199.754 54.5669H199.975L208.562 54.1939C208.562 54.1939 208.933 54.2526 209.543 54.3676C209.576 54.3676 209.609 54.3676 209.644 54.3881C212.691 54.9554 221.156 56.7518 221.674 59.2432C222.306 62.2943 235.96 66.365 235.96 66.365C236.139 68.4093 239.483 69.756 239.483 69.756C239.483 69.756 244.547 82.3028 243.192 87.2193C241.854 92.0745 246.675 104.085 246.803 104.422L245.88 105.516L223.023 132.625Z" fill="#E8F5FF"/>
<path opacity="0.1" d="M196.683 43.0169C196.683 43.0169 205.041 40.7937 206.941 45.3704C208.84 49.947 213.089 68.4299 213.089 68.4299C213.089 68.4299 202.057 70.3796 199.166 68.4299C197.47 67.2728 195.37 66.7581 193.287 66.9887L187.049 70.9725L185.207 70.4614C185.207 70.4614 195.187 56.5501 197.356 51.8227C199.525 47.0952 200.258 44.982 196.683 43.0169Z" fill="black"/>
<path d="M196.32 41.9947C196.32 41.9947 204.684 39.7715 206.592 44.3482C208.5 48.9248 212.74 67.4077 212.74 67.4077C212.74 67.4077 201.711 69.3574 198.817 67.4077C197.122 66.2505 195.023 65.7358 192.941 65.9665L186.698 69.9503L184.855 69.4392C184.855 69.4392 194.835 55.5278 197.004 50.8004C199.174 46.073 199.896 43.9649 196.32 41.9947Z" fill="#E8F5FF"/>
<path opacity="0.1" d="M140.215 115.729C140.215 115.729 146.453 117.171 147.631 120.477C148.808 123.784 143.02 123.868 143.02 123.868C143.02 123.868 139.493 118.019 140.215 115.729Z" fill="black"/>
<path opacity="0.1" d="M163.451 140.143C163.451 140.143 148.173 169.476 151.7 172.274C155.226 175.072 163.451 140.143 163.451 140.143Z" fill="black"/>
<path opacity="0.1" d="M184.517 118.528C184.517 118.528 196.724 147.02 194.282 151.42C191.84 155.82 199.525 151.42 199.525 151.42L184.517 118.528Z" fill="black"/>
<path d="M201.515 146.672C201.515 146.672 160.287 148.538 172.313 160.576C184.34 172.614 209.02 161.087 209.02 161.087L201.515 146.672Z" fill="#FFC1C7"/>
<path opacity="0.1" d="M195.549 32.2255C195.553 34.9981 194.972 37.7441 193.84 40.3055C193.462 40.3464 193.083 40.372 192.718 40.3873C192.173 39.2655 192.464 37.9699 192.475 36.7357C192.486 35.5015 192.001 34.05 190.734 33.7178C188.207 33.0509 186.463 37.4793 183.972 36.6795C182.065 36.0713 182.563 33.3575 181.465 31.7911C180.596 30.5518 178.854 30.2017 177.5 29.4248C174.619 27.7664 174.706 25.114 173.368 22.6046C171.967 19.9751 169.008 20.752 166.438 22.3031C164.487 23.4836 162.802 25.0654 160.715 26.0058C158.908 26.8235 156.878 27.1199 154.874 27.1633C153.641 27.2082 152.408 27.0859 151.212 26.8005C152.618 21.8415 155.901 17.5316 160.447 14.6745C164.992 11.8173 170.491 10.608 175.918 11.272C181.344 11.9361 186.328 14.4281 189.94 18.2834C193.551 22.1387 195.544 27.0941 195.546 32.2255H195.549Z" fill="black"/>
<path d="M166.446 21.6259C164.492 22.8065 162.81 24.3857 160.723 25.3312C158.916 26.1463 156.886 26.4428 154.883 26.4862C152.43 26.5373 149.789 26.1336 148.113 24.4726C146.573 22.9394 146.205 20.5808 146.857 18.5697C147.508 16.5586 149.07 14.89 150.904 13.6813C152.738 12.4726 154.866 11.637 156.082 9.90706C156.725 8.99224 157.036 7.91388 157.57 6.94029C159.279 3.82531 163.121 2.13878 166.836 1.92924C170.55 1.7197 174.232 2.75717 177.77 3.88153C181.307 5.00589 184.872 6.24268 188.605 6.47522C190.268 6.57232 191.995 6.47522 193.538 7.0655C195.612 7.85511 196.972 9.74352 197.898 11.6651C198.937 13.8321 199.583 16.1983 199.474 18.5646C199.245 23.6165 195.685 28.5739 197.25 33.4138C197.664 34.7042 198.441 36.0279 198.026 37.3184C197.421 39.2017 194.83 39.631 192.734 39.7204C192.189 38.5986 192.481 37.3005 192.491 36.0688C192.502 34.8371 192.017 33.3831 190.753 33.0509C188.224 32.3891 186.479 36.8098 183.994 36.0126C182.1 35.4018 182.591 32.6906 181.49 31.1242C180.62 29.8823 178.876 29.5347 177.524 28.7579C174.644 27.0995 174.731 24.447 173.393 21.9377C171.981 19.2954 169.019 20.0723 166.446 21.6259Z" fill="#2F2E41"/>
<path d="M126.469 118.865L124.39 119.545C124.39 119.545 125.207 131.074 122.482 134.381C119.757 137.688 131.432 145.908 131.432 145.908C131.432 145.908 147.434 145.824 147.887 144.63C148.339 143.437 147.069 123.268 147.069 123.268C147.069 123.268 138.479 120.13 139.201 115.129C139.201 115.129 136.58 126.912 132.693 126.403C128.807 125.895 124.395 122.851 126.469 118.865Z" fill="#E8F5FF"/>
<path opacity="0.1" d="M133.405 129.971C136.435 129.971 138.891 127.864 138.891 125.266C138.891 122.668 136.435 120.562 133.405 120.562C130.375 120.562 127.919 122.668 127.919 125.266C127.919 127.864 130.375 129.971 133.405 129.971Z" fill="black"/>
<path d="M139.403 119.205C139.403 119.205 138.313 88.009 128.824 94.9596C119.334 101.91 119.242 110.223 121.048 112.678C122.855 115.134 128.649 127.428 128.649 127.428C129.555 127.92 130.573 128.205 131.619 128.257C132.665 128.31 133.71 128.129 134.667 127.73C135.624 127.331 136.467 126.725 137.126 125.962C137.786 125.199 138.243 124.3 138.46 123.339L139.403 119.205Z" fill="#FFC1C7"/>
<path opacity="0.1" d="M198.599 40.1855C198.554 40.0484 198.469 39.9261 198.353 39.8328C197.885 39.4316 196.876 39.2911 195.356 39.4138L195.418 40.0884C197.446 39.9248 197.847 40.303 197.898 40.3669V40.4308L197.961 40.5151C198.214 40.8337 198.393 41.1983 198.487 41.5855C198.581 41.9727 198.587 42.3741 198.506 42.7638C198.062 44.8464 195.334 46.5049 195.307 46.5228L195.241 46.5585L195.2 46.6173C194.023 48.2553 187.365 52.8779 185.624 54.0738L185.471 53.9103C184.692 54.544 177.84 60.1683 177.47 62.3225C177.23 63.6743 175.606 64.1981 175.017 64.3438C174.396 63.9017 172.379 62.3966 171.33 60.7101C170.346 59.1232 174.306 56.0261 174.654 54.8174L174.109 54.2936C174.052 54.4878 168.967 58.9443 170.381 61.2212C171.515 63.0482 173.586 64.6121 174.311 65.1283C174.079 67.101 172.638 78.6845 170.422 81.4289C167.67 84.8403 165.356 102.033 165.612 108.035C165.838 113.368 164.353 123.442 159.393 127.768C158.534 128.55 157.498 129.139 156.362 129.493C155.227 129.847 154.02 129.956 152.833 129.812H152.773H152.713C152.642 129.812 145.448 130.502 139.403 125.723C134.457 121.821 131.655 115.453 131.072 106.791H130.952L130.903 104.269C132.244 104.072 133.452 103.396 134.273 102.383C135.093 101.369 135.463 100.096 135.304 98.8323C135.145 97.5683 134.47 96.4113 133.42 95.6044C132.37 94.7975 131.028 94.4034 129.675 94.5051C128.322 94.6068 127.064 95.1962 126.164 96.1496C125.265 97.103 124.795 98.3461 124.853 99.6177C124.91 100.889 125.491 102.09 126.474 102.969C127.456 103.847 128.763 104.334 130.121 104.327H130.181L130.23 106.834L129.99 106.85C130.59 115.793 133.533 122.409 138.711 126.495C142.647 129.553 147.674 131.096 152.776 130.811C153.138 130.848 153.502 130.867 153.866 130.867C156.205 130.879 158.455 130.03 160.134 128.504C165.359 123.942 166.947 113.499 166.699 107.984C166.427 101.624 168.855 85.0498 171.292 82.032C173.679 79.0703 175.126 67.5303 175.379 65.2944C176.243 65.067 178.197 64.3489 178.53 62.4835C178.77 61.1343 183.345 56.9767 186.161 54.6743L186.076 54.5823C187.591 53.5449 192.303 50.274 194.639 48.1735C195.364 47.5219 196.083 46.8703 196.835 46.2493C197.74 45.4981 198.89 44.3047 199.193 42.8941C199.296 42.4285 199.296 41.9481 199.194 41.4822C199.092 41.0164 198.889 40.5751 198.599 40.1855Z" fill="black"/>
<path d="M174.218 64.9674C174.104 64.8933 171.39 63.0714 170.03 60.8789C168.618 58.6021 173.703 54.1481 173.758 53.9539L174.303 54.4777C173.957 55.6838 169.997 58.7835 170.981 60.3678C172.221 62.3686 174.832 64.1191 174.859 64.137L174.218 64.9674Z" fill="#353146"/>
<path d="M185.27 54.5696L184.844 54.0202C184.932 53.9614 193.492 48.1556 194.841 46.2775L194.884 46.2212L194.947 46.1829C194.974 46.165 197.702 44.5091 198.146 42.424C198.228 42.0347 198.222 41.6336 198.128 41.2466C198.034 40.8597 197.855 40.4956 197.601 40.1778L197.539 40.0909V40.0296C197.484 39.9632 197.084 39.5875 195.056 39.7511L194.993 39.0739C196.517 38.9513 197.522 39.0918 197.991 39.493C198.108 39.5871 198.194 39.7103 198.239 39.8482C198.534 40.2367 198.74 40.6777 198.846 41.144C198.952 41.6103 198.955 42.092 198.855 42.5594C198.552 43.9725 197.405 45.1659 196.498 45.9146C195.748 46.5355 195.026 47.1923 194.304 47.8388C191.565 50.2996 185.569 54.3677 185.27 54.5696Z" fill="#E8F5FF"/>
<path d="M130.551 103.379L129.829 103.391L129.91 107.507L130.632 107.495L130.551 103.379Z" fill="#E8F5FF"/>
<path d="M129.769 104.003C132.682 104.003 135.043 101.789 135.043 99.0584C135.043 96.3275 132.682 94.1138 129.769 94.1138C126.857 94.1138 124.496 96.3275 124.496 99.0584C124.496 101.789 126.857 104.003 129.769 104.003Z" fill="#000C79"/>
<path d="M129.769 103.165C132.188 103.165 134.149 101.326 134.149 99.0584C134.149 96.7904 132.188 94.9519 129.769 94.9519C127.351 94.9519 125.39 96.7904 125.39 99.0584C125.39 101.326 127.351 103.165 129.769 103.165Z" fill="#E8F5FF"/>
<path d="M153.523 130.538C153.159 130.538 152.795 130.52 152.433 130.484C147.331 130.766 142.305 129.224 138.367 126.168C133.189 122.08 130.252 115.471 129.647 106.52L130.737 106.456C131.32 115.119 134.122 121.489 139.071 125.389C145.115 130.154 152.307 129.477 152.378 129.477H152.438H152.498C153.685 129.621 154.892 129.512 156.028 129.158C157.164 128.804 158.201 128.214 159.06 127.433C164.018 123.107 165.503 113.034 165.277 107.701C165.004 101.693 167.318 84.5005 170.073 81.0916C172.485 78.1044 173.981 64.6402 173.998 64.5048L174.039 64.1215L174.442 64.0551C174.466 64.0551 176.821 63.636 177.115 61.9852C177.497 59.8336 184.337 54.2093 185.114 53.573L185.825 54.3396C182.999 56.6394 178.424 60.7995 178.195 62.1513C177.862 64.0218 175.908 64.7373 175.047 64.9622C174.774 67.2007 173.338 78.7381 170.959 81.6998C168.523 84.7177 166.094 101.292 166.367 107.652C166.601 113.166 165.029 123.613 159.804 128.171C158.122 129.702 155.866 130.551 153.523 130.538Z" fill="#353146"/>
<g opacity="0.1">
<path d="M197.871 26.1848C198.318 24.6363 198.858 23.0775 199.234 21.5085C198.784 23.0852 198.242 24.6363 197.871 26.1848Z" fill="black"/>
<path d="M193.312 38.3533C192.767 37.2315 193.058 35.9334 193.069 34.7017C193.08 33.4701 192.595 32.0288 191.33 31.6839C188.801 31.022 187.057 35.4453 184.572 34.6455C182.664 34.0348 183.168 31.3236 182.067 29.7571C181.198 28.5152 179.456 28.1677 178.105 27.3909C175.221 25.7324 175.309 23.08 173.973 20.5706C172.57 17.9386 169.613 18.7154 167.04 20.2691C165.086 21.4497 163.405 23.0314 161.317 23.9744C159.51 24.7895 157.48 25.0859 155.477 25.1294C153.038 25.183 150.383 24.7767 148.707 23.1158C147.415 21.8381 146.949 19.965 147.216 18.2095C147.17 18.3296 147.129 18.4497 147.088 18.5698C146.434 20.5808 146.816 22.9445 148.345 24.4726C150.021 26.1336 152.675 26.5374 155.114 26.4863C157.12 26.4428 159.148 26.1464 160.957 25.3312C163.05 24.3858 164.732 22.8066 166.68 21.626C169.253 20.0723 172.213 19.2955 173.613 21.9275C174.949 24.4369 174.864 27.0893 177.745 28.7478C179.108 29.5144 180.838 29.8721 181.71 31.114C182.8 32.6856 182.318 35.3917 184.215 36.0024C186.697 36.7997 188.442 32.3789 190.971 33.0408C192.235 33.373 192.723 34.8295 192.709 36.0586C192.696 37.2878 192.412 38.5884 192.952 39.7102C195.048 39.6208 197.639 39.1992 198.247 37.3082C198.331 37.0368 198.369 36.755 198.362 36.4726C197.476 37.9062 195.198 38.2741 193.312 38.3533Z" fill="black"/>
</g>
<path opacity="0.1" d="M242.566 101.317L245.73 104.455C245.73 104.455 248.261 121.747 249.526 123.365C250.79 124.982 253.777 131.417 250.973 136.249C250.973 136.249 250.068 138.878 250.611 139.98C251.153 141.081 246.544 146.593 246.544 146.593C246.544 146.593 240.486 151.678 239.219 152.442C237.952 153.206 231.264 159.309 229.005 159.393C226.745 159.477 226.007 162.107 226.007 162.107L213.258 162.531C213.258 162.531 206.216 162.186 204.684 163.119C204.684 163.119 205.502 153.03 197.634 146.417L207.668 143.026C207.668 143.026 211.468 141.493 212.642 139.89C213.381 138.908 214.429 138.167 215.64 137.772C215.64 137.772 218.441 135.907 218.531 134.89C218.621 133.873 221.957 132.626 221.957 132.626L220.068 117.511L221.063 92.417C221.063 92.417 224.227 71.3915 230.918 72.5798C237.608 73.768 242.566 101.317 242.566 101.317Z" fill="black"/>
<path d="M243.656 101.317L246.82 104.455C246.82 104.455 249.351 121.747 250.616 123.365C251.881 124.982 254.867 131.417 252.063 136.249C252.063 136.249 251.161 138.878 251.703 139.98C252.246 141.081 247.635 146.593 247.635 146.593C247.635 146.593 241.576 151.678 240.309 152.442C239.042 153.206 232.354 159.309 230.095 159.393C227.835 159.477 227.097 162.107 227.097 162.107L214.348 162.531C214.348 162.531 207.301 162.186 205.774 163.119C205.774 163.119 206.592 153.03 198.724 146.417L208.759 143.026C208.759 143.026 212.558 141.493 213.732 139.89C214.471 138.908 215.519 138.167 216.73 137.772C216.73 137.772 219.532 135.907 219.622 134.89C219.711 133.873 223.047 132.626 223.047 132.626L221.159 117.511L222.153 92.417C222.153 92.417 225.317 71.3915 232.008 72.5798C238.698 73.768 243.656 101.317 243.656 101.317Z" fill="#E8F5FF"/>
<path opacity="0.1" d="M231.893 126.666C231.893 126.666 241.206 124.366 243.648 127.177C246.089 129.988 231.893 126.666 231.893 126.666Z" fill="black"/>
<path opacity="0.1" d="M229.724 130.522C232.888 132.6 242.653 132.684 242.653 132.684L229.724 130.522Z" fill="black"/>
<path opacity="0.1" d="M234.515 140.907C234.788 140.992 241.227 147.436 243.931 145.487C246.634 143.537 234.515 140.907 234.515 140.907Z" fill="black"/>
<path opacity="0.1" d="M147.786 86.8208C147.786 86.8208 149.677 99.0303 148.745 104.003C147.813 108.976 151.214 115.137 151.214 115.137L147.786 86.8208Z" fill="black"/>
<path d="M105.915 91.7859C103.735 93.3881 102.143 97.1803 100.99 101.348C98.9792 108.618 98.3224 117.048 98.3224 117.048C98.3224 117.048 80.9624 113.317 82.2269 111.623C83.0227 110.558 81.9544 102.529 81.0632 96.7075C80.5318 93.268 80.0576 90.5977 80.0576 90.5977C80.0576 90.5977 111.883 87.3754 105.915 91.7859Z" fill="#FFCCD0"/>
<path opacity="0.1" d="M105.915 91.446C103.735 93.0507 102.143 96.8403 100.99 101.008C97.5317 101.993 93.8531 102.082 90.3449 101.265C86.8366 100.449 83.6294 98.7572 81.0632 96.3701C80.5318 92.9281 80.0576 90.2577 80.0576 90.2577C80.0576 90.2577 111.883 87.038 105.915 91.446Z" fill="black"/>
<path d="M115.246 82.3132C115.248 86.7578 113.573 91.0596 110.517 94.4575C107.462 97.8553 103.222 100.13 98.5501 100.879C93.8778 101.628 89.0735 100.803 84.9876 98.5498C80.9017 96.2968 77.7975 92.761 76.2245 88.5683C74.6515 84.3755 74.7111 79.7962 76.3928 75.6408C78.0745 71.4853 81.2697 68.0216 85.4131 65.8627C89.5565 63.7039 94.3808 62.989 99.0322 63.8447C103.684 64.7003 107.862 67.0714 110.829 70.5381C113.687 73.8775 115.245 78.0312 115.246 82.3132Z" fill="#FFCCD0"/>
<path opacity="0.1" d="M131.075 200.003H125.352L124.869 190.525L124.365 180.715C124.365 180.715 125.665 180.533 127.736 180.262L128.573 180.158H128.641C129.093 182.148 129.54 184.193 129.971 186.234C130.688 189.859 131.061 193.536 131.086 197.222C131.086 197.478 131.086 197.733 131.086 197.974C131.102 198.656 131.086 199.338 131.075 200.003Z" fill="black"/>
<path d="M129.976 200.002H58.2036C58.5143 199.341 58.7214 198.939 58.7214 198.939C58.7214 198.939 64.4636 175.384 67.3823 165.418C67.3832 165.41 67.3832 165.401 67.3823 165.393C67.747 164.039 68.1873 162.704 68.7014 161.394C68.7346 161.305 68.7775 161.219 68.8294 161.138C70.2738 158.935 72.0834 156.561 69.5516 153.17C67.0199 149.779 67.9165 134.859 67.9165 134.859C67.9165 134.859 70.9906 122.141 74.2446 115.359C74.7384 114.308 75.4392 113.355 76.3103 112.548C76.5935 112.288 76.8959 112.047 77.2151 111.827C77.4578 111.656 77.7108 111.498 77.9727 111.355L78.0245 111.324C79.3914 110.597 80.9094 110.155 82.4749 110.028C83.5869 109.919 84.7095 109.949 85.8133 110.115C91.0895 110.841 95.3136 112.055 98.6712 113.437C107.771 117.186 110.526 122.21 110.581 122.315L110.602 122.358C110.968 123.158 116.309 134.851 118.233 140.307C118.732 141.728 119.004 142.727 118.895 143C118.35 144.354 123.054 161.309 123.054 161.309C123.054 161.309 125.234 169.486 127.415 179.072C127.51 179.47 127.6 179.869 127.687 180.273C128.077 182.013 128.464 183.786 128.837 185.557C129.561 189.207 129.934 192.91 129.952 196.622C129.992 197.778 130 198.905 129.976 200.002Z" fill="#3F3D56"/>
<path opacity="0.1" d="M82.0471 104.197C82.0471 104.197 77.0952 102.408 77.1552 105.122C77.2152 107.836 78.3625 109.134 78 109.53C77.6376 109.926 78.1799 112.3 78.1799 112.3C78.1799 112.3 84.8705 112.3 87.9446 113.598C91.0187 114.896 102.35 117.498 103.797 118.29C105.245 119.082 110.611 122.634 110.611 122.634L111.093 115.908C111.093 115.908 105.547 111.613 96.4474 109.41C87.3477 107.207 82.0471 104.197 82.0471 104.197Z" fill="black"/>
<path d="M82.0471 103.857C82.0471 103.857 77.0952 102.068 77.1552 104.782C77.2152 107.496 78.3625 108.794 78 109.19C77.6376 109.586 78.1799 111.96 78.1799 111.96C78.1799 111.96 84.8705 111.96 87.9446 113.261C91.0187 114.562 102.35 117.16 103.797 117.95C105.245 118.74 110.611 122.294 110.611 122.294L111.098 115.589C111.098 115.589 105.553 111.293 96.4529 109.091C87.3532 106.888 82.0471 103.857 82.0471 103.857Z" fill="#3F3D56"/>
<path opacity="0.1" d="M96.9951 120.043C96.9951 120.043 106.457 129.649 105.975 132.309C105.493 134.969 96.9951 120.043 96.9951 120.043Z" fill="black"/>
<path opacity="0.1" d="M81.6246 154.742C81.6246 154.742 74.6888 160.735 72.6449 161.074C70.6009 161.414 74.2119 162.544 76.5611 161.642C78.9103 160.74 83.9193 158.366 83.9193 158.366L81.6246 154.742Z" fill="black"/>
<path d="M132.794 200.003H116.62C114.358 198.163 112.219 196.458 110.856 195.434C108.676 193.793 107.103 191.378 106.1 189.436C105.874 188.994 105.678 188.58 105.512 188.205C105.214 187.557 104.952 186.896 104.727 186.224L116.704 179.555C117.366 180.082 117.988 180.653 118.566 181.262L118.71 181.418C119.375 182.153 119.961 182.989 120.013 183.674C120.073 184.471 122.438 187.555 124.856 190.517C127.308 193.53 129.821 196.41 129.987 196.604C129.987 196.604 130.402 197.133 131.077 197.946C131.554 198.533 132.143 199.239 132.794 200.003Z" fill="#FFCCD0"/>
<path opacity="0.1" d="M110.829 70.538C110.254 71.7544 109.739 73.0167 109.662 74.371C109.447 78.2807 109.796 87.0226 105.179 88.9851C102.893 89.951 100.445 87.8301 97.9381 87.779C96.134 87.7432 94.4797 88.8165 93.3787 90.158C92.2777 91.4996 91.5937 93.0916 90.7952 94.6095C90.0683 95.9872 89.231 97.3112 88.2906 98.5703C88.0095 98.9556 87.6999 99.3219 87.364 99.6665C84.549 98.5527 82.0423 96.8511 80.0348 94.6913C78.0274 92.5316 76.5722 89.9706 75.7802 87.2037C74.9881 84.4367 74.8802 81.5367 75.4645 78.7247C76.0488 75.9127 77.31 73.2629 79.152 70.9771C80.9939 68.6913 83.368 66.83 86.0934 65.5349C88.8188 64.2397 91.8235 63.545 94.8785 63.5037C97.9336 63.4623 100.958 64.0754 103.723 65.2962C106.487 66.517 108.917 68.3133 110.829 70.5482V70.538Z" fill="black"/>
<path d="M109.3 73.6811C109.082 77.5908 109.433 86.3326 104.814 88.2926C102.527 89.2585 100.08 87.1401 97.5729 87.089C95.7688 87.0507 94.1172 88.1265 93.0135 89.4655C91.9098 90.8045 91.2312 92.3991 90.43 93.9195C89.7029 95.2971 88.8656 96.6212 87.9254 97.8803C87.364 98.6265 86.7427 99.3752 85.8787 99.7943C84.3744 100.53 82.5512 100.116 80.9378 99.6435C78.8448 99.0251 76.7827 98.3283 74.7515 97.5532C74.7981 97.2657 74.8218 96.9752 74.8223 96.6844C74.7624 96.7917 74.697 96.8914 74.6316 96.9987L74.5035 97.2082C74.2718 97.5915 74.0456 97.9748 73.8385 98.3684C73.7595 98.5191 73.6832 98.675 73.615 98.8309C73.3409 99.411 73.1688 100.029 73.1054 100.661C72.9664 102.365 73.863 103.982 74.6588 105.516C77.7193 111.447 79.6106 118.382 77.3078 124.604C76.3103 127.31 74.5825 129.715 73.3207 132.329C71.115 136.959 70.4657 142.109 71.4593 147.094C72.0889 150.191 73.3507 153.257 73.04 156.398C72.4949 161.803 67.524 165.825 62.545 168.59C59.8551 170.077 56.563 171.4 53.7069 170.225C55.5274 168.232 55.9961 165.475 56.3886 162.873C57.4623 155.778 58.5388 148.679 59.618 141.577C60.0486 138.751 60.4783 135.924 60.9071 133.098C61.7083 127.788 62.5204 122.419 62.019 117.076C61.6538 113.138 60.6237 108.958 62.4441 105.393C63.4062 103.505 65.1204 101.941 65.6545 99.9067C66.0933 98.2534 65.6845 96.4953 65.9734 94.8113C66.1315 94.0452 66.3992 93.3025 66.7691 92.6035C67.2403 91.6549 67.8553 90.7753 68.5951 89.9919C67.8647 89.7926 67.1834 89.5192 66.7691 88.9468C67.941 88.2313 68.1182 86.6188 67.5867 85.4076C67.0553 84.1964 65.9924 83.2739 65.0359 82.3182C64.0793 81.3625 63.1582 80.2483 63.0382 78.9451C62.8066 76.4639 65.4501 74.5422 65.9161 72.0942C66.3876 69.6027 64.5235 67.1803 64.6734 64.6581C64.8478 61.6096 67.8347 59.3941 70.7835 58.1087C75.2333 56.1773 80.1487 55.3838 85.0312 55.8089C89.0046 56.1616 92.85 57.314 96.8125 57.7612C99.2026 58.0167 101.625 58.0423 103.999 58.4358C106.373 58.8293 108.752 59.6598 110.423 61.2927C114.827 65.5985 109.55 69.1428 109.3 73.6811Z" fill="#2F2E41"/>
<path opacity="0.1" d="M105.615 189.439C104.225 188.874 101.696 189.211 97.3549 187.972C93.0136 186.732 92.1769 181.131 92.1769 181.131V181.113C92.1251 180.985 91.7218 180.152 88.9911 177.234C85.9742 174.012 79.4526 157.737 79.4526 157.737C79.4526 157.737 73.6696 151.913 73.8522 149.767C74.0348 147.62 72.8247 141.909 72.9447 135.521C73.0646 129.132 85.9633 124.895 85.9633 124.895C110.799 120.769 104.95 147.615 104.288 149.649C103.626 151.683 107.062 157.177 107.062 157.177C106.577 159.569 109.052 163.272 109.052 163.272C109.052 163.272 109.651 166.548 109.774 167.792C109.781 167.85 109.795 167.906 109.815 167.961C110.213 169.134 113.456 170.197 114.775 170.843C116.162 171.523 120.623 177.457 120.623 177.457C121.585 181.813 107 190.011 105.615 189.439Z" fill="black"/>
<path d="M106.337 188.417C104.95 187.849 102.418 188.189 98.0798 186.947C93.7412 185.705 92.9018 180.109 92.9018 180.109V180.091C92.8527 179.961 92.4467 179.13 89.716 176.212C86.6991 172.99 80.1775 156.712 80.1775 156.712C80.1775 156.712 74.3945 150.891 74.5743 148.745C74.7542 146.598 73.5496 140.887 73.6695 134.504C73.7895 128.12 86.68 123.886 86.68 123.886C111.515 119.759 105.667 146.606 105.005 148.64C104.342 150.674 107.779 156.168 107.779 156.168C107.294 158.56 109.768 162.262 109.768 162.262C109.768 162.262 110.368 165.538 110.493 166.783C110.498 166.84 110.511 166.897 110.532 166.952C110.929 168.124 114.173 169.188 115.494 169.834C116.879 170.511 121.343 176.447 121.343 176.447C122.31 180.796 107.725 188.994 106.337 188.417Z" fill="#3F3D56"/>
<path opacity="0.1" d="M87.1705 137.902C87.1705 137.902 98.0198 148.635 100.851 148.635C103.683 148.635 87.1705 137.902 87.1705 137.902Z" fill="black"/>
<path d="M106.337 188.417C104.95 187.849 102.419 188.189 98.0799 186.947C93.7412 185.705 92.9019 180.109 92.9019 180.109V180.091C95.777 178.303 103.059 173.251 105.929 171.403C107.948 170.107 109.597 168.204 110.562 166.941C110.96 168.114 114.203 169.177 115.524 169.824C116.909 170.501 121.373 176.437 121.373 176.437C122.31 180.797 107.725 188.994 106.337 188.417Z" fill="#3F3D56"/>
<g opacity="0.1">
<path d="M66.7855 88.975C66.7991 88.9954 66.8182 89.0133 66.8346 89.0338C66.9163 88.9367 67.0008 88.8396 67.088 88.7476C66.9951 88.8322 66.8939 88.9084 66.7855 88.975Z" fill="black"/>
<path d="M73.1081 100.689C73.2226 99.2704 74.032 98.0208 74.7896 96.7738C74.2936 96.5949 73.7976 96.4135 73.3071 96.2244C73.3538 95.9377 73.3775 95.6482 73.3779 95.3582C72.6121 96.6358 71.7782 97.8931 71.661 99.3317C71.522 101.039 72.4186 102.654 73.2144 104.187C76.2776 110.115 78.1662 117.051 75.8634 123.275C74.8632 125.979 73.1381 128.386 71.8763 131C69.6714 135.63 69.023 140.779 70.0177 145.763C70.6417 148.862 71.9063 151.926 71.5956 155.067C71.0505 160.471 66.0824 164.493 61.1006 167.256C59.0648 168.385 56.6856 169.42 54.41 169.346C54.1994 169.664 53.9644 169.967 53.7069 170.253C56.5657 171.436 59.8551 170.105 62.545 168.613C67.5295 165.853 72.5086 161.841 73.0536 156.426C73.3643 153.286 72.0998 150.222 71.473 147.122C70.478 142.139 71.1244 136.99 73.3261 132.36C74.5798 129.748 76.3239 127.338 77.3132 124.635C79.6161 118.41 77.7247 111.475 74.6643 105.546C73.8712 104.003 72.9691 102.396 73.1081 100.689Z" fill="black"/>
<path d="M110.417 61.3234C110.149 61.0655 109.861 60.8264 109.556 60.6079C112.859 64.6249 108.09 68.0389 107.853 72.3625C107.64 76.2722 107.989 85.0167 103.37 86.9741C101.086 87.9425 98.6357 85.8216 96.1312 85.7705C94.3244 85.7347 92.6729 86.8105 91.5691 88.1495C90.4654 89.4885 89.7868 91.0831 88.9883 92.601C88.2598 93.9784 87.4217 95.3024 86.481 96.5618C85.936 97.3105 85.2983 98.0567 84.4316 98.4783C82.9327 99.2117 81.1095 98.8003 79.4934 98.325C77.9219 97.8616 76.3648 97.3505 74.8223 96.7917C74.8191 97.0579 74.7955 97.3235 74.7515 97.5865C76.7845 98.3633 78.8475 99.0601 80.9406 99.6767C82.5539 100.152 84.3771 100.563 85.8787 99.8301C86.7427 99.4084 87.3695 98.6597 87.9281 97.911C88.8695 96.6534 89.7068 95.3302 90.4327 93.9527C91.2339 92.4349 91.9098 90.8378 93.0162 89.4988C94.1227 88.1598 95.7715 87.0865 97.5756 87.1223C100.083 87.1734 102.533 89.2943 104.817 88.3259C109.436 86.3685 109.084 77.624 109.3 73.7143C109.55 69.1684 114.827 65.6266 110.417 61.3234Z" fill="black"/>
</g>
<path opacity="0.1" d="M74.5062 97.2108C74.2745 97.5941 74.0483 97.9774 73.8412 98.3709C73.7622 98.5217 73.6859 98.6776 73.6177 98.8334C72.1897 97.4842 68.7122 94.2772 66.7719 93.2832C67.2436 92.335 67.8586 91.4555 68.5978 90.6716C68.5978 90.6716 73.2226 92.9638 74.5062 97.2108Z" fill="black"/>
<path d="M74.6343 97.0014C73.5632 92.4554 68.5978 89.9946 68.5978 89.9946C67.858 90.778 67.243 91.6577 66.7719 92.6062C68.8185 93.6565 72.5903 97.1777 73.8412 98.3711L74.6343 97.0014Z" fill="#3F3D56"/>
</g>
<defs>
<linearGradient id="paint0_linear_209_2676" x1="198.953" y1="24.3806" x2="198.953" y2="19.6838" gradientUnits="userSpaceOnUse">
<stop stop-color="#808080" stop-opacity="0.25"/>
<stop offset="0.54" stop-color="#808080" stop-opacity="0.12"/>
<stop offset="1" stop-color="#808080" stop-opacity="0.1"/>
</linearGradient>
<linearGradient id="paint1_linear_209_2676" x1="153.386" y1="200.002" x2="153.386" y2="-0.000104952" gradientUnits="userSpaceOnUse">
<stop stop-color="#808080" stop-opacity="0.25"/>
<stop offset="0.54" stop-color="#808080" stop-opacity="0.12"/>
<stop offset="1" stop-color="#808080" stop-opacity="0.1"/>
</linearGradient>
<clipPath id="clip0_209_2676">
<rect width="296" height="200" fill="white"/>
</clipPath>
</defs>
</svg>
