<svg width="200" height="200" viewBox="0 0 200 200" fill="none" xmlns="http://www.w3.org/2000/svg">
<g clip-path="url(#clip0_210_3528)">
<path d="M162.884 96.5275C162.884 99.3378 162.785 102.12 162.585 104.873C162.428 107.022 162.214 109.152 161.943 111.263C161.654 113.498 161.301 115.706 160.882 117.887V117.889C160.609 119.325 160.308 120.748 159.981 122.16C159.031 126.264 157.85 130.289 156.445 134.206C156.14 135.058 155.824 135.904 155.499 136.745C154.269 139.928 152.891 143.027 151.372 146.03C147.112 154.463 141.795 162.079 135.603 168.616C134.933 169.323 134.254 170.017 133.565 170.7C118.945 185.176 100.492 193.09 81.4421 193.055C36.4623 193.055 0 149.839 0 96.5275C0 43.2162 36.4623 0.000119556 81.4421 0.000119556C99.8363 -0.034256 117.694 7.34522 132.083 20.9269C132.757 21.5604 133.423 22.2081 134.08 22.8701C137.289 26.0951 140.283 29.6079 143.037 33.3775H143.039C155.865 50.9008 162.913 73.3293 162.884 96.5275Z" fill="#F2F2F2"/>
<path d="M24.0415 113.201C16.2832 107.728 10.4276 97.5003 11.1878 86.8376C18.2808 94.8838 27.5464 99.6969 37.3453 100.426C41.1252 100.69 45.3526 100.518 48.1351 103.562C49.8664 105.456 50.6723 108.308 50.8045 111.096C50.9366 113.884 50.4654 116.657 49.9966 119.394L50.158 120.064C41.1296 120.104 31.7999 118.674 24.0415 113.201Z" fill="#E6E6E6"/>
<path d="M11.3771 86.8263C14.4856 94.8808 19.6564 101.57 26.1551 105.943C27.5521 106.87 29.0374 107.666 30.6157 108.035C32.1565 108.381 33.7474 108.232 35.223 107.602C36.6088 107.049 37.9722 106.292 39.4475 106.147C41.0026 105.994 42.4422 106.705 43.5733 107.95C44.9572 109.474 45.7966 111.496 46.5595 113.508C47.4065 115.741 48.2565 118.077 49.8805 119.683C50.0773 119.878 49.811 120.228 49.6146 120.034C46.789 117.239 46.3278 112.56 44.0692 109.269C43.0153 107.733 41.5646 106.565 39.8412 106.596C38.3341 106.623 36.9276 107.402 35.5285 107.977C34.0594 108.581 32.5878 108.865 31.0368 108.599C29.4503 108.327 27.9357 107.598 26.5248 106.718C23.3379 104.693 20.4394 102.087 17.9356 98.9948C15.0615 95.4848 12.7151 91.4179 10.998 86.9701C10.8919 86.6947 11.2716 86.5527 11.3771 86.8263Z" fill="white"/>
<path d="M23.9926 104.681C23.2255 105.873 22.1257 106.704 20.8896 107.024C19.6535 107.345 18.3616 107.134 17.2446 106.429C17.0189 106.286 17.1964 105.864 17.4223 106.007C18.4615 106.665 19.6649 106.862 20.8155 106.561C21.966 106.26 22.9879 105.481 23.6966 104.365C23.8509 104.123 24.146 104.44 23.9926 104.681Z" fill="white"/>
<path d="M34.5514 107.993C34.2286 104.951 32.9504 102.166 30.9716 100.191C30.7754 99.9959 31.0416 99.6453 31.2376 99.8405C33.2935 101.899 34.6187 104.802 34.9488 107.968C34.9801 108.27 34.5826 108.293 34.5514 107.993Z" fill="white"/>
<path d="M15.5548 95.2634C15.9328 94.8753 16.2234 94.3819 16.4007 93.8277C16.578 93.2735 16.6364 92.6758 16.5706 92.0882C16.5361 91.787 16.9337 91.7638 16.968 92.063C17.0381 92.7126 16.973 93.3727 16.7782 93.9855C16.5835 94.5983 16.2651 95.1453 15.8508 95.5787C15.8147 95.6234 15.7655 95.6501 15.7133 95.6534C15.6611 95.6568 15.6098 95.6364 15.5698 95.5965C15.5308 95.5545 15.5074 95.496 15.5046 95.4336C15.5017 95.3713 15.5198 95.3101 15.5548 95.2634Z" fill="white"/>
<path d="M36.301 66.1804C36.327 66.3678 36.3531 66.5551 36.3821 66.7442C36.7434 69.2607 37.2766 71.7382 37.9764 74.1523C38.028 74.34 38.0827 74.5293 38.1387 74.7148C39.877 80.5096 42.5079 85.8716 45.8977 90.5282C47.248 92.3797 48.7152 94.1067 50.2866 95.6944C52.4569 97.8868 54.9572 100.059 56.3486 102.89C56.4966 103.184 56.6291 103.488 56.7453 103.8L50.8356 119.779C50.8068 119.807 50.7809 119.837 50.7521 119.866L50.5407 120.516C50.4549 120.441 50.3672 120.361 50.2813 120.286C50.2313 120.243 50.1827 120.196 50.1327 120.152C50.0998 120.122 50.067 120.092 50.0358 120.067C50.0249 120.057 50.014 120.047 50.006 120.039C49.9749 120.014 49.9482 119.987 49.9202 119.964C49.4289 119.517 48.9395 119.066 48.4518 118.61C48.4487 118.608 48.4487 118.608 48.447 118.603C44.7388 115.116 41.2436 111.231 38.357 106.841C38.2702 106.709 38.1802 106.576 38.0961 106.436C36.8042 104.449 35.6516 102.34 34.6496 100.13C34.1042 98.9179 33.611 97.6737 33.1718 96.4025C32.0422 93.1151 31.356 89.6377 31.1382 86.0976C30.7049 79.0403 32.1807 71.8974 36.0054 66.5831C36.1033 66.4472 36.2 66.3147 36.301 66.1804Z" fill="#E6E6E6"/>
<path d="M36.4587 66.3052C34.8492 74.9545 35.58 83.9851 38.5473 92.1141C39.192 93.8511 39.9735 95.5466 41.0461 96.9677C42.1006 98.3435 43.4467 99.3594 44.9445 99.91C46.3324 100.457 47.8055 100.825 49.0571 101.762C50.3763 102.75 51.1646 104.345 51.435 106.146C51.7659 108.351 51.4089 110.564 50.9962 112.715C50.5381 115.102 50.0303 117.574 50.5111 120.015C50.5694 120.311 50.1787 120.401 50.1206 120.105C49.2839 115.858 51.2928 111.792 51.1612 107.553C51.0997 105.575 50.535 103.607 49.1432 102.402C47.9262 101.348 46.4075 100.966 44.9982 100.427C43.5184 99.8609 42.1993 99.0373 41.0959 97.7184C39.9673 96.3693 39.1282 94.7064 38.4489 92.9966C36.9329 89.1058 35.9425 84.9566 35.514 80.7012C35.0022 75.8476 35.1946 70.9261 36.083 66.1495C36.1381 65.8539 36.5135 66.0115 36.4587 66.3052Z" fill="white"/>
<path d="M37.4619 89.5633C36.2436 89.9682 34.9435 89.8467 33.7938 89.2203C32.6441 88.594 31.7197 87.5037 31.1857 86.1442C31.0784 85.8687 31.4346 85.6582 31.542 85.9341C32.0374 87.2012 32.8985 88.2167 33.9701 88.7973C35.0417 89.3779 36.2531 89.4854 37.3857 89.1004C37.6319 89.0171 37.7067 89.4804 37.4619 89.5633Z" fill="white"/>
<path d="M44.21 99.7426C45.4974 97.0836 45.8918 93.9472 45.3148 90.9589C45.2574 90.6628 45.648 90.5729 45.7053 90.8686C46.3009 93.9797 45.8848 97.2426 44.5401 100.006C44.4117 100.269 44.0824 100.004 44.21 99.7426Z" fill="white"/>
<path d="M35.5086 76.023C36.0075 75.9828 36.4902 75.7963 36.9133 75.4803C37.3364 75.1643 37.6867 74.7287 37.9326 74.2126C38.0581 73.9475 38.3873 74.2127 38.2627 74.4761C37.9887 75.0448 37.6014 75.5253 37.1346 75.8756C36.6678 76.226 36.1357 76.4355 35.5848 76.4859C35.5332 76.4958 35.4804 76.4821 35.437 76.4475C35.3937 76.4129 35.3631 76.36 35.3514 76.2996C35.3416 76.2383 35.3526 76.1748 35.382 76.123C35.4114 76.0712 35.4569 76.0353 35.5086 76.023Z" fill="white"/>
<path d="M56.4157 22.3722L66.3839 160.676L46.4475 162.452V24.1318C48.8231 22.2687 52.2332 21.9772 56.4157 22.3722Z" fill="#CCCCCC"/>
<path d="M105.62 22.3722L95.6521 160.676L115.588 162.452V24.1318C113.213 22.2687 109.803 21.9772 105.62 22.3722Z" fill="#CCCCCC"/>
<path d="M112.603 168.169H49.2204C48.2041 168.167 47.2297 167.688 46.511 166.836C45.7923 165.985 45.3881 164.83 45.387 163.625V26.1617C45.3881 24.9571 45.7924 23.8022 46.511 22.9504C47.2297 22.0987 48.2041 21.6195 49.2204 21.6182H112.603C113.62 21.6195 114.594 22.0987 115.313 22.9504C116.031 23.8022 116.436 24.9571 116.437 26.1617V163.625C116.436 164.83 116.031 165.985 115.313 166.836C114.594 167.688 113.62 168.167 112.603 168.169ZM49.2204 23.1264C48.5414 23.1273 47.8905 23.4474 47.4104 24.0164C46.9303 24.5854 46.6602 25.3569 46.6595 26.1617V163.625C46.6602 164.43 46.9303 165.201 47.4104 165.77C47.8905 166.34 48.5414 166.66 49.2204 166.661H112.603C113.282 166.66 113.933 166.34 114.413 165.77C114.893 165.201 115.163 164.43 115.164 163.625V26.1617C115.163 25.3569 114.893 24.5854 114.413 24.0164C113.933 23.4474 113.282 23.1273 112.603 23.1264L49.2204 23.1264Z" fill="#CCCCCC"/>
<path d="M115.801 44.4932H46.0233V46.0014H115.801V44.4932Z" fill="#CCCCCC"/>
<path d="M115.801 69.6304H46.0233V71.1386H115.801V69.6304Z" fill="#CCCCCC"/>
<path d="M68.6667 22.3723H67.3942V90.9972H68.6667V22.3723Z" fill="#CCCCCC"/>
<path d="M94.4296 22.3723H93.1571V90.9972H94.4296V22.3723Z" fill="#CCCCCC"/>
<path d="M123.754 172.316H40.1909C38.6721 172.316 37.2156 171.601 36.1417 170.328C35.0678 169.056 34.4645 167.329 34.4645 165.529C34.4645 163.729 35.0678 162.003 36.1417 160.73C37.2156 159.457 38.6721 158.742 40.1909 158.742H123.754C125.273 158.742 126.729 159.457 127.803 160.73C128.877 162.003 129.48 163.729 129.48 165.529C129.48 167.329 128.877 169.056 127.803 170.328C126.729 171.601 125.273 172.316 123.754 172.316Z" fill="#CCCCCC"/>
<path d="M115.801 87.478H46.4475V92.5055H115.801V87.478Z" fill="#CCCCCC"/>
<path d="M68.8641 103.478L68.7761 103.428C64.0483 100.721 57.8572 100.723 48.7012 103.436L48.6034 103.465L48.5741 103.351C47.6055 99.5869 46.5083 95.3236 48.5696 93.2261C48.5985 87.0711 53.1537 82.0732 58.7489 82.0732C64.343 82.0732 68.8976 87.0686 68.9281 93.2219C71.9944 96.0005 70.5331 100.107 68.9136 103.378L68.8641 103.478Z" fill="#2F2E41"/>
<path d="M97.9228 90.2985C97.838 90.7972 97.662 91.2679 97.4072 91.6773C97.1524 92.0867 96.8249 92.4249 96.4478 92.6681C96.0708 92.9113 95.6533 93.0535 95.2249 93.0848C94.7964 93.1161 94.3674 93.0356 93.968 92.8491L77.2602 112.749L75.7695 106.57L92.3635 88.0903C92.6723 87.3159 93.2101 86.7026 93.8749 86.3667C94.5397 86.0308 95.2854 85.9956 95.9707 86.2678C96.6559 86.54 97.2331 87.1006 97.5929 87.8435C97.9527 88.5864 98.0701 89.4599 97.9228 90.2985Z" fill="#FFB6B6"/>
<path d="M56.6294 109.456C56.6294 109.456 55.1135 113.528 58.8538 116.038C62.5942 118.549 75.6667 115.08 77.7879 114.596C79.909 114.112 87.8313 100.06 87.8313 100.06L86.7111 93.1682L76.2042 103.978L56.6294 109.456Z" fill="#000C79"/>
<path d="M53.8705 131.971L54.0826 136.747C54.0826 136.747 53.4566 140.978 53.9715 141.891C54.4824 142.799 68.4254 142.914 68.4254 142.914C68.4254 142.914 69.3467 137.028 70.1402 131.875L53.8705 131.971Z" fill="#FFB6B6"/>
<path d="M93.9584 195.121L96.8733 194.423L96.0389 180.469L91.7369 181.499L93.9584 195.121Z" fill="#FFB6B6"/>
<path d="M98.1337 176.961L100.844 175.517L97.3282 162.165L93.3286 164.297L98.1337 176.961Z" fill="#FFB6B6"/>
<path d="M100.494 169.438L95.3917 172.862L82.8081 148.896C73.9743 155.95 65.3359 159.328 56.6277 161.13C53.6835 161.752 50.6817 161.437 50.1165 157.885C50.09 157.719 50.069 157.552 50.0533 157.384C49.7056 153.505 53.7772 148.532 54.2947 143.786L65.438 142.993L66.8121 145.081L79.6989 135.691C82.2905 133.802 85.699 134.824 87.3122 137.972C87.3973 138.138 87.4764 138.309 87.5494 138.483L100.494 169.438Z" fill="#2F2E41"/>
<path d="M97.3712 185.56L91.5328 186.204L80.9467 160.543C70.4493 162.683 60.5459 163.368 51.9799 160.78C49.0797 159.916 47.3069 156.366 48.0202 152.852C48.0535 152.688 48.0921 152.525 48.1359 152.365C49.1611 148.657 51.8446 146.034 53.9589 141.957L69.4026 142.235L67.6776 149.289L82.68 146.988C85.6971 146.525 88.4525 149.114 88.8344 152.769C88.8545 152.962 88.8677 153.156 88.8739 153.351L97.3712 185.56Z" fill="#2F2E41"/>
<path d="M59.9008 99.8297C63.3641 99.8297 66.1717 96.502 66.1717 92.3971C66.1717 88.2923 63.3641 84.9646 59.9008 84.9646C56.4374 84.9646 53.6298 88.2923 53.6298 92.3971C53.6298 96.502 56.4374 99.8297 59.9008 99.8297Z" fill="#FFB6B6"/>
<path d="M56.2244 102.513L61.9743 103.315C62.2168 103.349 62.4443 103.471 62.6252 103.665C62.8061 103.86 62.9314 104.116 62.9835 104.399L63.8979 109.358L69.5981 117.314C69.5981 117.314 71.645 121.863 70.8774 127.019C70.1099 132.174 69.7725 136.005 69.7725 136.005C69.7725 136.005 54.4818 142.8 53.97 141.89C53.4583 140.98 53.2923 136.848 53.2923 136.848L51.2454 109.858C51.2454 109.858 53.5481 105.309 54.8274 105.309C55.6531 105.276 55.5472 103.074 56.2244 102.513Z" fill="#000C79"/>
<path d="M69.928 137.664C70.7343 137.664 71.388 136.734 71.388 135.587C71.388 134.441 70.7343 133.511 69.928 133.511C69.1217 133.511 68.468 134.441 68.468 135.587C68.468 136.734 69.1217 137.664 69.928 137.664Z" fill="#000C79"/>
<path d="M92.5118 191.528L96.9559 188.889L97.7934 191.205L103.413 192.551C103.691 192.617 103.943 192.787 104.133 193.036C104.324 193.284 104.442 193.598 104.471 193.932C104.5 194.266 104.438 194.602 104.295 194.892C104.151 195.181 103.933 195.408 103.673 195.54L98.2435 198.299L96.4791 196.484L96.9422 198.96L94.895 200L92.5118 191.528Z" fill="#2F2E41"/>
<path d="M96.8618 175.85L101.266 173.118L102.138 175.417L107.777 176.646C108.055 176.706 108.31 176.871 108.504 177.115C108.698 177.36 108.821 177.671 108.855 178.005C108.889 178.338 108.832 178.675 108.693 178.967C108.554 179.26 108.339 179.491 108.081 179.629L102.693 182.5L100.902 180.722L101.402 183.189L99.3703 184.271L96.8618 175.85Z" fill="#2F2E41"/>
<path d="M56.3179 90.0659C54.6612 90.0691 53.0442 89.4644 51.6889 88.335L51.6437 88.2974V88.232C51.6455 86.3326 52.2829 84.5117 53.4161 83.1686C54.5493 81.8255 56.0857 81.07 57.6882 81.0679H60.2333C61.8358 81.07 63.3722 81.8255 64.5054 83.1686C65.6386 84.5117 66.276 86.3326 66.2778 88.232C66.2761 88.6667 66.1313 89.0835 65.8742 89.3936C65.6171 89.7036 65.268 89.8824 64.9013 89.892L56.4609 90.0644C56.4133 90.0654 56.3655 90.0659 56.3179 90.0659Z" fill="#2F2E41"/>
<path d="M66.7019 86.8561C67.5134 86.3008 67.649 84.7785 67.0048 83.4559C66.3606 82.1334 65.1805 81.5115 64.3689 82.0668C63.5574 82.6221 63.4218 84.1444 64.066 85.4669C64.7103 86.7894 65.8904 87.4114 66.7019 86.8561Z" fill="#2F2E41"/>
<path d="M54.0099 85.3807C54.921 84.3008 55.1224 82.7888 54.4598 82.0035C53.7972 81.2181 52.5214 81.4569 51.6104 82.5367C50.6993 83.6166 50.4978 85.1286 51.1604 85.9139C51.8231 86.6993 53.0988 86.4605 54.0099 85.3807Z" fill="#2F2E41"/>
<path d="M109.51 153.338H103.25C103.109 153.337 102.97 153.373 102.841 153.444C102.713 153.514 102.6 153.616 102.508 153.744C102.277 153.694 102.04 153.709 101.815 153.789C101.59 153.869 101.384 154.01 101.215 154.203C101.045 154.395 100.916 154.632 100.839 154.895C100.761 155.157 100.737 155.438 100.769 155.714C100.801 155.989 100.888 156.252 101.022 156.48C101.156 156.708 101.334 156.896 101.541 157.027C101.748 157.158 101.979 157.229 102.213 157.234C102.448 157.239 102.68 157.178 102.891 157.056L103.41 159.055C103.472 159.292 103.596 159.499 103.764 159.647C103.932 159.794 104.136 159.873 104.345 159.873H108.415C108.624 159.873 108.828 159.794 108.996 159.647C109.164 159.499 109.288 159.292 109.35 159.055L110.444 154.838C110.489 154.664 110.5 154.481 110.474 154.302C110.448 154.123 110.387 153.954 110.296 153.808C110.205 153.662 110.087 153.544 109.95 153.462C109.814 153.38 109.663 153.338 109.51 153.338ZM102.244 156.731C101.963 156.731 101.693 156.599 101.494 156.363C101.296 156.127 101.184 155.808 101.184 155.474C101.184 155.141 101.296 154.821 101.494 154.586C101.693 154.35 101.963 154.217 102.244 154.217C102.264 154.217 102.282 154.223 102.301 154.224C102.259 154.427 102.264 154.639 102.316 154.838L102.763 156.563C102.606 156.672 102.427 156.73 102.244 156.731Z" fill="#3F3D56"/>
<path d="M81.5593 147.881C81.1318 147.928 80.7009 147.863 80.2969 147.691C79.8929 147.519 79.5256 147.245 79.2208 146.886C78.9161 146.528 78.6813 146.095 78.5331 145.617C78.3849 145.14 78.3268 144.63 78.363 144.123L57.4852 130.862L62.0517 127.397L81.749 140.936C82.4635 141.064 83.1135 141.499 83.5757 142.157C84.038 142.815 84.2804 143.652 84.257 144.508C84.2336 145.364 83.9461 146.181 83.4488 146.802C82.9516 147.424 82.2793 147.808 81.5593 147.881Z" fill="#FFB6B6"/>
<path d="M54.2274 106.493C54.2274 106.493 50.5018 105.94 49.5456 110.908C48.5893 115.875 55.1438 129.722 56.1439 131.991C57.144 134.261 70.7744 139.224 70.7744 139.224L76.0229 135.975L64.271 127.147L54.2274 106.493Z" fill="#000C79"/>
<path d="M80.4878 85.9697H81.7603C82.379 85.9697 82.9724 86.2611 83.41 86.7796C83.8475 87.2982 84.0933 88.0015 84.0933 88.7348H78.1548C78.1548 88.0015 78.4006 87.2982 78.8381 86.7796C79.2756 86.2611 79.869 85.9697 80.4878 85.9697Z" fill="#CCCCCC"/>
<path d="M40.136 34.3793C47.0986 34.3793 52.743 27.6895 52.743 19.4372C52.743 11.1849 47.0986 4.49512 40.136 4.49512C33.1734 4.49512 27.5291 11.1849 27.5291 19.4372C27.5291 27.6895 33.1734 34.3793 40.136 34.3793Z" fill="#FF6584"/>
<path d="M78.7355 18.6583C75.3991 14.51 71.5242 10.7257 66.937 8.72593C65.6593 8.16652 64.3344 7.77191 62.9853 7.54892C62.9744 7.54716 62.9642 7.54977 62.9534 7.54873C62.9314 7.54203 62.9092 7.53685 62.8867 7.53322C60.9999 7.24832 59.0847 7.38536 57.2405 7.93724C56.3386 8.20547 55.4588 8.56874 54.6115 9.0227C53.7612 9.51435 52.9374 10.0677 52.1446 10.6797C50.4667 11.8701 48.6192 12.687 46.6934 13.09C45.7267 13.2963 44.7477 13.4102 43.7656 13.4306C42.9135 13.4508 42.1099 13.4859 41.3026 13.8508C40.4402 14.2352 39.6655 14.8531 39.0404 15.6553C38.4153 16.4576 37.957 17.4219 37.7022 18.4713C37.6825 18.5647 37.6884 18.6632 37.7191 18.7524C37.7497 18.8416 37.8034 18.917 37.8726 18.9676C38.091 19.153 38.3039 19.3633 38.5333 19.5285C38.7374 19.6392 38.9554 19.7097 39.1787 19.7371C39.5435 19.8283 39.9088 19.9169 40.2745 20.0028C41.6219 20.3192 42.9748 20.5993 44.3334 20.8431C47.0824 21.3363 49.8462 21.6837 52.6248 21.8854C58.1913 22.285 63.7769 22.086 69.3131 21.2909C72.4244 20.8443 75.5147 20.2107 78.5719 19.3928C78.6338 19.3714 78.6899 19.3314 78.7349 19.2766C78.7799 19.2219 78.8122 19.1543 78.8287 19.0803C78.8452 19.0064 78.8452 18.9288 78.8289 18.8548C78.8126 18.7809 78.7804 18.7132 78.7355 18.6583Z" fill="#E6E6E6"/>
<path d="M40.7344 28.6488C39.4566 28.0894 38.1317 27.6948 36.7826 27.4718C36.7718 27.47 36.7615 27.4726 36.7507 27.4716C36.7288 27.4649 36.7065 27.4597 36.6841 27.4561C34.7972 27.1712 32.882 27.3082 31.0378 27.8601C30.136 28.1283 29.2561 28.4916 28.4088 28.9456C27.5586 29.4372 26.7347 29.9906 25.942 30.6025C24.264 31.793 22.4166 32.6099 20.4908 33.0129C19.5241 33.2191 18.545 33.333 17.563 33.3534C16.7108 33.3737 15.9073 33.4088 15.0999 33.7736C14.2375 34.158 13.4629 34.776 12.8377 35.5782C12.2126 36.3804 11.7544 37.3447 11.4995 38.3941C11.4799 38.4876 11.4858 38.586 11.5164 38.6752C11.5471 38.7644 11.6008 38.8398 11.6699 38.8904C11.8883 39.0758 12.1012 39.2861 12.3307 39.4513C12.5348 39.562 12.7528 39.6325 12.9761 39.6599C13.3409 39.7512 13.7062 39.8397 14.0719 39.9256C15.4192 40.242 16.7722 40.5221 18.1307 40.7659C20.8797 41.2591 23.6435 41.6066 26.4222 41.8082C31.9887 42.2078 37.5742 42.0089 43.1104 41.2137C46.2218 40.7671 49.312 40.1336 52.3692 39.3157C52.4311 39.2942 52.4873 39.2542 52.5323 39.1994C52.5773 39.1447 52.6096 39.0771 52.6261 39.0032C52.6425 38.9293 52.6426 38.8516 52.6263 38.7776C52.6099 38.7037 52.5777 38.636 52.5328 38.5811C49.1964 34.4329 45.3216 30.6486 40.7344 28.6488Z" fill="#E6E6E6"/>
<path d="M131.648 140.04L121.953 124.945L114.304 130.071L130.514 152.886L131.648 140.04Z" fill="#3F3D56"/>
<path d="M153.981 115.501C154.196 121.827 155.023 128.103 156.445 134.206C156.14 135.058 155.824 135.904 155.499 136.745C154.269 139.927 152.891 143.027 151.372 146.03C147.112 154.463 141.795 162.079 135.603 168.616C134.933 169.323 134.254 170.017 133.565 170.7C129.639 164.285 127.521 157.206 126.683 149.922C126.577 148.997 126.49 148.061 126.424 147.131V147.126C126.263 144.866 126.211 142.597 126.269 140.329C126.271 140.148 126.276 139.965 126.282 139.781C126.356 137.358 126.541 134.93 126.818 132.524V132.522C126.85 132.245 126.882 131.969 126.918 131.692C127.02 130.862 127.135 130.033 127.26 129.208C127.988 124.453 129.004 119.766 130.301 115.184V115.182C130.337 115.049 130.373 114.918 130.413 114.787C130.553 114.289 130.695 113.797 130.842 113.304C130.851 113.265 130.862 113.228 130.876 113.191C131.065 112.547 131.258 111.909 131.455 111.275C131.508 111.1 131.563 110.924 131.62 110.748C131.843 110.041 132.07 109.34 132.301 108.649C132.373 108.427 132.447 108.206 132.522 107.988C132.579 107.819 132.634 107.651 132.693 107.485V107.482C133.031 106.494 133.372 105.526 133.718 104.576C134.687 101.907 135.684 99.3956 136.655 97.0804L136.657 97.0779C140.689 87.493 144.354 81.269 144.354 81.269L158.116 86.5479C156.475 89.9992 155.204 95.0895 154.509 101.095C153.973 105.868 153.796 110.688 153.981 115.499L153.981 115.501Z" fill="#3F3D56"/>
<path d="M131.107 113.965C131.026 113.741 130.935 113.523 130.842 113.304C130.358 112.194 129.735 111.177 128.995 110.288C128.884 110.154 128.77 110.021 128.651 109.895C127.373 108.501 125.82 107.51 124.134 107.016C122.448 106.521 120.684 106.538 119.005 107.065L118.997 107.07L118.933 107.09L118.948 107.176C119.012 107.574 119.104 107.965 119.224 108.344C119.255 108.448 119.291 108.546 119.328 108.644C119.342 108.689 119.361 108.729 119.378 108.774C119.378 108.774 119.376 108.777 119.381 108.777C119.381 108.779 119.383 108.782 119.383 108.784C119.423 108.877 119.461 108.973 119.504 109.063C119.417 108.965 119.334 108.865 119.253 108.762C119.175 108.666 119.103 108.566 119.031 108.465C118.783 108.123 118.56 107.759 118.363 107.374L118.329 107.306L118.269 107.334C117.469 107.663 116.705 108.106 115.996 108.654L115.919 108.714C115.377 109.136 114.767 109.418 114.127 109.541C113.487 109.665 112.833 109.628 112.206 109.433C111.217 109.131 110.187 109.076 109.179 109.271C108.172 109.466 107.21 109.907 106.354 110.567C105.787 111.005 105.275 111.534 104.831 112.14C104.793 112.193 104.755 112.248 104.717 112.301C104.636 112.417 104.56 112.535 104.486 112.656C103.688 113.919 103.199 115.417 103.071 116.987L103.067 117.045L103.107 117.077C103.825 117.66 104.636 118.061 105.491 118.254C104.954 118.342 104.41 118.359 103.87 118.301H103.868C103.623 118.277 103.38 118.237 103.139 118.181L103.094 118.171H103.092L103.037 118.158L103.045 118.279C103.109 119.815 103.517 121.303 104.227 122.59L104.248 122.625C104.256 122.638 104.263 122.651 104.269 122.665C104.57 123.211 104.82 123.793 105.016 124.402C105.512 125.916 105.621 127.569 105.33 129.156C105 130.853 105.11 132.628 105.644 134.25C106.178 135.873 107.112 137.266 108.324 138.25C109.389 139.119 110.63 139.635 111.919 139.746C112.095 139.764 112.273 139.774 112.452 139.774C113.471 139.777 114.481 139.528 115.414 139.042L115.448 139.027L115.457 138.982C115.636 138.295 115.889 137.638 116.208 137.026C116.103 137.508 116.051 138.004 116.051 138.502V138.668L116.172 138.585C116.276 138.512 116.382 138.434 116.477 138.361C117.05 137.918 117.569 137.383 118.019 136.772C118.195 136.531 118.373 136.297 118.56 136.063L118.562 136.061C118.925 135.603 119.308 135.156 119.707 134.729C120.555 133.826 121.463 133.004 122.422 132.273C123.38 131.544 124.381 130.898 125.419 130.342H125.421C125.537 130.277 125.656 130.214 125.773 130.154C126.289 129.887 126.787 129.571 127.26 129.209C127.277 129.196 127.291 129.186 127.306 129.173C129.357 127.582 130.864 125.18 131.56 122.395C132.256 119.61 132.095 116.623 131.107 113.965Z" fill="#000C79"/>
<path opacity="0.15" d="M105.679 132.725C105.621 133.03 105.577 133.339 105.548 133.651C105.153 132.172 105.096 130.595 105.382 129.082C105.426 128.85 105.459 128.616 105.485 128.38C105.877 129.782 105.944 131.282 105.679 132.725Z" fill="black"/>
<path opacity="0.15" d="M105.839 121.821C105.211 121.924 104.574 121.928 103.945 121.831C103.78 121.463 103.638 121.081 103.52 120.689C104.22 121.249 105.009 121.634 105.839 121.821Z" fill="black"/>
<path opacity="0.15" d="M103.895 118.221C103.663 118.924 103.509 119.659 103.436 120.409C103.243 119.695 103.129 118.954 103.097 118.205L103.091 118.084L103.192 118.107C103.424 118.159 103.659 118.197 103.895 118.221Z" fill="black"/>
<path opacity="0.15" d="M106.409 110.492C107.264 109.832 108.225 109.39 109.232 109.194C110.239 108.999 111.269 109.054 112.257 109.357C112.884 109.553 113.539 109.591 114.179 109.467C114.82 109.344 115.431 109.061 115.973 108.639L116.049 108.579C116.758 108.03 117.521 107.586 118.322 107.256L118.383 107.231L118.416 107.297C118.732 107.917 119.116 108.485 119.556 108.987C119.289 108.396 119.101 107.759 119.001 107.099L118.987 107.012L119.059 106.99C120.634 106.496 122.285 106.45 123.877 106.856C125.469 107.262 126.958 108.109 128.222 109.327C129.486 110.545 130.489 112.1 131.149 113.865C131.809 115.63 132.108 117.555 132.021 119.483C131.687 117.911 131.093 116.434 130.274 115.136C129.455 113.838 128.426 112.746 127.248 111.923C126.07 111.1 124.766 110.562 123.411 110.34C122.057 110.119 120.678 110.218 119.356 110.633L119.284 110.655L119.298 110.742C119.398 111.402 119.586 112.04 119.853 112.63C119.413 112.128 119.03 111.56 118.713 110.94L118.68 110.874L118.619 110.899C117.819 111.229 117.056 111.673 116.346 112.222L116.27 112.282C115.728 112.704 115.117 112.987 114.477 113.11C113.836 113.234 113.181 113.196 112.554 113C110.912 112.495 109.173 112.681 107.634 113.525C106.095 114.37 104.85 115.821 104.113 117.632C103.785 117.445 103.467 117.234 103.16 117.001L103.119 116.97L103.123 116.912C103.229 115.618 103.579 114.369 104.148 113.257C104.717 112.146 105.489 111.201 106.409 110.492Z" fill="black"/>
<path d="M185.255 46.2627L185.054 46.1043L184.908 46.3306C183.775 48.0207 182.874 49.9115 182.237 51.9337C182.325 49.6041 182.669 47.298 183.26 45.0737L183.323 44.8399L183.141 44.7167C180.768 43.1241 178.239 41.8815 175.612 41.0165L175.325 40.926C173.311 40.2711 171.437 39.1204 169.823 37.549C168.21 35.9776 166.894 34.0208 165.962 31.8062C163.795 26.7236 160.372 22.5451 156.149 19.8282C151.926 17.1114 147.105 15.9854 142.329 16.6006H142.326C142.276 16.6057 142.223 16.6132 142.172 16.6207C142.085 16.6308 142 16.6434 141.915 16.6559C141.741 16.6836 141.571 16.7112 141.402 16.7414C141.258 16.7665 141.111 16.7942 140.967 16.8244C140.891 16.8369 140.816 16.852 140.742 16.8696C140.668 16.8847 140.592 16.8998 140.517 16.9174H140.515C139.091 17.2366 137.695 17.7121 136.346 18.3376H136.343V18.3401L136.002 18.4985C135.65 18.6694 135.301 18.8504 134.954 19.0415C134.876 19.0842 134.799 19.1294 134.721 19.1722C134.7 19.1847 134.676 19.1973 134.655 19.2124C134.432 19.3381 134.212 19.4688 133.993 19.607C133.962 19.6246 133.93 19.6448 133.898 19.6649L133.694 19.7931C133.247 20.0796 132.807 20.3838 132.375 20.7055C132.339 20.7307 132.305 20.7558 132.269 20.7835C132.231 20.8136 132.191 20.8438 132.153 20.874C132.129 20.889 132.106 20.9092 132.083 20.9268C132.017 20.9745 131.953 21.0248 131.89 21.0776C131.762 21.1756 131.635 21.2762 131.51 21.3792C131.381 21.4823 131.253 21.5904 131.126 21.6985L130.999 21.8066L131.022 21.9926C131.043 22.1459 131.062 22.2993 131.086 22.4501C131.107 22.6009 131.128 22.7492 131.151 22.8975C131.188 23.1464 131.228 23.3927 131.268 23.6315C131.296 23.7899 131.321 23.9457 131.351 24.0991C131.378 24.2575 131.408 24.4158 131.44 24.5742C131.501 24.901 131.567 25.2177 131.637 25.5294C131.671 25.6853 131.707 25.8411 131.745 25.9944C131.767 26.0874 131.788 26.1805 131.811 26.271C131.828 26.3338 131.845 26.3966 131.862 26.4595C131.866 26.4796 131.87 26.5022 131.877 26.5248C131.882 26.5461 131.887 26.5671 131.894 26.5877C131.917 26.6807 131.94 26.7712 131.964 26.8592C131.976 26.9069 131.989 26.9547 132.004 26.9999C132.034 27.108 132.066 27.2186 132.097 27.3242C132.131 27.4449 132.167 27.5655 132.203 27.6837C132.212 27.7138 132.22 27.7415 132.229 27.7717C132.235 27.7943 132.242 27.8169 132.25 27.8395C132.259 27.8647 132.267 27.8923 132.276 27.9174C132.312 28.0306 132.348 28.1462 132.386 28.2593C132.399 28.2995 132.411 28.3423 132.426 28.3825C132.77 29.4065 133.192 30.391 133.688 31.3236C133.139 30.7655 132.61 30.1739 132.102 29.5489C131.317 28.5824 130.594 27.548 129.938 26.4545C129.885 26.369 129.832 26.281 129.784 26.193C129.684 26.0246 129.586 25.8562 129.491 25.6853C129.389 25.5093 129.291 25.3258 129.196 25.1448C129.132 25.0241 129.069 24.901 129.007 24.7803C128.946 24.6647 128.888 24.5516 128.833 24.4359L128.668 24.0991H128.666V24.1016L128.433 24.3731C128.339 24.4812 128.246 24.5893 128.155 24.6973C125.304 28.0967 123.239 32.3081 122.159 36.9267L122.127 37.0649L122.095 37.2082C122.034 37.4646 121.972 37.7135 121.907 37.9673V37.9699C121.843 38.2212 121.775 38.4726 121.703 38.7189C121.637 38.9527 121.569 39.184 121.497 39.4152C121.474 39.4932 121.448 39.5711 121.421 39.649C121.376 39.7999 121.328 39.9482 121.279 40.099C121.255 40.1669 121.232 40.2372 121.209 40.3051C121.152 40.471 121.094 40.6369 121.037 40.8003C121.028 40.8255 121.018 40.8531 121.007 40.8782C120.99 40.9285 120.971 40.9788 120.954 41.0266C120.91 41.1472 120.863 41.2704 120.819 41.391C120.787 41.469 120.757 41.5494 120.727 41.6273C120.715 41.6625 120.7 41.6977 120.687 41.7329C120.609 41.934 120.528 42.1326 120.443 42.3287C120.348 42.5599 120.25 42.7912 120.146 43.0174C120.055 43.2286 119.96 43.4347 119.86 43.6408C119.688 44.0053 119.508 44.3673 119.321 44.7192C119.249 44.855 119.177 44.9907 119.103 45.1265C119.086 45.1591 119.069 45.1918 119.052 45.222C118.99 45.3401 118.927 45.4533 118.861 45.5689C118.816 45.6468 118.772 45.7247 118.727 45.8001C118.653 45.9359 118.575 46.0666 118.494 46.1948C118.473 46.235 118.449 46.2727 118.426 46.3104C118.307 46.5065 118.189 46.6975 118.068 46.8886C118.063 46.8911 118.063 46.8936 118.061 46.8961C118.057 46.8961 118.057 46.8986 118.055 46.9012C118.002 46.9841 117.949 47.0671 117.894 47.1475C117.822 47.2656 117.743 47.3813 117.665 47.4944C117.538 47.6854 117.404 47.879 117.268 48.0675C117.264 48.0726 117.262 48.0776 117.258 48.0801C116.555 49.0587 115.794 49.9761 114.98 50.8251C114.965 50.8402 114.954 50.8553 114.939 50.8678C114.825 50.986 114.71 51.1041 114.592 51.2198C114.543 51.2675 114.494 51.3153 114.445 51.363C114.365 51.4435 114.282 51.5239 114.201 51.5968C114.192 51.6084 114.181 51.6185 114.17 51.627C114.097 51.6974 114.027 51.7627 113.955 51.8281C113.868 51.911 113.781 51.989 113.692 52.0669C113.272 52.4439 112.841 52.8001 112.399 53.1352C112.333 53.188 112.263 53.2408 112.195 53.2911C112.155 53.3212 112.114 53.3514 112.076 53.3765C111.915 53.4947 111.754 53.6103 111.593 53.7209C111.431 53.834 111.266 53.9421 111.103 54.0477C110.753 54.2739 110.407 54.5102 110.07 54.7566C109.9 54.8823 109.731 55.008 109.563 55.1362C108.897 55.649 108.256 56.1978 107.639 56.7826C107.023 57.3679 106.432 57.9895 105.868 58.6453C105.798 58.7258 105.728 58.8087 105.658 58.8942C105.518 59.0576 105.383 59.2235 105.253 59.3894C105.045 59.6433 104.846 59.9047 104.649 60.1686C103.609 61.5674 102.688 63.0847 101.9 64.6984C101.505 65.5042 101.145 66.334 100.823 67.1845C100.579 67.8204 100.356 68.4715 100.155 69.1301C100.021 69.57 99.896 70.0141 99.7793 70.4624C99.722 70.6861 99.6669 70.9123 99.6139 71.1386C99.4336 71.9053 99.283 72.6795 99.16 73.4562C99.0603 74.0796 98.9797 74.7039 98.9182 75.329C98.8864 75.6432 98.861 75.9574 98.8376 76.2691C98.783 77.0352 98.7551 77.8021 98.754 78.5697C98.7502 80.8726 98.9863 83.1672 99.4569 85.4015C99.5608 85.8942 99.6761 86.3844 99.8026 86.872C99.8663 87.1159 99.9341 87.3572 100.002 87.5985C100.174 88.2018 100.364 88.7992 100.573 89.3908C100.698 89.7452 100.829 90.0971 100.967 90.4465C101.843 92.6678 102.961 94.7434 104.293 96.6203C104.511 96.9295 104.737 97.2336 104.969 97.5328C104.971 97.5328 104.969 97.5353 104.969 97.5353C105.546 98.2813 106.157 98.9896 106.799 99.6569H106.802C107.058 99.9258 107.319 100.186 107.584 100.439C107.586 100.436 107.586 100.439 107.586 100.439C107.854 100.695 108.123 100.941 108.399 101.18C108.536 101.298 108.676 101.416 108.819 101.535C109.096 101.768 109.38 101.994 109.669 102.211H109.671C109.96 102.432 110.252 102.643 110.549 102.844C111.145 103.249 111.756 103.629 112.384 103.973L112.49 104.031L112.598 103.973C113.605 103.436 114.642 102.985 115.703 102.623C115.936 102.543 116.172 102.47 116.405 102.399C116.995 102.226 117.588 102.08 118.186 101.962C117.604 102.308 117.041 102.701 116.503 103.136C116.085 103.47 115.673 103.835 115.26 104.237C115.122 104.37 114.984 104.508 114.846 104.649L114.503 105.001L114.933 105.169C115.09 105.23 115.247 105.29 115.404 105.345C115.618 105.426 115.83 105.499 116.038 105.567C116.492 105.717 116.949 105.851 117.408 105.966C117.521 105.994 117.631 106.022 117.743 106.049C117.962 106.1 118.182 106.15 118.403 106.195C118.412 106.198 118.421 106.199 118.43 106.2C118.659 106.245 118.891 106.288 119.12 106.326C119.546 106.399 119.972 106.457 120.399 106.499C120.445 106.507 120.492 106.509 120.541 106.512C120.645 106.522 120.746 106.532 120.85 106.539C121.079 106.557 121.311 106.57 121.542 106.58C121.559 106.58 121.574 106.582 121.591 106.582C121.707 106.587 121.824 106.592 121.94 106.595C121.94 106.595 121.94 106.597 121.943 106.595C122.059 106.597 122.176 106.6 122.293 106.6H122.937C123.058 106.6 123.179 106.602 123.302 106.602C123.472 106.602 123.644 106.605 123.813 106.607C123.858 106.607 123.904 106.61 123.951 106.61C124.223 106.615 124.494 106.622 124.765 106.63C124.782 106.63 124.799 106.632 124.816 106.632C125.088 106.643 125.359 106.653 125.631 106.668C125.69 106.67 125.75 106.673 125.811 106.678C126.072 106.69 126.333 106.705 126.594 106.723C126.668 106.728 126.744 106.736 126.821 106.741C127.018 106.753 127.217 106.768 127.414 106.786C127.531 106.793 127.646 106.803 127.762 106.816C128.233 106.859 128.702 106.906 129.173 106.962C129.33 106.977 129.487 106.997 129.644 107.017C130.063 107.07 130.485 107.128 130.908 107.191C131.096 107.216 131.285 107.246 131.474 107.276C131.495 107.278 131.516 107.281 131.537 107.286C131.771 107.324 132.002 107.361 132.235 107.402C132.388 107.427 132.541 107.454 132.693 107.482C132.85 107.51 133.007 107.537 133.164 107.57C133.249 107.585 133.334 107.603 133.421 107.62C133.624 107.658 133.83 107.698 134.036 107.744C134.054 107.746 134.073 107.749 134.091 107.754C134.528 107.844 134.967 107.94 135.404 108.043C135.66 108.1 135.915 108.161 136.17 108.224C136.369 108.271 136.568 108.322 136.768 108.372C136.802 108.38 136.835 108.39 136.869 108.4C136.877 108.402 136.885 108.404 136.893 108.405C137.194 108.483 137.497 108.563 137.798 108.648C138.844 108.935 139.888 109.253 140.931 109.604C141.171 109.682 141.41 109.765 141.65 109.848C141.752 109.883 141.851 109.918 141.951 109.953C142.159 110.026 142.365 110.099 142.572 110.177C142.755 110.242 142.939 110.31 143.122 110.38C143.236 110.423 143.351 110.466 143.465 110.511C143.644 110.577 143.822 110.644 143.998 110.717C144.148 110.773 144.297 110.83 144.445 110.893C144.657 110.976 144.872 111.062 145.084 111.152C145.145 111.177 145.209 111.202 145.27 111.23C145.529 111.336 145.788 111.444 146.046 111.557C146.299 111.665 146.551 111.776 146.802 111.886C146.975 111.964 147.149 112.04 147.321 112.12C147.514 112.208 147.707 112.296 147.898 112.386C148.174 112.515 148.452 112.645 148.727 112.779C148.982 112.899 149.234 113.022 149.489 113.151C149.535 113.173 149.584 113.196 149.631 113.221C149.851 113.329 150.072 113.442 150.29 113.555C150.432 113.626 150.572 113.699 150.712 113.771C151.323 114.088 151.933 114.416 152.543 114.754H152.545C152.927 114.968 153.315 115.172 153.705 115.365C153.796 115.41 153.887 115.456 153.981 115.498C154.136 115.576 154.293 115.649 154.449 115.725C154.551 115.772 154.653 115.82 154.757 115.865C154.908 115.936 155.06 116.004 155.213 116.069C155.374 116.139 155.533 116.21 155.697 116.275C155.754 116.3 155.811 116.323 155.87 116.348C156.059 116.423 156.248 116.499 156.439 116.572C156.458 116.579 156.477 116.587 156.498 116.594C156.698 116.67 156.897 116.745 157.098 116.816C157.114 116.823 157.131 116.829 157.147 116.833C157.364 116.911 157.584 116.987 157.803 117.059C158.125 117.165 158.449 117.266 158.774 117.359C158.833 117.376 158.893 117.394 158.952 117.409C159.126 117.459 159.298 117.507 159.472 117.552C159.656 117.602 159.843 117.648 160.027 117.693C160.214 117.738 160.401 117.783 160.585 117.824C160.685 117.846 160.785 117.869 160.882 117.889L161.143 117.942C161.323 117.979 161.504 118.012 161.686 118.047C161.691 118.047 161.696 118.048 161.701 118.05C161.907 118.088 162.11 118.123 162.316 118.153C162.513 118.186 162.71 118.213 162.908 118.241C162.948 118.246 162.99 118.251 163.033 118.256C163.196 118.279 163.359 118.301 163.523 118.319C163.569 118.324 163.616 118.329 163.663 118.334C163.824 118.352 163.985 118.369 164.146 118.382C164.179 118.387 164.211 118.389 164.244 118.389C164.388 118.404 164.532 118.417 164.676 118.424C164.778 118.434 164.878 118.439 164.98 118.447C165.033 118.45 165.084 118.452 165.137 118.455C165.277 118.465 165.417 118.47 165.559 118.475C165.73 118.482 165.902 118.487 166.072 118.492C166.278 118.497 166.486 118.5 166.691 118.5H166.695C166.897 118.5 167.101 118.497 167.302 118.492H167.378L167.601 118.485C167.716 118.482 167.83 118.477 167.943 118.472C168.159 118.462 168.373 118.45 168.587 118.434C168.672 118.429 168.759 118.422 168.844 118.417C168.882 118.414 168.922 118.409 168.961 118.407C169.094 118.397 169.226 118.387 169.359 118.374C169.497 118.362 169.637 118.346 169.775 118.329C169.953 118.309 170.131 118.286 170.309 118.264C170.449 118.246 170.589 118.226 170.727 118.206C170.746 118.204 170.764 118.2 170.782 118.196C170.916 118.178 171.05 118.158 171.181 118.135C171.338 118.11 171.493 118.083 171.648 118.055C171.665 118.052 171.68 118.05 171.697 118.047C171.964 117.997 172.233 117.947 172.503 117.889C172.785 117.829 173.067 117.763 173.347 117.695C173.451 117.67 173.552 117.643 173.656 117.618C173.714 117.602 173.773 117.59 173.828 117.575C173.915 117.552 174 117.53 174.085 117.504C174.1 117.502 174.117 117.497 174.131 117.494C174.25 117.464 174.367 117.429 174.486 117.394C174.723 117.326 174.956 117.256 175.19 117.18C175.294 117.15 175.398 117.117 175.497 117.085C175.527 117.075 175.557 117.064 175.584 117.054C176.015 116.911 176.442 116.759 176.865 116.599C177.052 116.529 177.236 116.456 177.421 116.378C177.817 116.217 178.211 116.048 178.6 115.87C178.704 115.825 178.808 115.775 178.912 115.727C179.065 115.654 179.217 115.581 179.368 115.508C179.504 115.441 179.639 115.373 179.777 115.302C179.845 115.27 179.913 115.234 179.981 115.199C180.184 115.094 180.388 114.986 180.589 114.878C180.725 114.802 180.859 114.729 180.992 114.654C181.205 114.533 181.414 114.41 181.624 114.287C181.677 114.254 181.728 114.221 181.779 114.191C181.913 114.111 182.047 114.028 182.182 113.947C182.396 113.812 182.611 113.676 182.823 113.535C182.895 113.49 182.965 113.442 183.037 113.394C183.27 113.239 183.501 113.08 183.73 112.919C184.237 112.56 184.737 112.185 185.23 111.793C185.353 111.698 185.476 111.597 185.597 111.499C185.826 111.313 186.051 111.122 186.276 110.931C186.299 110.911 186.32 110.891 186.343 110.873C186.456 110.775 186.568 110.677 186.681 110.577C186.914 110.368 187.145 110.157 187.376 109.941C187.381 109.938 187.387 109.931 187.393 109.925C187.497 109.827 187.601 109.729 187.703 109.631C188.019 109.327 188.331 109.018 188.636 108.699C188.787 108.545 188.935 108.387 189.081 108.229C189.192 108.111 189.302 107.992 189.41 107.872C189.629 107.628 189.843 107.387 190.055 107.14C190.161 107.02 190.265 106.894 190.371 106.768C190.475 106.643 190.581 106.517 190.685 106.389C190.721 106.346 190.757 106.301 190.793 106.255C190.899 106.122 191.005 105.986 191.111 105.853C191.202 105.738 191.291 105.617 191.383 105.496C191.535 105.295 191.69 105.094 191.841 104.89C191.849 104.879 191.857 104.868 191.866 104.858C191.875 104.845 191.883 104.835 191.89 104.825H191.887C194.97 100.6 197.261 95.6469 198.608 90.2939C199.954 84.9409 200.326 79.3099 199.699 73.7736C199.073 68.2373 197.461 62.922 194.971 58.1793C192.481 53.4367 189.169 49.3748 185.255 46.2627Z" fill="#000C79"/>
<g opacity="0.15">
<path d="M142.327 16.5986C142.75 18.3986 143.386 20.1183 144.216 21.7065C142.826 20.2912 141.584 18.6836 140.517 16.918C141.116 16.7836 141.72 16.6772 142.327 16.5986Z" fill="black"/>
<path d="M121.632 44.435C120.062 45.4504 118.594 46.6732 117.257 48.08C119.515 44.9146 121.166 41.205 122.094 37.2082C122.106 37.1602 122.117 37.1119 122.128 37.0638L122.159 36.9278C123.275 32.1576 125.44 27.8242 128.432 24.3708L128.667 24.0991L128.833 24.4348C129.75 26.2834 130.848 27.9975 132.103 29.5419C130.179 35.9755 126.436 41.3301 121.632 44.435Z" fill="black"/>
<path d="M132.688 27.3126L132.656 27.4487C132.645 27.4968 132.634 27.5451 132.623 27.5931C132.561 27.8576 132.495 28.1202 132.427 28.3816C131.756 26.3219 131.285 24.1785 131.022 21.9926L130.998 21.8071L131.126 21.6981C132.74 20.3237 134.493 19.1943 136.344 18.3364C134.682 21.0453 133.444 24.0855 132.688 27.3126Z" fill="black"/>
<path d="M111.103 54.05C112.493 53.1488 113.793 52.067 114.98 50.8247C112.609 54.0972 110.909 57.9762 110.014 62.1576C109.118 66.3391 109.052 70.7094 109.821 74.9261C110.589 79.1429 112.17 83.0915 114.442 86.4626C116.713 89.8337 119.612 92.5356 122.911 94.3568L123.018 94.4155L123.125 94.3582C124.908 93.4039 126.787 92.7276 128.716 92.3462C127.512 93.0731 126.389 93.9762 125.375 95.0342L125.032 95.3859L125.462 95.5543C125.834 95.7 126.206 95.8339 126.567 95.9528C128.689 96.6535 130.884 97.0015 133.087 96.9868C143.098 96.9108 153.187 99.6539 163.073 105.14C164.768 106.079 166.526 106.85 168.33 107.443C176.189 110.036 184.579 109.103 191.893 104.823C187.769 110.476 182.377 114.626 176.342 116.792C170.308 118.957 163.879 119.05 157.801 117.058C155.998 116.465 154.24 115.694 152.544 114.755C142.658 109.269 132.57 106.526 122.559 106.602C120.355 106.617 118.161 106.269 116.038 105.568C115.677 105.449 115.306 105.315 114.934 105.169L114.504 105.001L114.847 104.649C115.861 103.591 116.983 102.688 118.187 101.961C116.258 102.343 114.379 103.019 112.597 103.973L112.49 104.031L112.383 103.972C108.42 101.786 105.049 98.3381 102.643 94.013C100.238 89.688 98.8942 84.6559 98.7615 79.4782C98.6288 74.3006 99.7126 69.1811 101.892 64.691C104.071 60.2009 107.26 56.5169 111.103 54.05Z" fill="black"/>
</g>
</g>
<defs>
<clipPath id="clip0_210_3528">
<rect width="200" height="200" fill="white"/>
</clipPath>
</defs>
</svg>
